%TF.GenerationSoftware,KiCad,Pcbnew,6.0.6+dfsg-1~bpo11+1*%
%TF.CreationDate,2022-11-12T15:23:50-08:00*%
%TF.ProjectId,BuildboticsController,4275696c-6462-46f7-9469-6373436f6e74,rev?*%
%TF.SameCoordinates,Original*%
%TF.FileFunction,Soldermask,Top*%
%TF.FilePolarity,Negative*%
%FSLAX46Y46*%
G04 Gerber Fmt 4.6, Leading zero omitted, Abs format (unit mm)*
G04 Created by KiCad (PCBNEW 6.0.6+dfsg-1~bpo11+1) date 2022-11-12 15:23:50*
%MOMM*%
%LPD*%
G01*
G04 APERTURE LIST*
G04 Aperture macros list*
%AMRoundRect*
0 Rectangle with rounded corners*
0 $1 Rounding radius*
0 $2 $3 $4 $5 $6 $7 $8 $9 X,Y pos of 4 corners*
0 Add a 4 corners polygon primitive as box body*
4,1,4,$2,$3,$4,$5,$6,$7,$8,$9,$2,$3,0*
0 Add four circle primitives for the rounded corners*
1,1,$1+$1,$2,$3*
1,1,$1+$1,$4,$5*
1,1,$1+$1,$6,$7*
1,1,$1+$1,$8,$9*
0 Add four rect primitives between the rounded corners*
20,1,$1+$1,$2,$3,$4,$5,0*
20,1,$1+$1,$4,$5,$6,$7,0*
20,1,$1+$1,$6,$7,$8,$9,0*
20,1,$1+$1,$8,$9,$2,$3,0*%
%AMRotRect*
0 Rectangle, with rotation*
0 The origin of the aperture is its center*
0 $1 length*
0 $2 width*
0 $3 Rotation angle, in degrees counterclockwise*
0 Add horizontal line*
21,1,$1,$2,0,0,$3*%
%AMFreePoly0*
4,1,15,-0.537500,2.140000,0.042499,2.140000,0.042499,2.700000,0.792500,2.700000,0.792500,1.560000,1.287500,1.560000,1.287500,0.160000,0.792500,0.160000,0.792500,-0.740000,1.287500,-0.740000,1.287500,-2.140000,-1.287500,-2.140000,-1.287500,2.700000,-0.537500,2.700000,-0.537500,2.140000,-0.537500,2.140000,$1*%
%AMFreePoly1*
4,1,15,-0.289999,1.860000,0.290000,1.860000,0.290000,2.420000,1.040000,2.420000,1.040000,-2.420000,-1.535000,-2.420000,-1.535000,-1.020000,-1.040000,-1.020000,-1.040000,-0.120000,-1.535000,-0.120000,-1.535000,1.280000,-1.040000,1.280000,-1.040000,2.420000,-0.289999,2.420000,-0.289999,1.860000,-0.289999,1.860000,$1*%
G04 Aperture macros list end*
%ADD10C,0.100000*%
%ADD11R,0.850000X0.500000*%
%ADD12R,0.800000X0.600000*%
%ADD13R,3.750000X4.410000*%
%ADD14RoundRect,0.250000X0.337500X0.475000X-0.337500X0.475000X-0.337500X-0.475000X0.337500X-0.475000X0*%
%ADD15R,1.473200X0.558800*%
%ADD16R,1.117600X0.762000*%
%ADD17RoundRect,0.250000X-0.350000X-0.450000X0.350000X-0.450000X0.350000X0.450000X-0.350000X0.450000X0*%
%ADD18R,1.700000X1.700000*%
%ADD19O,1.700000X1.700000*%
%ADD20R,0.850000X0.850000*%
%ADD21RoundRect,0.249999X-1.425001X0.450001X-1.425001X-0.450001X1.425001X-0.450001X1.425001X0.450001X0*%
%ADD22R,0.580000X1.730000*%
%ADD23R,0.760000X1.500000*%
%ADD24R,1.933000X3.030000*%
%ADD25RoundRect,0.250000X0.450000X-0.350000X0.450000X0.350000X-0.450000X0.350000X-0.450000X-0.350000X0*%
%ADD26RoundRect,0.250000X-0.450000X0.350000X-0.450000X-0.350000X0.450000X-0.350000X0.450000X0.350000X0*%
%ADD27RoundRect,0.250000X0.475000X-0.337500X0.475000X0.337500X-0.475000X0.337500X-0.475000X-0.337500X0*%
%ADD28R,0.558800X1.003300*%
%ADD29RoundRect,0.250000X-0.475000X0.337500X-0.475000X-0.337500X0.475000X-0.337500X0.475000X0.337500X0*%
%ADD30RoundRect,0.249999X1.425001X-0.450001X1.425001X0.450001X-1.425001X0.450001X-1.425001X-0.450001X0*%
%ADD31R,1.000000X0.750000*%
%ADD32FreePoly0,270.000000*%
%ADD33FreePoly1,270.000000*%
%ADD34RoundRect,0.250000X-0.337500X-0.475000X0.337500X-0.475000X0.337500X0.475000X-0.337500X0.475000X0*%
%ADD35R,1.400000X0.299999*%
%ADD36C,0.499999*%
%ADD37R,0.249999X0.619999*%
%ADD38R,2.500000X1.300000*%
%ADD39R,0.508000X0.355600*%
%ADD40RoundRect,0.250000X-0.097227X0.574524X-0.574524X0.097227X0.097227X-0.574524X0.574524X-0.097227X0*%
%ADD41R,1.200000X0.900000*%
%ADD42R,1.600000X1.600000*%
%ADD43C,1.600000*%
%ADD44RoundRect,0.250000X0.412500X1.100000X-0.412500X1.100000X-0.412500X-1.100000X0.412500X-1.100000X0*%
%ADD45RoundRect,0.150000X-0.150000X0.587500X-0.150000X-0.587500X0.150000X-0.587500X0.150000X0.587500X0*%
%ADD46R,1.981200X0.558800*%
%ADD47R,0.355600X1.473200*%
%ADD48R,3.200400X3.200400*%
%ADD49RoundRect,0.250000X0.350000X0.450000X-0.350000X0.450000X-0.350000X-0.450000X0.350000X-0.450000X0*%
%ADD50RoundRect,0.250000X-1.100000X0.412500X-1.100000X-0.412500X1.100000X-0.412500X1.100000X0.412500X0*%
%ADD51RoundRect,0.150000X0.150000X-0.587500X0.150000X0.587500X-0.150000X0.587500X-0.150000X-0.587500X0*%
%ADD52R,2.000000X2.000000*%
%ADD53C,2.000000*%
%ADD54R,0.533400X1.460500*%
%ADD55RoundRect,0.150000X0.587500X0.150000X-0.587500X0.150000X-0.587500X-0.150000X0.587500X-0.150000X0*%
%ADD56R,1.200000X0.750000*%
%ADD57R,1.850000X0.900000*%
%ADD58R,1.850000X3.200000*%
%ADD59RoundRect,0.250000X0.097227X-0.574524X0.574524X-0.097227X-0.097227X0.574524X-0.574524X0.097227X0*%
%ADD60R,0.750000X0.400000*%
%ADD61R,1.219200X4.318000*%
%ADD62RoundRect,0.250000X-0.574524X-0.097227X-0.097227X-0.574524X0.574524X0.097227X0.097227X0.574524X0*%
%ADD63C,1.200000*%
%ADD64C,3.000000*%
%ADD65R,2.999999X1.599999*%
%ADD66R,6.200000X5.800001*%
%ADD67C,2.400000*%
%ADD68O,2.400000X2.400000*%
%ADD69C,3.200000*%
%ADD70R,2.200000X3.150000*%
%ADD71C,4.770000*%
%ADD72C,1.830000*%
%ADD73RoundRect,0.150000X0.875000X0.150000X-0.875000X0.150000X-0.875000X-0.150000X0.875000X-0.150000X0*%
%ADD74RoundRect,0.150000X0.825000X0.150000X-0.825000X0.150000X-0.825000X-0.150000X0.825000X-0.150000X0*%
%ADD75R,0.900000X1.200000*%
%ADD76R,0.750000X1.200000*%
%ADD77RoundRect,0.250000X0.574524X0.097227X0.097227X0.574524X-0.574524X-0.097227X-0.097227X-0.574524X0*%
%ADD78RotRect,1.500000X0.550000X45.000000*%
%ADD79RotRect,1.500000X0.550000X135.000000*%
%ADD80RoundRect,0.250000X-0.650000X0.412500X-0.650000X-0.412500X0.650000X-0.412500X0.650000X0.412500X0*%
%ADD81R,1.500000X4.000000*%
G04 APERTURE END LIST*
%TO.C,U9*%
G36*
X98714986Y-112150835D02*
G01*
X98723147Y-112153312D01*
X98730668Y-112157330D01*
X98737259Y-112162740D01*
X98742669Y-112169332D01*
X98746687Y-112176852D01*
X98749164Y-112185014D01*
X98750000Y-112193500D01*
X98750000Y-116806500D01*
X98749164Y-116814986D01*
X98746687Y-116823148D01*
X98742669Y-116830668D01*
X98737259Y-116837260D01*
X98730668Y-116842670D01*
X98723147Y-116846688D01*
X98714986Y-116849165D01*
X98706500Y-116850000D01*
X95893500Y-116850000D01*
X95885014Y-116849165D01*
X95876853Y-116846688D01*
X95869332Y-116842670D01*
X95862741Y-116837260D01*
X95857331Y-116830668D01*
X95853313Y-116823148D01*
X95850836Y-116814986D01*
X95850000Y-116806500D01*
X95850000Y-112193500D01*
X95850836Y-112185014D01*
X95853313Y-112176852D01*
X95857331Y-112169332D01*
X95862741Y-112162740D01*
X95869332Y-112157330D01*
X95876853Y-112153312D01*
X95885014Y-112150835D01*
X95893500Y-112150000D01*
X98706500Y-112150000D01*
X98714986Y-112150835D01*
G37*
D10*
X98714986Y-112150835D02*
X98723147Y-112153312D01*
X98730668Y-112157330D01*
X98737259Y-112162740D01*
X98742669Y-112169332D01*
X98746687Y-112176852D01*
X98749164Y-112185014D01*
X98750000Y-112193500D01*
X98750000Y-116806500D01*
X98749164Y-116814986D01*
X98746687Y-116823148D01*
X98742669Y-116830668D01*
X98737259Y-116837260D01*
X98730668Y-116842670D01*
X98723147Y-116846688D01*
X98714986Y-116849165D01*
X98706500Y-116850000D01*
X95893500Y-116850000D01*
X95885014Y-116849165D01*
X95876853Y-116846688D01*
X95869332Y-116842670D01*
X95862741Y-116837260D01*
X95857331Y-116830668D01*
X95853313Y-116823148D01*
X95850836Y-116814986D01*
X95850000Y-116806500D01*
X95850000Y-112193500D01*
X95850836Y-112185014D01*
X95853313Y-112176852D01*
X95857331Y-112169332D01*
X95862741Y-112162740D01*
X95869332Y-112157330D01*
X95876853Y-112153312D01*
X95885014Y-112150835D01*
X95893500Y-112150000D01*
X98706500Y-112150000D01*
X98714986Y-112150835D01*
%TO.C,U1*%
G36*
X93414986Y-146400835D02*
G01*
X93423147Y-146403312D01*
X93430668Y-146407330D01*
X93437259Y-146412740D01*
X93442669Y-146419332D01*
X93446687Y-146426852D01*
X93449164Y-146435014D01*
X93450000Y-146443500D01*
X93450000Y-151056500D01*
X93449164Y-151064986D01*
X93446687Y-151073148D01*
X93442669Y-151080668D01*
X93437259Y-151087260D01*
X93430668Y-151092670D01*
X93423147Y-151096688D01*
X93414986Y-151099165D01*
X93406500Y-151100000D01*
X90593500Y-151100000D01*
X90585014Y-151099165D01*
X90576853Y-151096688D01*
X90569332Y-151092670D01*
X90562741Y-151087260D01*
X90557331Y-151080668D01*
X90553313Y-151073148D01*
X90550836Y-151064986D01*
X90550000Y-151056500D01*
X90550000Y-146443500D01*
X90550836Y-146435014D01*
X90553313Y-146426852D01*
X90557331Y-146419332D01*
X90562741Y-146412740D01*
X90569332Y-146407330D01*
X90576853Y-146403312D01*
X90585014Y-146400835D01*
X90593500Y-146400000D01*
X93406500Y-146400000D01*
X93414986Y-146400835D01*
G37*
X93414986Y-146400835D02*
X93423147Y-146403312D01*
X93430668Y-146407330D01*
X93437259Y-146412740D01*
X93442669Y-146419332D01*
X93446687Y-146426852D01*
X93449164Y-146435014D01*
X93450000Y-146443500D01*
X93450000Y-151056500D01*
X93449164Y-151064986D01*
X93446687Y-151073148D01*
X93442669Y-151080668D01*
X93437259Y-151087260D01*
X93430668Y-151092670D01*
X93423147Y-151096688D01*
X93414986Y-151099165D01*
X93406500Y-151100000D01*
X90593500Y-151100000D01*
X90585014Y-151099165D01*
X90576853Y-151096688D01*
X90569332Y-151092670D01*
X90562741Y-151087260D01*
X90557331Y-151080668D01*
X90553313Y-151073148D01*
X90550836Y-151064986D01*
X90550000Y-151056500D01*
X90550000Y-146443500D01*
X90550836Y-146435014D01*
X90553313Y-146426852D01*
X90557331Y-146419332D01*
X90562741Y-146412740D01*
X90569332Y-146407330D01*
X90576853Y-146403312D01*
X90585014Y-146400835D01*
X90593500Y-146400000D01*
X93406500Y-146400000D01*
X93414986Y-146400835D01*
%TO.C,U12*%
G36*
X93744986Y-55790835D02*
G01*
X93753147Y-55793312D01*
X93760668Y-55797330D01*
X93767259Y-55802740D01*
X93772669Y-55809332D01*
X93776687Y-55816852D01*
X93779164Y-55825014D01*
X93780000Y-55833500D01*
X93780000Y-60446500D01*
X93779164Y-60454986D01*
X93776687Y-60463148D01*
X93772669Y-60470668D01*
X93767259Y-60477260D01*
X93760668Y-60482670D01*
X93753147Y-60486688D01*
X93744986Y-60489165D01*
X93736500Y-60490000D01*
X90923500Y-60490000D01*
X90915014Y-60489165D01*
X90906853Y-60486688D01*
X90899332Y-60482670D01*
X90892741Y-60477260D01*
X90887331Y-60470668D01*
X90883313Y-60463148D01*
X90880836Y-60454986D01*
X90880000Y-60446500D01*
X90880000Y-55833500D01*
X90880836Y-55825014D01*
X90883313Y-55816852D01*
X90887331Y-55809332D01*
X90892741Y-55802740D01*
X90899332Y-55797330D01*
X90906853Y-55793312D01*
X90915014Y-55790835D01*
X90923500Y-55790000D01*
X93736500Y-55790000D01*
X93744986Y-55790835D01*
G37*
X93744986Y-55790835D02*
X93753147Y-55793312D01*
X93760668Y-55797330D01*
X93767259Y-55802740D01*
X93772669Y-55809332D01*
X93776687Y-55816852D01*
X93779164Y-55825014D01*
X93780000Y-55833500D01*
X93780000Y-60446500D01*
X93779164Y-60454986D01*
X93776687Y-60463148D01*
X93772669Y-60470668D01*
X93767259Y-60477260D01*
X93760668Y-60482670D01*
X93753147Y-60486688D01*
X93744986Y-60489165D01*
X93736500Y-60490000D01*
X90923500Y-60490000D01*
X90915014Y-60489165D01*
X90906853Y-60486688D01*
X90899332Y-60482670D01*
X90892741Y-60477260D01*
X90887331Y-60470668D01*
X90883313Y-60463148D01*
X90880836Y-60454986D01*
X90880000Y-60446500D01*
X90880000Y-55833500D01*
X90880836Y-55825014D01*
X90883313Y-55816852D01*
X90887331Y-55809332D01*
X90892741Y-55802740D01*
X90899332Y-55797330D01*
X90906853Y-55793312D01*
X90915014Y-55790835D01*
X90923500Y-55790000D01*
X93736500Y-55790000D01*
X93744986Y-55790835D01*
%TO.C,U11*%
G36*
X98914986Y-84900835D02*
G01*
X98923147Y-84903312D01*
X98930668Y-84907330D01*
X98937259Y-84912740D01*
X98942669Y-84919332D01*
X98946687Y-84926852D01*
X98949164Y-84935014D01*
X98950000Y-84943500D01*
X98950000Y-89556500D01*
X98949164Y-89564986D01*
X98946687Y-89573148D01*
X98942669Y-89580668D01*
X98937259Y-89587260D01*
X98930668Y-89592670D01*
X98923147Y-89596688D01*
X98914986Y-89599165D01*
X98906500Y-89600000D01*
X96093500Y-89600000D01*
X96085014Y-89599165D01*
X96076853Y-89596688D01*
X96069332Y-89592670D01*
X96062741Y-89587260D01*
X96057331Y-89580668D01*
X96053313Y-89573148D01*
X96050836Y-89564986D01*
X96050000Y-89556500D01*
X96050000Y-84943500D01*
X96050836Y-84935014D01*
X96053313Y-84926852D01*
X96057331Y-84919332D01*
X96062741Y-84912740D01*
X96069332Y-84907330D01*
X96076853Y-84903312D01*
X96085014Y-84900835D01*
X96093500Y-84900000D01*
X98906500Y-84900000D01*
X98914986Y-84900835D01*
G37*
X98914986Y-84900835D02*
X98923147Y-84903312D01*
X98930668Y-84907330D01*
X98937259Y-84912740D01*
X98942669Y-84919332D01*
X98946687Y-84926852D01*
X98949164Y-84935014D01*
X98950000Y-84943500D01*
X98950000Y-89556500D01*
X98949164Y-89564986D01*
X98946687Y-89573148D01*
X98942669Y-89580668D01*
X98937259Y-89587260D01*
X98930668Y-89592670D01*
X98923147Y-89596688D01*
X98914986Y-89599165D01*
X98906500Y-89600000D01*
X96093500Y-89600000D01*
X96085014Y-89599165D01*
X96076853Y-89596688D01*
X96069332Y-89592670D01*
X96062741Y-89587260D01*
X96057331Y-89580668D01*
X96053313Y-89573148D01*
X96050836Y-89564986D01*
X96050000Y-89556500D01*
X96050000Y-84943500D01*
X96050836Y-84935014D01*
X96053313Y-84926852D01*
X96057331Y-84919332D01*
X96062741Y-84912740D01*
X96069332Y-84907330D01*
X96076853Y-84903312D01*
X96085014Y-84900835D01*
X96093500Y-84900000D01*
X98906500Y-84900000D01*
X98914986Y-84900835D01*
%TD*%
D11*
%TO.C,Q6*%
X136500000Y-27810000D03*
X136500000Y-26540000D03*
X136500000Y-25270000D03*
X136500000Y-24000000D03*
D12*
X130675000Y-24000000D03*
X130675000Y-25270000D03*
X130675000Y-26540000D03*
X130675000Y-27810000D03*
D13*
X132950000Y-25905000D03*
%TD*%
D14*
%TO.C,C21*%
X50037500Y-68400000D03*
X47962500Y-68400000D03*
%TD*%
%TO.C,C14*%
X24837500Y-37400000D03*
X22762500Y-37400000D03*
%TD*%
D15*
%TO.C,U17*%
X84806200Y-135299999D03*
X84806200Y-136250000D03*
X84806200Y-137200001D03*
X87193800Y-137200001D03*
X87193800Y-135299999D03*
%TD*%
D16*
%TO.C,D11*%
X143552600Y-130038050D03*
X140047400Y-130038050D03*
%TD*%
D17*
%TO.C,R8*%
X72700000Y-149200000D03*
X74700000Y-149200000D03*
%TD*%
D18*
%TO.C,J11*%
X67900000Y-41375000D03*
D19*
X67900000Y-43915000D03*
X67900000Y-46455000D03*
%TD*%
D20*
%TO.C,TP13*%
X42400000Y-102370000D03*
%TD*%
D15*
%TO.C,U26*%
X57306200Y-94749999D03*
X57306200Y-95700000D03*
X57306200Y-96650001D03*
X59693800Y-96650001D03*
X59693800Y-94749999D03*
%TD*%
D16*
%TO.C,D18*%
X148052600Y-128700000D03*
X144547400Y-128700000D03*
%TD*%
D21*
%TO.C,R46*%
X106950000Y-102250000D03*
X106950000Y-108350000D03*
%TD*%
D17*
%TO.C,R43*%
X69550000Y-119200000D03*
X71550000Y-119200000D03*
%TD*%
D22*
%TO.C,U27*%
X84492000Y-158727000D03*
D23*
X82992000Y-158612000D03*
D22*
X81492000Y-158727000D03*
D24*
X82992000Y-160877000D03*
%TD*%
D25*
%TO.C,R75*%
X44384000Y-167050000D03*
X44384000Y-165050000D03*
%TD*%
D17*
%TO.C,R64*%
X101690000Y-52520000D03*
X103690000Y-52520000D03*
%TD*%
D26*
%TO.C,R83*%
X74610000Y-164796000D03*
X74610000Y-166796000D03*
%TD*%
D15*
%TO.C,U15*%
X133206200Y-147449999D03*
X133206200Y-148400000D03*
X133206200Y-149350001D03*
X135593800Y-149350001D03*
X135593800Y-147449999D03*
%TD*%
D14*
%TO.C,C59*%
X91395500Y-51750000D03*
X89320500Y-51750000D03*
%TD*%
D27*
%TO.C,C37*%
X28890000Y-117049500D03*
X28890000Y-114974500D03*
%TD*%
D28*
%TO.C,Q10*%
X58649999Y-62152550D03*
X59600000Y-62152550D03*
X60550001Y-62152550D03*
X60550001Y-59447450D03*
X59600000Y-59447450D03*
X58649999Y-59447450D03*
%TD*%
D20*
%TO.C,TP8*%
X58380000Y-66800000D03*
%TD*%
D29*
%TO.C,C82*%
X32954000Y-161202500D03*
X32954000Y-163277500D03*
%TD*%
D25*
%TO.C,R29*%
X67400000Y-61800000D03*
X67400000Y-59800000D03*
%TD*%
D26*
%TO.C,R87*%
X35250000Y-61500000D03*
X35250000Y-63500000D03*
%TD*%
D30*
%TO.C,R5*%
X106000000Y-162300000D03*
X106000000Y-156200000D03*
%TD*%
D20*
%TO.C,TP3*%
X60386000Y-54290000D03*
%TD*%
D15*
%TO.C,U20*%
X99578200Y-130809999D03*
X99578200Y-131760000D03*
X99578200Y-132710001D03*
X101965800Y-132710001D03*
X101965800Y-130809999D03*
%TD*%
D31*
%TO.C,Q2*%
X109705000Y-143345000D03*
X109705000Y-144615000D03*
X109705000Y-145885000D03*
X109705000Y-147155000D03*
D32*
X113095000Y-146737500D03*
D33*
X113375000Y-144010000D03*
%TD*%
D18*
%TO.C,J12*%
X74500000Y-82675000D03*
D19*
X74500000Y-85215000D03*
X74500000Y-87755000D03*
%TD*%
D34*
%TO.C,C88*%
X145162500Y-153400000D03*
X147237500Y-153400000D03*
%TD*%
D17*
%TO.C,R33*%
X45800000Y-77400000D03*
X47800000Y-77400000D03*
%TD*%
D31*
%TO.C,Q15*%
X109707500Y-88065000D03*
X109707500Y-89335000D03*
X109707500Y-90605000D03*
X109707500Y-91875000D03*
D32*
X113097500Y-91457500D03*
D33*
X113377500Y-88730000D03*
%TD*%
D34*
%TO.C,C61*%
X80430500Y-54290000D03*
X82505500Y-54290000D03*
%TD*%
%TO.C,C96*%
X67730500Y-154112000D03*
X69805500Y-154112000D03*
%TD*%
D35*
%TO.C,U9*%
X94350001Y-109999999D03*
X94350001Y-110499998D03*
X94350001Y-110999999D03*
X94350001Y-111499998D03*
X94350001Y-112000000D03*
X94350001Y-112499999D03*
X94350001Y-112999998D03*
X94350001Y-113499999D03*
X94350001Y-113999998D03*
X94350001Y-114500000D03*
X94350001Y-114999999D03*
X94350001Y-115499998D03*
X94350001Y-116000000D03*
X94350001Y-116499999D03*
X94350001Y-117000000D03*
X94350001Y-117499999D03*
X94350001Y-117999998D03*
X94350001Y-118500000D03*
X94350001Y-118999999D03*
X100250002Y-118999999D03*
X100250002Y-118500000D03*
X100250002Y-117999998D03*
X100250002Y-117499999D03*
X100250002Y-117000000D03*
X100250002Y-116499999D03*
X100250002Y-116000000D03*
X100250002Y-115499998D03*
X100250002Y-114999999D03*
X100250002Y-114500000D03*
X100250002Y-113999998D03*
X100250002Y-113499999D03*
X100250002Y-112999998D03*
X100250002Y-112499999D03*
X100250002Y-112000000D03*
X100250002Y-111499998D03*
X100250002Y-110999999D03*
X100250002Y-110499998D03*
X100250002Y-109999999D03*
D36*
X96000000Y-112550000D03*
X95950000Y-115150001D03*
X96000000Y-119050000D03*
X98550000Y-113850000D03*
X97250000Y-113850000D03*
X97300000Y-119050000D03*
X95950000Y-116450001D03*
X97300000Y-112550000D03*
X95950000Y-113850000D03*
X98600000Y-109949999D03*
X98600000Y-119050000D03*
X98600000Y-117750000D03*
X96000000Y-111250000D03*
X97250000Y-115150001D03*
X98600000Y-112550000D03*
X97300000Y-111250000D03*
X98550000Y-116450001D03*
X98600000Y-111250000D03*
X96000000Y-109949999D03*
X97300000Y-117750000D03*
X97300000Y-109949999D03*
X98550000Y-115150001D03*
X97250000Y-116450001D03*
X96000000Y-117750000D03*
%TD*%
D31*
%TO.C,Q22*%
X109180000Y-50705000D03*
X109180000Y-51975000D03*
X109180000Y-53245000D03*
X109180000Y-54515000D03*
D32*
X112570000Y-54097500D03*
D33*
X112850000Y-51370000D03*
%TD*%
D21*
%TO.C,R54*%
X106500000Y-71510000D03*
X106500000Y-77610000D03*
%TD*%
D20*
%TO.C,TP6*%
X40750000Y-24000000D03*
%TD*%
D37*
%TO.C,U8*%
X124000000Y-27860000D03*
X123500001Y-27860000D03*
X123000000Y-27860000D03*
X122500000Y-27860000D03*
X121999999Y-27860000D03*
X121500000Y-27860000D03*
X121500000Y-30640000D03*
X121999999Y-30640000D03*
X122500000Y-30640000D03*
X123000000Y-30640000D03*
X123500001Y-30640000D03*
X124000000Y-30640000D03*
D38*
X122750000Y-29250000D03*
D36*
X121749999Y-29250000D03*
X122750000Y-29275400D03*
X123750001Y-29250000D03*
%TD*%
D29*
%TO.C,C28*%
X43200000Y-96762500D03*
X43200000Y-98837500D03*
%TD*%
D39*
%TO.C,D9*%
X24799900Y-143600000D03*
X26400100Y-143600000D03*
%TD*%
D40*
%TO.C,C33*%
X56933623Y-113366377D03*
X55466377Y-114833623D03*
%TD*%
D34*
%TO.C,C6*%
X83662500Y-142500000D03*
X85737500Y-142500000D03*
%TD*%
D41*
%TO.C,D3*%
X73000000Y-70900000D03*
X73000000Y-67600000D03*
%TD*%
D18*
%TO.C,J10*%
X85370000Y-37270000D03*
D19*
X85370000Y-34730000D03*
X87910000Y-37270000D03*
X87910000Y-34730000D03*
X90450000Y-37270000D03*
X90450000Y-34730000D03*
X92990000Y-37270000D03*
X92990000Y-34730000D03*
X95530000Y-37270000D03*
X95530000Y-34730000D03*
X98070000Y-37270000D03*
X98070000Y-34730000D03*
X100610000Y-37270000D03*
X100610000Y-34730000D03*
X103150000Y-37270000D03*
X103150000Y-34730000D03*
X105690000Y-37270000D03*
X105690000Y-34730000D03*
X108230000Y-37270000D03*
X108230000Y-34730000D03*
X110770000Y-37270000D03*
X110770000Y-34730000D03*
X113310000Y-37270000D03*
X113310000Y-34730000D03*
X115850000Y-37270000D03*
X115850000Y-34730000D03*
X118390000Y-37270000D03*
X118390000Y-34730000D03*
X120930000Y-37270000D03*
X120930000Y-34730000D03*
X123470000Y-37270000D03*
X123470000Y-34730000D03*
X126010000Y-37270000D03*
X126010000Y-34730000D03*
X128550000Y-37270000D03*
X128550000Y-34730000D03*
X131090000Y-37270000D03*
X131090000Y-34730000D03*
X133630000Y-37270000D03*
X133630000Y-34730000D03*
%TD*%
D29*
%TO.C,C43*%
X100100000Y-120862500D03*
X100100000Y-122937500D03*
%TD*%
D27*
%TO.C,C24*%
X42600000Y-84237500D03*
X42600000Y-82162500D03*
%TD*%
D34*
%TO.C,C64*%
X95112500Y-65340000D03*
X97187500Y-65340000D03*
%TD*%
D14*
%TO.C,C97*%
X49937500Y-42600000D03*
X47862500Y-42600000D03*
%TD*%
D42*
%TO.C,C58*%
X86035113Y-78870000D03*
D43*
X84035113Y-78870000D03*
%TD*%
D44*
%TO.C,C19*%
X51162500Y-63200000D03*
X48037500Y-63200000D03*
%TD*%
D34*
%TO.C,C9*%
X83712500Y-144750000D03*
X85787500Y-144750000D03*
%TD*%
D14*
%TO.C,C23*%
X54237500Y-83400000D03*
X52162500Y-83400000D03*
%TD*%
D34*
%TO.C,C69*%
X70212500Y-128250000D03*
X72287500Y-128250000D03*
%TD*%
D45*
%TO.C,Q23*%
X39200000Y-67312500D03*
X37300000Y-67312500D03*
X38250000Y-69187500D03*
%TD*%
D46*
%TO.C,U16*%
X35805150Y-164589500D03*
X35805150Y-165859500D03*
X35805150Y-167129500D03*
X35805150Y-168399500D03*
X40732750Y-168399500D03*
X40732750Y-167129500D03*
X40732750Y-165859500D03*
X40732750Y-164589500D03*
%TD*%
D14*
%TO.C,C54*%
X100417500Y-93690000D03*
X98342500Y-93690000D03*
%TD*%
D26*
%TO.C,R85*%
X41250000Y-61500000D03*
X41250000Y-63500000D03*
%TD*%
D29*
%TO.C,C83*%
X33208000Y-167298500D03*
X33208000Y-169373500D03*
%TD*%
D34*
%TO.C,C90*%
X133562500Y-145400000D03*
X135637500Y-145400000D03*
%TD*%
%TO.C,C10*%
X83462500Y-147250000D03*
X85537500Y-147250000D03*
%TD*%
%TO.C,C29*%
X34162500Y-102000000D03*
X36237500Y-102000000D03*
%TD*%
D47*
%TO.C,U6*%
X54274999Y-75329000D03*
X53625001Y-75329000D03*
X52974999Y-75329000D03*
X52325001Y-75329000D03*
X51675002Y-75329000D03*
X51025001Y-75329000D03*
X50375002Y-75329000D03*
X49725001Y-75329000D03*
X49725001Y-81171000D03*
X50374999Y-81171000D03*
X51025001Y-81171000D03*
X51674999Y-81171000D03*
X52324998Y-81171000D03*
X52974999Y-81171000D03*
X53624998Y-81171000D03*
X54274999Y-81171000D03*
D48*
X52000000Y-78250000D03*
%TD*%
D16*
%TO.C,D17*%
X148052600Y-150800000D03*
X144547400Y-150800000D03*
%TD*%
D44*
%TO.C,C12*%
X93062500Y-27250000D03*
X89937500Y-27250000D03*
%TD*%
D34*
%TO.C,C72*%
X85462500Y-133250000D03*
X87537500Y-133250000D03*
%TD*%
D39*
%TO.C,D7*%
X23999900Y-150800000D03*
X25600100Y-150800000D03*
%TD*%
D49*
%TO.C,R22*%
X24750000Y-35250000D03*
X22750000Y-35250000D03*
%TD*%
D34*
%TO.C,C62*%
X80684500Y-56576000D03*
X82759500Y-56576000D03*
%TD*%
D15*
%TO.C,U18*%
X85436000Y-127984999D03*
X85436000Y-128935000D03*
X85436000Y-129885001D03*
X87823600Y-129885001D03*
X87823600Y-127984999D03*
%TD*%
D50*
%TO.C,C27*%
X46200000Y-92237500D03*
X46200000Y-95362500D03*
%TD*%
D51*
%TO.C,D5*%
X69450000Y-61737500D03*
X71350000Y-61737500D03*
X70400000Y-59862500D03*
%TD*%
D17*
%TO.C,R58*%
X40500000Y-137000000D03*
X42500000Y-137000000D03*
%TD*%
D16*
%TO.C,D16*%
X148052600Y-125900000D03*
X144547400Y-125900000D03*
%TD*%
D14*
%TO.C,C38*%
X96187500Y-108080000D03*
X94112500Y-108080000D03*
%TD*%
D17*
%TO.C,R71*%
X24588000Y-162494000D03*
X26588000Y-162494000D03*
%TD*%
D34*
%TO.C,C87*%
X144562500Y-160600000D03*
X146637500Y-160600000D03*
%TD*%
D20*
%TO.C,TP14*%
X146000000Y-25750000D03*
%TD*%
D52*
%TO.C,C55*%
X129750000Y-93632323D03*
D53*
X129750000Y-98632323D03*
%TD*%
D54*
%TO.C,U4*%
X71938475Y-42250000D03*
X73208475Y-42250000D03*
X74478475Y-42250000D03*
X75748475Y-42250000D03*
X75748475Y-36801700D03*
X74478475Y-36801700D03*
X73208475Y-36801700D03*
X71938475Y-36801700D03*
%TD*%
D39*
%TO.C,D10*%
X28499900Y-143600000D03*
X30100100Y-143600000D03*
%TD*%
D17*
%TO.C,R69*%
X70250000Y-134250000D03*
X72250000Y-134250000D03*
%TD*%
D34*
%TO.C,C73*%
X85712500Y-126000000D03*
X87787500Y-126000000D03*
%TD*%
D29*
%TO.C,C86*%
X46900000Y-169062500D03*
X46900000Y-171137500D03*
%TD*%
D52*
%TO.C,C66*%
X131550000Y-66910000D03*
D53*
X131550000Y-71910000D03*
%TD*%
D18*
%TO.C,J4*%
X24250000Y-123250000D03*
D19*
X26790000Y-123250000D03*
X24250000Y-125790000D03*
X26790000Y-125790000D03*
X24250000Y-128330000D03*
X26790000Y-128330000D03*
%TD*%
D31*
%TO.C,Q13*%
X110010000Y-125307500D03*
X110010000Y-126577500D03*
X110010000Y-127847500D03*
X110010000Y-129117500D03*
D32*
X113400000Y-128700000D03*
D33*
X113680000Y-125972500D03*
%TD*%
D34*
%TO.C,C78*%
X63359000Y-95782099D03*
X65434000Y-95782099D03*
%TD*%
%TO.C,C51*%
X84882500Y-82910000D03*
X86957500Y-82910000D03*
%TD*%
D30*
%TO.C,R44*%
X106000000Y-131350000D03*
X106000000Y-125250000D03*
%TD*%
D16*
%TO.C,D12*%
X143652600Y-132800000D03*
X140147400Y-132800000D03*
%TD*%
D45*
%TO.C,Q24*%
X39200000Y-61562500D03*
X37300000Y-61562500D03*
X38250000Y-63437500D03*
%TD*%
D21*
%TO.C,R3*%
X106100000Y-133550000D03*
X106100000Y-139650000D03*
%TD*%
D29*
%TO.C,C63*%
X84516000Y-51982500D03*
X84516000Y-54057500D03*
%TD*%
D20*
%TO.C,TP21*%
X89700000Y-66100000D03*
%TD*%
D49*
%TO.C,R21*%
X24750000Y-33000000D03*
X22750000Y-33000000D03*
%TD*%
D55*
%TO.C,Q7*%
X50137500Y-48550000D03*
X50137500Y-46650000D03*
X48262500Y-47600000D03*
%TD*%
D29*
%TO.C,C84*%
X46924000Y-160948500D03*
X46924000Y-163023500D03*
%TD*%
D20*
%TO.C,TP4*%
X85000000Y-27000000D03*
%TD*%
D52*
%TO.C,C2*%
X124000000Y-158750000D03*
D53*
X124000000Y-163750000D03*
%TD*%
D34*
%TO.C,C79*%
X72725000Y-51100000D03*
X74800000Y-51100000D03*
%TD*%
D20*
%TO.C,TP17*%
X91550000Y-120500000D03*
%TD*%
D18*
%TO.C,J6*%
X96700000Y-141400000D03*
D19*
X94160000Y-141400000D03*
X96700000Y-138860000D03*
X94160000Y-138860000D03*
X96700000Y-136320000D03*
X94160000Y-136320000D03*
X96700000Y-133780000D03*
X94160000Y-133780000D03*
X96700000Y-131240000D03*
X94160000Y-131240000D03*
X96700000Y-128700000D03*
X94160000Y-128700000D03*
X96700000Y-126160000D03*
X94160000Y-126160000D03*
X96700000Y-123620000D03*
X94160000Y-123620000D03*
%TD*%
D34*
%TO.C,C26*%
X43962500Y-86400000D03*
X46037500Y-86400000D03*
%TD*%
D52*
%TO.C,C44*%
X133500000Y-127132323D03*
D53*
X133500000Y-132132323D03*
%TD*%
D34*
%TO.C,C41*%
X86582500Y-112680000D03*
X88657500Y-112680000D03*
%TD*%
D40*
%TO.C,C32*%
X51283623Y-107616377D03*
X49816377Y-109083623D03*
%TD*%
D15*
%TO.C,U5*%
X34993800Y-25150001D03*
X34993800Y-24200000D03*
X34993800Y-23249999D03*
X32606200Y-23249999D03*
X32606200Y-25150001D03*
%TD*%
D14*
%TO.C,C20*%
X50037500Y-66200000D03*
X47962500Y-66200000D03*
%TD*%
D51*
%TO.C,Q9*%
X54650000Y-63937500D03*
X56550000Y-63937500D03*
X55600000Y-62062500D03*
%TD*%
D20*
%TO.C,TP2*%
X96750000Y-25750000D03*
%TD*%
D34*
%TO.C,C74*%
X50531250Y-98562500D03*
X52606250Y-98562500D03*
%TD*%
D49*
%TO.C,R30*%
X60580000Y-64040000D03*
X58580000Y-64040000D03*
%TD*%
D20*
%TO.C,TP12*%
X30250000Y-110250000D03*
%TD*%
D34*
%TO.C,C89*%
X131562500Y-152300000D03*
X133637500Y-152300000D03*
%TD*%
D17*
%TO.C,R42*%
X69550000Y-117100000D03*
X71550000Y-117100000D03*
%TD*%
D11*
%TO.C,Q5*%
X101682000Y-24191000D03*
X101682000Y-25461000D03*
X101682000Y-26731000D03*
X101682000Y-28001000D03*
D12*
X107507000Y-28001000D03*
X107507000Y-26731000D03*
X107507000Y-25461000D03*
X107507000Y-24191000D03*
D13*
X105232000Y-26096000D03*
%TD*%
D56*
%TO.C,Z1*%
X47100000Y-55000000D03*
X50500000Y-55000000D03*
%TD*%
D26*
%TO.C,R84*%
X41250000Y-67250000D03*
X41250000Y-69250000D03*
%TD*%
D57*
%TO.C,U7*%
X38300000Y-99100000D03*
X38300000Y-96800000D03*
X38300000Y-94500000D03*
D58*
X32100000Y-96800000D03*
%TD*%
D59*
%TO.C,C35*%
X39466377Y-131933623D03*
X40933623Y-130466377D03*
%TD*%
D60*
%TO.C,L2*%
X50317000Y-165879000D03*
X52167000Y-165879000D03*
X52167000Y-166729000D03*
X50317000Y-166729000D03*
%TD*%
D17*
%TO.C,R7*%
X72700000Y-151400000D03*
X74700000Y-151400000D03*
%TD*%
%TO.C,R18*%
X28100000Y-26300000D03*
X30100000Y-26300000D03*
%TD*%
D25*
%TO.C,R79*%
X64704000Y-167050000D03*
X64704000Y-165050000D03*
%TD*%
D17*
%TO.C,R4*%
X98250000Y-149750000D03*
X100250000Y-149750000D03*
%TD*%
D49*
%TO.C,R39*%
X74000000Y-104500000D03*
X72000000Y-104500000D03*
%TD*%
D61*
%TO.C,X1*%
X24826000Y-105420200D03*
X24826000Y-115427800D03*
%TD*%
D42*
%TO.C,C68*%
X92958888Y-47940000D03*
D43*
X94958888Y-47940000D03*
%TD*%
D26*
%TO.C,R41*%
X27500000Y-145500000D03*
X27500000Y-147500000D03*
%TD*%
D49*
%TO.C,R23*%
X55000000Y-48600000D03*
X53000000Y-48600000D03*
%TD*%
D34*
%TO.C,C91*%
X57262500Y-92600000D03*
X59337500Y-92600000D03*
%TD*%
D62*
%TO.C,C31*%
X37816377Y-108316377D03*
X39283623Y-109783623D03*
%TD*%
D63*
%TO.C,C93*%
X82522000Y-167282000D03*
X80522000Y-167282000D03*
%TD*%
D17*
%TO.C,R49*%
X104800000Y-115400000D03*
X106800000Y-115400000D03*
%TD*%
D26*
%TO.C,R40*%
X26400000Y-153000000D03*
X26400000Y-155000000D03*
%TD*%
D42*
%TO.C,C46*%
X87340000Y-118750000D03*
D43*
X85340000Y-118750000D03*
%TD*%
D64*
%TO.C,J2*%
X157550000Y-32800000D03*
X157550000Y-41200000D03*
%TD*%
D62*
%TO.C,C30*%
X32966377Y-112516377D03*
X34433623Y-113983623D03*
%TD*%
D52*
%TO.C,C56*%
X121340000Y-75440000D03*
D53*
X121340000Y-70440000D03*
%TD*%
D29*
%TO.C,C81*%
X28636000Y-167298500D03*
X28636000Y-169373500D03*
%TD*%
D17*
%TO.C,R34*%
X45800000Y-75200000D03*
X47800000Y-75200000D03*
%TD*%
D20*
%TO.C,TP19*%
X91620000Y-93900000D03*
%TD*%
D65*
%TO.C,Q8*%
X44800001Y-51490001D03*
X44800001Y-46909999D03*
D66*
X37600000Y-49200001D03*
%TD*%
D17*
%TO.C,R66*%
X70250000Y-130500000D03*
X72250000Y-130500000D03*
%TD*%
%TO.C,R55*%
X104230000Y-90420000D03*
X106230000Y-90420000D03*
%TD*%
D42*
%TO.C,C67*%
X83240000Y-64490000D03*
D43*
X83240000Y-66490000D03*
%TD*%
D26*
%TO.C,R82*%
X74610000Y-160748000D03*
X74610000Y-162748000D03*
%TD*%
D25*
%TO.C,R74*%
X44384000Y-162970000D03*
X44384000Y-160970000D03*
%TD*%
D15*
%TO.C,U14*%
X131906200Y-154349999D03*
X131906200Y-155300000D03*
X131906200Y-156250001D03*
X134293800Y-156250001D03*
X134293800Y-154349999D03*
%TD*%
D20*
%TO.C,TP18*%
X102400000Y-121200000D03*
%TD*%
D17*
%TO.C,R6*%
X98250000Y-152000000D03*
X100250000Y-152000000D03*
%TD*%
D49*
%TO.C,R28*%
X62800000Y-69200000D03*
X60800000Y-69200000D03*
%TD*%
D67*
%TO.C,R25*%
X27800000Y-47555000D03*
D68*
X27800000Y-78035000D03*
%TD*%
D20*
%TO.C,TP22*%
X95270000Y-67540000D03*
%TD*%
D69*
%TO.C,REF\u002A\u002A*%
X138500000Y-49250000D03*
%TD*%
D34*
%TO.C,C16*%
X60762500Y-66800000D03*
X62837500Y-66800000D03*
%TD*%
D70*
%TO.C,D1*%
X151450000Y-48880000D03*
X144450000Y-48880000D03*
%TD*%
D17*
%TO.C,R24*%
X37400000Y-43200000D03*
X39400000Y-43200000D03*
%TD*%
D20*
%TO.C,TP20*%
X100160000Y-95940000D03*
%TD*%
%TO.C,TP11*%
X42000000Y-92600000D03*
%TD*%
%TO.C,TP16*%
X95000000Y-159000000D03*
%TD*%
D17*
%TO.C,R80*%
X64720000Y-162748000D03*
X66720000Y-162748000D03*
%TD*%
D31*
%TO.C,Q14*%
X110005000Y-112195000D03*
X110005000Y-113465000D03*
X110005000Y-114735000D03*
X110005000Y-116005000D03*
D32*
X113395000Y-115587500D03*
D33*
X113675000Y-112860000D03*
%TD*%
D25*
%TO.C,R27*%
X66400000Y-68600000D03*
X66400000Y-66600000D03*
%TD*%
D14*
%TO.C,C15*%
X34737500Y-27500000D03*
X32662500Y-27500000D03*
%TD*%
D71*
%TO.C,J5*%
X152250000Y-116230000D03*
X152250000Y-163270000D03*
D72*
X150830000Y-156370000D03*
X150830000Y-153600000D03*
X150830000Y-150830000D03*
X150830000Y-148060000D03*
X150830000Y-145290000D03*
X150830000Y-142520000D03*
X150830000Y-139750000D03*
X150830000Y-136980000D03*
X150830000Y-134210000D03*
X150830000Y-131440000D03*
X150830000Y-128670000D03*
X150830000Y-125900000D03*
X150830000Y-123130000D03*
X153670000Y-154985000D03*
X153670000Y-152215000D03*
X153670000Y-149445000D03*
X153670000Y-146675000D03*
X153670000Y-143905000D03*
X153670000Y-141135000D03*
X153670000Y-138365000D03*
X153670000Y-135595000D03*
X153670000Y-132825000D03*
X153670000Y-130055000D03*
X153670000Y-127285000D03*
X153670000Y-124515000D03*
%TD*%
D34*
%TO.C,C70*%
X54462500Y-147250000D03*
X56537500Y-147250000D03*
%TD*%
D18*
%TO.C,J13*%
X27750000Y-43250000D03*
D19*
X27750000Y-40710000D03*
X27750000Y-38170000D03*
X27750000Y-35630000D03*
%TD*%
D29*
%TO.C,C95*%
X69022000Y-162726500D03*
X69022000Y-164801500D03*
%TD*%
D17*
%TO.C,R1*%
X100710000Y-146630000D03*
X102710000Y-146630000D03*
%TD*%
D34*
%TO.C,C52*%
X84852500Y-85020000D03*
X86927500Y-85020000D03*
%TD*%
D26*
%TO.C,R11*%
X118500000Y-27500000D03*
X118500000Y-29500000D03*
%TD*%
D17*
%TO.C,R61*%
X101630000Y-54610000D03*
X103630000Y-54610000D03*
%TD*%
D29*
%TO.C,C94*%
X78220000Y-159640500D03*
X78220000Y-161715500D03*
%TD*%
D25*
%TO.C,R73*%
X30922000Y-169336000D03*
X30922000Y-167336000D03*
%TD*%
D17*
%TO.C,R57*%
X104270000Y-88240000D03*
X106270000Y-88240000D03*
%TD*%
D73*
%TO.C,U2*%
X53650000Y-40315000D03*
X53650000Y-39045000D03*
X53650000Y-37775000D03*
X53650000Y-36505000D03*
X53650000Y-35235000D03*
X53650000Y-33965000D03*
X53650000Y-32695000D03*
X53650000Y-31425000D03*
X53650000Y-30155000D03*
X53650000Y-28885000D03*
X44350000Y-28885000D03*
X44350000Y-30155000D03*
X44350000Y-31425000D03*
X44350000Y-32695000D03*
X44350000Y-33965000D03*
X44350000Y-35235000D03*
X44350000Y-36505000D03*
X44350000Y-37775000D03*
X44350000Y-39045000D03*
X44350000Y-40315000D03*
%TD*%
D34*
%TO.C,C40*%
X86575000Y-110480000D03*
X88650000Y-110480000D03*
%TD*%
D31*
%TO.C,Q19*%
X109200000Y-57265000D03*
X109200000Y-58535000D03*
X109200000Y-59805000D03*
X109200000Y-61075000D03*
D32*
X112590000Y-60657500D03*
D33*
X112870000Y-57930000D03*
%TD*%
D69*
%TO.C,REF\u002A\u002A*%
X80500000Y-98250000D03*
%TD*%
%TO.C,REF\u002A\u002A*%
X138500000Y-98250000D03*
%TD*%
D42*
%TO.C,C4*%
X79244888Y-153800000D03*
D43*
X81244888Y-153800000D03*
%TD*%
D49*
%TO.C,R14*%
X61500000Y-45250000D03*
X59500000Y-45250000D03*
%TD*%
D64*
%TO.C,J8*%
X159000000Y-86300000D03*
%TD*%
D17*
%TO.C,R53*%
X104370000Y-83390000D03*
X106370000Y-83390000D03*
%TD*%
D26*
%TO.C,R81*%
X74610000Y-156684000D03*
X74610000Y-158684000D03*
%TD*%
%TO.C,R86*%
X35250000Y-67250000D03*
X35250000Y-69250000D03*
%TD*%
D74*
%TO.C,U29*%
X71225000Y-160305000D03*
X71225000Y-159035000D03*
X71225000Y-157765000D03*
X71225000Y-156495000D03*
X66275000Y-156495000D03*
X66275000Y-157765000D03*
X66275000Y-159035000D03*
X66275000Y-160305000D03*
%TD*%
D15*
%TO.C,U22*%
X79906200Y-126674999D03*
X79906200Y-127625000D03*
X79906200Y-128575001D03*
X82293800Y-128575001D03*
X82293800Y-126674999D03*
%TD*%
D31*
%TO.C,Q17*%
X109705000Y-94595000D03*
X109705000Y-95865000D03*
X109705000Y-97135000D03*
X109705000Y-98405000D03*
D32*
X113095000Y-97987500D03*
D33*
X113375000Y-95260000D03*
%TD*%
D42*
%TO.C,C57*%
X87005112Y-93510000D03*
D43*
X85005112Y-93510000D03*
%TD*%
D49*
%TO.C,R32*%
X50000000Y-70600000D03*
X48000000Y-70600000D03*
%TD*%
D31*
%TO.C,Q16*%
X109707500Y-75065000D03*
X109707500Y-76335000D03*
X109707500Y-77605000D03*
X109707500Y-78875000D03*
D32*
X113097500Y-78457500D03*
D33*
X113377500Y-75730000D03*
%TD*%
D15*
%TO.C,U23*%
X63080000Y-98149998D03*
X63080000Y-99099999D03*
X63080000Y-100050000D03*
X65467600Y-100050000D03*
X65467600Y-98149998D03*
%TD*%
D26*
%TO.C,R10*%
X114000000Y-25250000D03*
X114000000Y-27250000D03*
%TD*%
D29*
%TO.C,C85*%
X46924000Y-165012500D03*
X46924000Y-167087500D03*
%TD*%
D15*
%TO.C,U21*%
X78556200Y-135299999D03*
X78556200Y-136250000D03*
X78556200Y-137200001D03*
X80943800Y-137200001D03*
X80943800Y-135299999D03*
%TD*%
D30*
%TO.C,R52*%
X106700000Y-100030000D03*
X106700000Y-93930000D03*
%TD*%
D75*
%TO.C,D4*%
X54600000Y-69250000D03*
X57900000Y-69250000D03*
%TD*%
D17*
%TO.C,R38*%
X72000000Y-102250000D03*
X74000000Y-102250000D03*
%TD*%
D34*
%TO.C,C76*%
X79212500Y-133250000D03*
X81287500Y-133250000D03*
%TD*%
D31*
%TO.C,Q18*%
X109697500Y-81555000D03*
X109697500Y-82825000D03*
X109697500Y-84095000D03*
X109697500Y-85365000D03*
D32*
X113087500Y-84947500D03*
D33*
X113367500Y-82220000D03*
%TD*%
D34*
%TO.C,C18*%
X59362500Y-73000000D03*
X61437500Y-73000000D03*
%TD*%
D64*
%TO.C,J9*%
X159000000Y-76300000D03*
%TD*%
D15*
%TO.C,U24*%
X72606200Y-53249999D03*
X72606200Y-54200000D03*
X72606200Y-55150001D03*
X74993800Y-55150001D03*
X74993800Y-53249999D03*
%TD*%
D35*
%TO.C,U1*%
X89050001Y-144249999D03*
X89050001Y-144749998D03*
X89050001Y-145249999D03*
X89050001Y-145749998D03*
X89050001Y-146250000D03*
X89050001Y-146749999D03*
X89050001Y-147249998D03*
X89050001Y-147749999D03*
X89050001Y-148249998D03*
X89050001Y-148750000D03*
X89050001Y-149249999D03*
X89050001Y-149749998D03*
X89050001Y-150250000D03*
X89050001Y-150749999D03*
X89050001Y-151250000D03*
X89050001Y-151749999D03*
X89050001Y-152249998D03*
X89050001Y-152750000D03*
X89050001Y-153249999D03*
X94950002Y-153249999D03*
X94950002Y-152750000D03*
X94950002Y-152249998D03*
X94950002Y-151749999D03*
X94950002Y-151250000D03*
X94950002Y-150749999D03*
X94950002Y-150250000D03*
X94950002Y-149749998D03*
X94950002Y-149249999D03*
X94950002Y-148750000D03*
X94950002Y-148249998D03*
X94950002Y-147749999D03*
X94950002Y-147249998D03*
X94950002Y-146749999D03*
X94950002Y-146250000D03*
X94950002Y-145749998D03*
X94950002Y-145249999D03*
X94950002Y-144749998D03*
X94950002Y-144249999D03*
D36*
X91950000Y-148100000D03*
X93250000Y-149400001D03*
X93250000Y-150700001D03*
X90650000Y-150700001D03*
X90700000Y-145500000D03*
X93300000Y-145500000D03*
X92000000Y-145500000D03*
X90700000Y-152000000D03*
X90700000Y-153300000D03*
X90650000Y-148100000D03*
X92000000Y-144199999D03*
X92000000Y-146800000D03*
X93300000Y-152000000D03*
X92000000Y-152000000D03*
X91950000Y-149400001D03*
X90700000Y-144199999D03*
X91950000Y-150700001D03*
X92000000Y-153300000D03*
X93300000Y-144199999D03*
X90650000Y-149400001D03*
X93300000Y-153300000D03*
X90700000Y-146800000D03*
X93250000Y-148100000D03*
X93300000Y-146800000D03*
%TD*%
D29*
%TO.C,C53*%
X89330000Y-80702500D03*
X89330000Y-82777500D03*
%TD*%
D17*
%TO.C,R67*%
X54500000Y-145000000D03*
X56500000Y-145000000D03*
%TD*%
D31*
%TO.C,Q21*%
X109200000Y-63805000D03*
X109200000Y-65075000D03*
X109200000Y-66345000D03*
X109200000Y-67615000D03*
D32*
X112590000Y-67197500D03*
D33*
X112870000Y-64470000D03*
%TD*%
D34*
%TO.C,C75*%
X99734500Y-128712000D03*
X101809500Y-128712000D03*
%TD*%
D18*
%TO.C,J3*%
X69500000Y-72500000D03*
D19*
X69500000Y-75040000D03*
%TD*%
D26*
%TO.C,R26*%
X73000000Y-73250000D03*
X73000000Y-75250000D03*
%TD*%
D17*
%TO.C,R77*%
X54814000Y-165288000D03*
X56814000Y-165288000D03*
%TD*%
%TO.C,R47*%
X103900000Y-118400000D03*
X105900000Y-118400000D03*
%TD*%
D49*
%TO.C,R12*%
X97750000Y-28000000D03*
X95750000Y-28000000D03*
%TD*%
D17*
%TO.C,R68*%
X70250000Y-136500000D03*
X72250000Y-136500000D03*
%TD*%
D27*
%TO.C,C17*%
X65000000Y-61837500D03*
X65000000Y-59762500D03*
%TD*%
D76*
%TO.C,Z2*%
X69600000Y-69500000D03*
X69600000Y-66100000D03*
%TD*%
D64*
%TO.C,J7*%
X159000000Y-96300000D03*
%TD*%
D29*
%TO.C,C71*%
X28960000Y-153922500D03*
X28960000Y-155997500D03*
%TD*%
D25*
%TO.C,R51*%
X70140000Y-95830000D03*
X70140000Y-93830000D03*
%TD*%
D15*
%TO.C,U10*%
X144406200Y-162749999D03*
X144406200Y-163700000D03*
X144406200Y-164650001D03*
X146793800Y-164650001D03*
X146793800Y-162749999D03*
%TD*%
D39*
%TO.C,D8*%
X27299900Y-150800000D03*
X28900100Y-150800000D03*
%TD*%
D77*
%TO.C,C34*%
X53983623Y-127933623D03*
X52516377Y-126466377D03*
%TD*%
D75*
%TO.C,D6*%
X51950000Y-85800000D03*
X55250000Y-85800000D03*
%TD*%
D17*
%TO.C,R19*%
X28100000Y-23900000D03*
X30100000Y-23900000D03*
%TD*%
D78*
%TO.C,U3*%
X35062637Y-120452082D03*
X35628323Y-121017767D03*
X36194008Y-121583452D03*
X36759693Y-122149138D03*
X37325379Y-122714823D03*
X37891064Y-123280509D03*
X38456750Y-123846194D03*
X39022435Y-124411880D03*
X39588120Y-124977565D03*
X40153806Y-125543250D03*
X40719491Y-126108936D03*
X41285177Y-126674621D03*
X41850862Y-127240307D03*
X42416548Y-127805992D03*
X42982233Y-128371677D03*
X43547918Y-128937363D03*
D79*
X45952082Y-128937363D03*
X46517767Y-128371677D03*
X47083452Y-127805992D03*
X47649138Y-127240307D03*
X48214823Y-126674621D03*
X48780509Y-126108936D03*
X49346194Y-125543250D03*
X49911880Y-124977565D03*
X50477565Y-124411880D03*
X51043250Y-123846194D03*
X51608936Y-123280509D03*
X52174621Y-122714823D03*
X52740307Y-122149138D03*
X53305992Y-121583452D03*
X53871677Y-121017767D03*
X54437363Y-120452082D03*
D78*
X54437363Y-118047918D03*
X53871677Y-117482233D03*
X53305992Y-116916548D03*
X52740307Y-116350862D03*
X52174621Y-115785177D03*
X51608936Y-115219491D03*
X51043250Y-114653806D03*
X50477565Y-114088120D03*
X49911880Y-113522435D03*
X49346194Y-112956750D03*
X48780509Y-112391064D03*
X48214823Y-111825379D03*
X47649138Y-111259693D03*
X47083452Y-110694008D03*
X46517767Y-110128323D03*
X45952082Y-109562637D03*
D79*
X43547918Y-109562637D03*
X42982233Y-110128323D03*
X42416548Y-110694008D03*
X41850862Y-111259693D03*
X41285177Y-111825379D03*
X40719491Y-112391064D03*
X40153806Y-112956750D03*
X39588120Y-113522435D03*
X39022435Y-114088120D03*
X38456750Y-114653806D03*
X37891064Y-115219491D03*
X37325379Y-115785177D03*
X36759693Y-116350862D03*
X36194008Y-116916548D03*
X35628323Y-117482233D03*
X35062637Y-118047918D03*
%TD*%
D25*
%TO.C,R50*%
X72450000Y-95880000D03*
X72450000Y-93880000D03*
%TD*%
D34*
%TO.C,C77*%
X79962500Y-124775000D03*
X82037500Y-124775000D03*
%TD*%
D17*
%TO.C,R78*%
X54814000Y-167574000D03*
X56814000Y-167574000D03*
%TD*%
%TO.C,R37*%
X44000000Y-88600000D03*
X46000000Y-88600000D03*
%TD*%
%TO.C,R70*%
X24588000Y-166558000D03*
X26588000Y-166558000D03*
%TD*%
%TO.C,R45*%
X104350000Y-112750000D03*
X106350000Y-112750000D03*
%TD*%
D52*
%TO.C,C45*%
X121050000Y-104850000D03*
D53*
X121050000Y-99850000D03*
%TD*%
D42*
%TO.C,C47*%
X87015112Y-104290000D03*
D43*
X85015112Y-104290000D03*
%TD*%
D49*
%TO.C,R16*%
X61500000Y-40750000D03*
X59500000Y-40750000D03*
%TD*%
D16*
%TO.C,D14*%
X148052600Y-131400000D03*
X144547400Y-131400000D03*
%TD*%
D17*
%TO.C,R48*%
X104100000Y-110650000D03*
X106100000Y-110650000D03*
%TD*%
D25*
%TO.C,R76*%
X44384000Y-171114000D03*
X44384000Y-169114000D03*
%TD*%
D31*
%TO.C,Q11*%
X110005000Y-118795000D03*
X110005000Y-120065000D03*
X110005000Y-121335000D03*
X110005000Y-122605000D03*
D32*
X113395000Y-122187500D03*
D33*
X113675000Y-119460000D03*
%TD*%
D17*
%TO.C,R20*%
X49250000Y-26000000D03*
X51250000Y-26000000D03*
%TD*%
D20*
%TO.C,TP1*%
X140500000Y-26000000D03*
%TD*%
D14*
%TO.C,C8*%
X87800000Y-140100000D03*
X85725000Y-140100000D03*
%TD*%
D20*
%TO.C,TP10*%
X27900000Y-97000000D03*
%TD*%
D17*
%TO.C,R31*%
X64200000Y-73000000D03*
X66200000Y-73000000D03*
%TD*%
D30*
%TO.C,R60*%
X105500000Y-69360000D03*
X105500000Y-63260000D03*
%TD*%
D15*
%TO.C,U19*%
X50254950Y-100632499D03*
X50254950Y-101582500D03*
X50254950Y-102532501D03*
X52642550Y-102532501D03*
X52642550Y-100632499D03*
%TD*%
D14*
%TO.C,C7*%
X90937500Y-142300000D03*
X88862500Y-142300000D03*
%TD*%
D52*
%TO.C,C3*%
X124400000Y-137867677D03*
D53*
X124400000Y-132867677D03*
%TD*%
D20*
%TO.C,TP9*%
X65000000Y-77800000D03*
%TD*%
D17*
%TO.C,R63*%
X101700000Y-61190000D03*
X103700000Y-61190000D03*
%TD*%
D49*
%TO.C,R17*%
X30100000Y-28600000D03*
X28100000Y-28600000D03*
%TD*%
D80*
%TO.C,C11*%
X126500000Y-27537500D03*
X126500000Y-30662500D03*
%TD*%
D15*
%TO.C,U13*%
X144886200Y-155599999D03*
X144886200Y-156550000D03*
X144886200Y-157500001D03*
X147273800Y-157500001D03*
X147273800Y-155599999D03*
%TD*%
D27*
%TO.C,C25*%
X40000000Y-84237500D03*
X40000000Y-82162500D03*
%TD*%
D14*
%TO.C,C1*%
X95037500Y-155500000D03*
X92962500Y-155500000D03*
%TD*%
D64*
%TO.C,J1*%
X159000000Y-106300000D03*
%TD*%
D17*
%TO.C,R56*%
X104350000Y-81280000D03*
X106350000Y-81280000D03*
%TD*%
%TO.C,R15*%
X59500000Y-43000000D03*
X61500000Y-43000000D03*
%TD*%
D14*
%TO.C,C49*%
X96257500Y-80770000D03*
X94182500Y-80770000D03*
%TD*%
D31*
%TO.C,Q12*%
X110005000Y-105595000D03*
X110005000Y-106865000D03*
X110005000Y-108135000D03*
X110005000Y-109405000D03*
D32*
X113395000Y-108987500D03*
D33*
X113675000Y-106260000D03*
%TD*%
D17*
%TO.C,R2*%
X100670000Y-144580000D03*
X102670000Y-144580000D03*
%TD*%
%TO.C,R72*%
X24588000Y-164526000D03*
X26588000Y-164526000D03*
%TD*%
D31*
%TO.C,Q20*%
X109125000Y-44175000D03*
X109125000Y-45445000D03*
X109125000Y-46715000D03*
X109125000Y-47985000D03*
D32*
X112515000Y-47567500D03*
D33*
X112795000Y-44840000D03*
%TD*%
D42*
%TO.C,C5*%
X78014888Y-142780000D03*
D43*
X80014888Y-142780000D03*
%TD*%
D16*
%TO.C,D20*%
X148068700Y-134138050D03*
X144563500Y-134138050D03*
%TD*%
D14*
%TO.C,C13*%
X74928475Y-34140975D03*
X72853475Y-34140975D03*
%TD*%
D17*
%TO.C,R65*%
X101570000Y-58610000D03*
X103570000Y-58610000D03*
%TD*%
D69*
%TO.C,REF\u002A\u002A*%
X80500000Y-49250000D03*
%TD*%
D31*
%TO.C,Q3*%
X109705000Y-149845000D03*
X109705000Y-151115000D03*
X109705000Y-152385000D03*
X109705000Y-153655000D03*
D32*
X113095000Y-153237500D03*
D33*
X113375000Y-150510000D03*
%TD*%
D20*
%TO.C,TP5*%
X66560000Y-52190000D03*
%TD*%
D31*
%TO.C,Q4*%
X109705000Y-156345000D03*
X109705000Y-157615000D03*
X109705000Y-158885000D03*
X109705000Y-160155000D03*
D32*
X113095000Y-159737500D03*
D33*
X113375000Y-157010000D03*
%TD*%
D34*
%TO.C,C92*%
X60110500Y-157160000D03*
X62185500Y-157160000D03*
%TD*%
D20*
%TO.C,TP7*%
X44000000Y-55600000D03*
%TD*%
D29*
%TO.C,C48*%
X30180000Y-146402500D03*
X30180000Y-148477500D03*
%TD*%
D14*
%TO.C,C22*%
X50037500Y-72800000D03*
X47962500Y-72800000D03*
%TD*%
D29*
%TO.C,C36*%
X28890000Y-103798500D03*
X28890000Y-105873500D03*
%TD*%
%TO.C,C60*%
X86802000Y-51982500D03*
X86802000Y-54057500D03*
%TD*%
D16*
%TO.C,D19*%
X148252600Y-145300000D03*
X144747400Y-145300000D03*
%TD*%
D35*
%TO.C,U12*%
X89380001Y-53639999D03*
X89380001Y-54139998D03*
X89380001Y-54639999D03*
X89380001Y-55139998D03*
X89380001Y-55640000D03*
X89380001Y-56139999D03*
X89380001Y-56639998D03*
X89380001Y-57139999D03*
X89380001Y-57639998D03*
X89380001Y-58140000D03*
X89380001Y-58639999D03*
X89380001Y-59139998D03*
X89380001Y-59640000D03*
X89380001Y-60139999D03*
X89380001Y-60640000D03*
X89380001Y-61139999D03*
X89380001Y-61639998D03*
X89380001Y-62140000D03*
X89380001Y-62639999D03*
X95280002Y-62639999D03*
X95280002Y-62140000D03*
X95280002Y-61639998D03*
X95280002Y-61139999D03*
X95280002Y-60640000D03*
X95280002Y-60139999D03*
X95280002Y-59640000D03*
X95280002Y-59139998D03*
X95280002Y-58639999D03*
X95280002Y-58140000D03*
X95280002Y-57639998D03*
X95280002Y-57139999D03*
X95280002Y-56639998D03*
X95280002Y-56139999D03*
X95280002Y-55640000D03*
X95280002Y-55139998D03*
X95280002Y-54639999D03*
X95280002Y-54139998D03*
X95280002Y-53639999D03*
D36*
X91030000Y-54890000D03*
X92280000Y-57490000D03*
X92330000Y-56190000D03*
X93580000Y-58790001D03*
X92280000Y-58790001D03*
X92330000Y-53589999D03*
X93630000Y-54890000D03*
X93580000Y-60090001D03*
X90980000Y-57490000D03*
X93630000Y-53589999D03*
X91030000Y-61390000D03*
X93630000Y-61390000D03*
X93630000Y-62690000D03*
X91030000Y-53589999D03*
X90980000Y-58790001D03*
X92330000Y-62690000D03*
X92330000Y-61390000D03*
X93630000Y-56190000D03*
X93580000Y-57490000D03*
X92280000Y-60090001D03*
X92330000Y-54890000D03*
X91030000Y-62690000D03*
X90980000Y-60090001D03*
X91030000Y-56190000D03*
%TD*%
D35*
%TO.C,U11*%
X94550001Y-82749999D03*
X94550001Y-83249998D03*
X94550001Y-83749999D03*
X94550001Y-84249998D03*
X94550001Y-84750000D03*
X94550001Y-85249999D03*
X94550001Y-85749998D03*
X94550001Y-86249999D03*
X94550001Y-86749998D03*
X94550001Y-87250000D03*
X94550001Y-87749999D03*
X94550001Y-88249998D03*
X94550001Y-88750000D03*
X94550001Y-89249999D03*
X94550001Y-89750000D03*
X94550001Y-90249999D03*
X94550001Y-90749998D03*
X94550001Y-91250000D03*
X94550001Y-91749999D03*
X100450002Y-91749999D03*
X100450002Y-91250000D03*
X100450002Y-90749998D03*
X100450002Y-90249999D03*
X100450002Y-89750000D03*
X100450002Y-89249999D03*
X100450002Y-88750000D03*
X100450002Y-88249998D03*
X100450002Y-87749999D03*
X100450002Y-87250000D03*
X100450002Y-86749998D03*
X100450002Y-86249999D03*
X100450002Y-85749998D03*
X100450002Y-85249999D03*
X100450002Y-84750000D03*
X100450002Y-84249998D03*
X100450002Y-83749999D03*
X100450002Y-83249998D03*
X100450002Y-82749999D03*
D36*
X98800000Y-82699999D03*
X97500000Y-90500000D03*
X98800000Y-84000000D03*
X96200000Y-91800000D03*
X96200000Y-85300000D03*
X96150000Y-87900001D03*
X96150000Y-86600000D03*
X98750000Y-86600000D03*
X97450000Y-87900001D03*
X97450000Y-89200001D03*
X98750000Y-89200001D03*
X98800000Y-85300000D03*
X97450000Y-86600000D03*
X97500000Y-85300000D03*
X97500000Y-91800000D03*
X97500000Y-84000000D03*
X98750000Y-87900001D03*
X98800000Y-90500000D03*
X96200000Y-82699999D03*
X98800000Y-91800000D03*
X96200000Y-84000000D03*
X96150000Y-89200001D03*
X97500000Y-82699999D03*
X96200000Y-90500000D03*
%TD*%
D17*
%TO.C,R36*%
X40000000Y-86400000D03*
X42000000Y-86400000D03*
%TD*%
D31*
%TO.C,Q1*%
X109705000Y-136845000D03*
X109705000Y-138115000D03*
X109705000Y-139385000D03*
X109705000Y-140655000D03*
D32*
X113095000Y-140237500D03*
D33*
X113375000Y-137510000D03*
%TD*%
D26*
%TO.C,R35*%
X42600000Y-78000000D03*
X42600000Y-80000000D03*
%TD*%
D21*
%TO.C,R62*%
X104800000Y-41790000D03*
X104800000Y-47890000D03*
%TD*%
D29*
%TO.C,C39*%
X91260000Y-108512500D03*
X91260000Y-110587500D03*
%TD*%
D34*
%TO.C,C42*%
X86542500Y-108290000D03*
X88617500Y-108290000D03*
%TD*%
D52*
%TO.C,C65*%
X125832323Y-44600000D03*
D53*
X130832323Y-44600000D03*
%TD*%
D17*
%TO.C,R59*%
X40500000Y-134900000D03*
X42500000Y-134900000D03*
%TD*%
D18*
%TO.C,J14*%
X34100000Y-39280000D03*
D19*
X34100000Y-36740000D03*
X34100000Y-34200000D03*
X34100000Y-31660000D03*
%TD*%
D81*
%TO.C,L1*%
X53550000Y-90750000D03*
X49950000Y-90750000D03*
%TD*%
D75*
%TO.C,D2*%
X120350000Y-25250000D03*
X123650000Y-25250000D03*
%TD*%
D21*
%TO.C,R13*%
X80000000Y-36400000D03*
X80000000Y-42500000D03*
%TD*%
D49*
%TO.C,R9*%
X118500000Y-25250000D03*
X116500000Y-25250000D03*
%TD*%
D16*
%TO.C,D13*%
X148052600Y-137000000D03*
X144547400Y-137000000D03*
%TD*%
D29*
%TO.C,C50*%
X91490000Y-80652500D03*
X91490000Y-82727500D03*
%TD*%
D16*
%TO.C,D15*%
X148252600Y-148000000D03*
X144747400Y-148000000D03*
%TD*%
D20*
%TO.C,TP15*%
X89300000Y-159000000D03*
%TD*%
D15*
%TO.C,U28*%
X59954200Y-159257999D03*
X59954200Y-160208000D03*
X59954200Y-161158001D03*
X62341800Y-161158001D03*
X62341800Y-159257999D03*
%TD*%
M02*
