%TF.GenerationSoftware,KiCad,Pcbnew,6.0.6+dfsg-1~bpo11+1*%
%TF.CreationDate,2022-11-12T15:23:50-08:00*%
%TF.ProjectId,BuildboticsController,4275696c-6462-46f7-9469-6373436f6e74,rev?*%
%TF.SameCoordinates,Original*%
%TF.FileFunction,Soldermask,Bot*%
%TF.FilePolarity,Negative*%
%FSLAX46Y46*%
G04 Gerber Fmt 4.6, Leading zero omitted, Abs format (unit mm)*
G04 Created by KiCad (PCBNEW 6.0.6+dfsg-1~bpo11+1) date 2022-11-12 15:23:50*
%MOMM*%
%LPD*%
G01*
G04 APERTURE LIST*
%ADD10R,1.700000X1.700000*%
%ADD11O,1.700000X1.700000*%
%ADD12R,0.850000X0.850000*%
%ADD13C,0.499999*%
%ADD14R,1.600000X1.600000*%
%ADD15C,1.600000*%
%ADD16R,2.000000X2.000000*%
%ADD17C,2.000000*%
%ADD18C,1.200000*%
%ADD19C,3.000000*%
%ADD20C,2.400000*%
%ADD21O,2.400000X2.400000*%
%ADD22C,3.200000*%
%ADD23C,4.770000*%
%ADD24C,1.830000*%
G04 APERTURE END LIST*
D10*
%TO.C,J11*%
X67900000Y-41375000D03*
D11*
X67900000Y-43915000D03*
X67900000Y-46455000D03*
%TD*%
D12*
%TO.C,TP13*%
X42400000Y-102370000D03*
%TD*%
%TO.C,TP8*%
X58380000Y-66800000D03*
%TD*%
%TO.C,TP3*%
X60386000Y-54290000D03*
%TD*%
D10*
%TO.C,J12*%
X74500000Y-82675000D03*
D11*
X74500000Y-85215000D03*
X74500000Y-87755000D03*
%TD*%
D13*
%TO.C,U9*%
X96000000Y-112550000D03*
X95950000Y-115150001D03*
X96000000Y-119050000D03*
X98550000Y-113850000D03*
X97250000Y-113850000D03*
X97300000Y-119050000D03*
X95950000Y-116450001D03*
X97300000Y-112550000D03*
X95950000Y-113850000D03*
X98600000Y-109949999D03*
X98600000Y-119050000D03*
X98600000Y-117750000D03*
X96000000Y-111250000D03*
X97250000Y-115150001D03*
X98600000Y-112550000D03*
X97300000Y-111250000D03*
X98550000Y-116450001D03*
X98600000Y-111250000D03*
X96000000Y-109949999D03*
X97300000Y-117750000D03*
X97300000Y-109949999D03*
X98550000Y-115150001D03*
X97250000Y-116450001D03*
X96000000Y-117750000D03*
%TD*%
D12*
%TO.C,TP6*%
X40750000Y-24000000D03*
%TD*%
D13*
%TO.C,U8*%
X121749999Y-29250000D03*
X122750000Y-29275400D03*
X123750001Y-29250000D03*
%TD*%
D10*
%TO.C,J10*%
X85370000Y-37270000D03*
D11*
X85370000Y-34730000D03*
X87910000Y-37270000D03*
X87910000Y-34730000D03*
X90450000Y-37270000D03*
X90450000Y-34730000D03*
X92990000Y-37270000D03*
X92990000Y-34730000D03*
X95530000Y-37270000D03*
X95530000Y-34730000D03*
X98070000Y-37270000D03*
X98070000Y-34730000D03*
X100610000Y-37270000D03*
X100610000Y-34730000D03*
X103150000Y-37270000D03*
X103150000Y-34730000D03*
X105690000Y-37270000D03*
X105690000Y-34730000D03*
X108230000Y-37270000D03*
X108230000Y-34730000D03*
X110770000Y-37270000D03*
X110770000Y-34730000D03*
X113310000Y-37270000D03*
X113310000Y-34730000D03*
X115850000Y-37270000D03*
X115850000Y-34730000D03*
X118390000Y-37270000D03*
X118390000Y-34730000D03*
X120930000Y-37270000D03*
X120930000Y-34730000D03*
X123470000Y-37270000D03*
X123470000Y-34730000D03*
X126010000Y-37270000D03*
X126010000Y-34730000D03*
X128550000Y-37270000D03*
X128550000Y-34730000D03*
X131090000Y-37270000D03*
X131090000Y-34730000D03*
X133630000Y-37270000D03*
X133630000Y-34730000D03*
%TD*%
D14*
%TO.C,C58*%
X86035113Y-78870000D03*
D15*
X84035113Y-78870000D03*
%TD*%
D12*
%TO.C,TP14*%
X146000000Y-25750000D03*
%TD*%
D16*
%TO.C,C55*%
X129750000Y-93632323D03*
D17*
X129750000Y-98632323D03*
%TD*%
D16*
%TO.C,C66*%
X131550000Y-66910000D03*
D17*
X131550000Y-71910000D03*
%TD*%
D10*
%TO.C,J4*%
X24250000Y-123250000D03*
D11*
X26790000Y-123250000D03*
X24250000Y-125790000D03*
X26790000Y-125790000D03*
X24250000Y-128330000D03*
X26790000Y-128330000D03*
%TD*%
D12*
%TO.C,TP21*%
X89700000Y-66100000D03*
%TD*%
%TO.C,TP4*%
X85000000Y-27000000D03*
%TD*%
D16*
%TO.C,C2*%
X124000000Y-158750000D03*
D17*
X124000000Y-163750000D03*
%TD*%
D12*
%TO.C,TP17*%
X91550000Y-120500000D03*
%TD*%
D10*
%TO.C,J6*%
X96700000Y-141400000D03*
D11*
X94160000Y-141400000D03*
X96700000Y-138860000D03*
X94160000Y-138860000D03*
X96700000Y-136320000D03*
X94160000Y-136320000D03*
X96700000Y-133780000D03*
X94160000Y-133780000D03*
X96700000Y-131240000D03*
X94160000Y-131240000D03*
X96700000Y-128700000D03*
X94160000Y-128700000D03*
X96700000Y-126160000D03*
X94160000Y-126160000D03*
X96700000Y-123620000D03*
X94160000Y-123620000D03*
%TD*%
D16*
%TO.C,C44*%
X133500000Y-127132323D03*
D17*
X133500000Y-132132323D03*
%TD*%
D12*
%TO.C,TP2*%
X96750000Y-25750000D03*
%TD*%
%TO.C,TP12*%
X30250000Y-110250000D03*
%TD*%
D14*
%TO.C,C68*%
X92958888Y-47940000D03*
D15*
X94958888Y-47940000D03*
%TD*%
D18*
%TO.C,C93*%
X82522000Y-167282000D03*
X80522000Y-167282000D03*
%TD*%
D14*
%TO.C,C46*%
X87340000Y-118750000D03*
D15*
X85340000Y-118750000D03*
%TD*%
D19*
%TO.C,J2*%
X157550000Y-32800000D03*
X157550000Y-41200000D03*
%TD*%
D16*
%TO.C,C56*%
X121340000Y-75440000D03*
D17*
X121340000Y-70440000D03*
%TD*%
D12*
%TO.C,TP19*%
X91620000Y-93900000D03*
%TD*%
D14*
%TO.C,C67*%
X83240000Y-64490000D03*
D15*
X83240000Y-66490000D03*
%TD*%
D12*
%TO.C,TP18*%
X102400000Y-121200000D03*
%TD*%
D20*
%TO.C,R25*%
X27800000Y-47555000D03*
D21*
X27800000Y-78035000D03*
%TD*%
D12*
%TO.C,TP22*%
X95270000Y-67540000D03*
%TD*%
D22*
%TO.C,REF\u002A\u002A*%
X138500000Y-49250000D03*
%TD*%
D12*
%TO.C,TP20*%
X100160000Y-95940000D03*
%TD*%
%TO.C,TP11*%
X42000000Y-92600000D03*
%TD*%
%TO.C,TP16*%
X95000000Y-159000000D03*
%TD*%
D23*
%TO.C,J5*%
X152250000Y-116230000D03*
X152250000Y-163270000D03*
D24*
X150830000Y-156370000D03*
X150830000Y-153600000D03*
X150830000Y-150830000D03*
X150830000Y-148060000D03*
X150830000Y-145290000D03*
X150830000Y-142520000D03*
X150830000Y-139750000D03*
X150830000Y-136980000D03*
X150830000Y-134210000D03*
X150830000Y-131440000D03*
X150830000Y-128670000D03*
X150830000Y-125900000D03*
X150830000Y-123130000D03*
X153670000Y-154985000D03*
X153670000Y-152215000D03*
X153670000Y-149445000D03*
X153670000Y-146675000D03*
X153670000Y-143905000D03*
X153670000Y-141135000D03*
X153670000Y-138365000D03*
X153670000Y-135595000D03*
X153670000Y-132825000D03*
X153670000Y-130055000D03*
X153670000Y-127285000D03*
X153670000Y-124515000D03*
%TD*%
D10*
%TO.C,J13*%
X27750000Y-43250000D03*
D11*
X27750000Y-40710000D03*
X27750000Y-38170000D03*
X27750000Y-35630000D03*
%TD*%
D22*
%TO.C,REF\u002A\u002A*%
X80500000Y-98250000D03*
%TD*%
%TO.C,REF\u002A\u002A*%
X138500000Y-98250000D03*
%TD*%
D14*
%TO.C,C4*%
X79244888Y-153800000D03*
D15*
X81244888Y-153800000D03*
%TD*%
D19*
%TO.C,J8*%
X159000000Y-86300000D03*
%TD*%
D14*
%TO.C,C57*%
X87005112Y-93510000D03*
D15*
X85005112Y-93510000D03*
%TD*%
D19*
%TO.C,J9*%
X159000000Y-76300000D03*
%TD*%
D13*
%TO.C,U1*%
X91950000Y-148100000D03*
X93250000Y-149400001D03*
X93250000Y-150700001D03*
X90650000Y-150700001D03*
X90700000Y-145500000D03*
X93300000Y-145500000D03*
X92000000Y-145500000D03*
X90700000Y-152000000D03*
X90700000Y-153300000D03*
X90650000Y-148100000D03*
X92000000Y-144199999D03*
X92000000Y-146800000D03*
X93300000Y-152000000D03*
X92000000Y-152000000D03*
X91950000Y-149400001D03*
X90700000Y-144199999D03*
X91950000Y-150700001D03*
X92000000Y-153300000D03*
X93300000Y-144199999D03*
X90650000Y-149400001D03*
X93300000Y-153300000D03*
X90700000Y-146800000D03*
X93250000Y-148100000D03*
X93300000Y-146800000D03*
%TD*%
D10*
%TO.C,J3*%
X69500000Y-72500000D03*
D11*
X69500000Y-75040000D03*
%TD*%
D19*
%TO.C,J7*%
X159000000Y-96300000D03*
%TD*%
D16*
%TO.C,C45*%
X121050000Y-104850000D03*
D17*
X121050000Y-99850000D03*
%TD*%
D14*
%TO.C,C47*%
X87015112Y-104290000D03*
D15*
X85015112Y-104290000D03*
%TD*%
D12*
%TO.C,TP1*%
X140500000Y-26000000D03*
%TD*%
%TO.C,TP10*%
X27900000Y-97000000D03*
%TD*%
D16*
%TO.C,C3*%
X124400000Y-137867677D03*
D17*
X124400000Y-132867677D03*
%TD*%
D12*
%TO.C,TP9*%
X65000000Y-77800000D03*
%TD*%
D19*
%TO.C,J1*%
X159000000Y-106300000D03*
%TD*%
D14*
%TO.C,C5*%
X78014888Y-142780000D03*
D15*
X80014888Y-142780000D03*
%TD*%
D22*
%TO.C,REF\u002A\u002A*%
X80500000Y-49250000D03*
%TD*%
D12*
%TO.C,TP5*%
X66560000Y-52190000D03*
%TD*%
%TO.C,TP7*%
X44000000Y-55600000D03*
%TD*%
D13*
%TO.C,U12*%
X91030000Y-54890000D03*
X92280000Y-57490000D03*
X92330000Y-56190000D03*
X93580000Y-58790001D03*
X92280000Y-58790001D03*
X92330000Y-53589999D03*
X93630000Y-54890000D03*
X93580000Y-60090001D03*
X90980000Y-57490000D03*
X93630000Y-53589999D03*
X91030000Y-61390000D03*
X93630000Y-61390000D03*
X93630000Y-62690000D03*
X91030000Y-53589999D03*
X90980000Y-58790001D03*
X92330000Y-62690000D03*
X92330000Y-61390000D03*
X93630000Y-56190000D03*
X93580000Y-57490000D03*
X92280000Y-60090001D03*
X92330000Y-54890000D03*
X91030000Y-62690000D03*
X90980000Y-60090001D03*
X91030000Y-56190000D03*
%TD*%
%TO.C,U11*%
X98800000Y-82699999D03*
X97500000Y-90500000D03*
X98800000Y-84000000D03*
X96200000Y-91800000D03*
X96200000Y-85300000D03*
X96150000Y-87900001D03*
X96150000Y-86600000D03*
X98750000Y-86600000D03*
X97450000Y-87900001D03*
X97450000Y-89200001D03*
X98750000Y-89200001D03*
X98800000Y-85300000D03*
X97450000Y-86600000D03*
X97500000Y-85300000D03*
X97500000Y-91800000D03*
X97500000Y-84000000D03*
X98750000Y-87900001D03*
X98800000Y-90500000D03*
X96200000Y-82699999D03*
X98800000Y-91800000D03*
X96200000Y-84000000D03*
X96150000Y-89200001D03*
X97500000Y-82699999D03*
X96200000Y-90500000D03*
%TD*%
D16*
%TO.C,C65*%
X125832323Y-44600000D03*
D17*
X130832323Y-44600000D03*
%TD*%
D10*
%TO.C,J14*%
X34100000Y-39280000D03*
D11*
X34100000Y-36740000D03*
X34100000Y-34200000D03*
X34100000Y-31660000D03*
%TD*%
D12*
%TO.C,TP15*%
X89300000Y-159000000D03*
%TD*%
M02*
