M48
; DRILL file {KiCad 6.0.6+dfsg-1~bpo11+1} date Sat 12 Nov 2022 03:24:32 PM PST
; FORMAT={-:-/ absolute / metric / decimal}
; #@! TF.CreationDate,2022-11-12T15:24:32-08:00
; #@! TF.GenerationSoftware,Kicad,Pcbnew,6.0.6+dfsg-1~bpo11+1
; #@! TF.FileFunction,Plated,1,4,PTH
FMAT,2
METRIC
; #@! TA.AperFunction,Plated,PTH,ViaDrill
T1C0.203
; #@! TA.AperFunction,Plated,PTH,ComponentDrill
T2C0.203
; #@! TA.AperFunction,Plated,PTH,ViaDrill
T3C0.400
; #@! TA.AperFunction,Plated,PTH,ViaDrill
T4C0.500
; #@! TA.AperFunction,Plated,PTH,ComponentDrill
T5C0.500
; #@! TA.AperFunction,Plated,PTH,ComponentDrill
T6C0.600
; #@! TA.AperFunction,Plated,PTH,ComponentDrill
T7C0.800
; #@! TA.AperFunction,Plated,PTH,ViaDrill
T8C0.900
; #@! TA.AperFunction,Plated,PTH,ComponentDrill
T9C1.000
; #@! TA.AperFunction,Plated,PTH,ComponentDrill
T10C1.020
; #@! TA.AperFunction,Plated,PTH,ComponentDrill
T11C1.200
; #@! TA.AperFunction,Plated,PTH,ComponentDrill
T12C1.220
; #@! TA.AperFunction,Plated,PTH,ViaDrill
T13C1.500
; #@! TA.AperFunction,Plated,PTH,ComponentDrill
T14C1.800
; #@! TA.AperFunction,Plated,PTH,ComponentDrill
T15C3.180
%
G90
G05
T1
X22.3Y-96.3
X22.3Y-97.1
X22.3Y-97.9
X22.3Y-98.7
X22.3Y-99.5
X22.7Y-146.6
X22.7Y-147.4
X22.7Y-148.2
X23.1Y-96.3
X23.1Y-97.1
X23.1Y-97.9
X23.1Y-98.7
X23.1Y-99.5
X23.5Y-146.6
X23.5Y-147.4
X23.5Y-148.2
X23.9Y-96.3
X23.9Y-97.1
X23.9Y-97.9
X23.9Y-98.7
X23.9Y-99.5
X24.3Y-146.6
X24.3Y-147.4
X24.3Y-148.2
X24.7Y-96.3
X24.7Y-97.1
X24.7Y-97.9
X24.7Y-98.7
X24.7Y-99.5
X25.5Y-96.3
X25.5Y-97.1
X25.5Y-97.9
X25.5Y-98.7
X25.5Y-99.5
X26.3Y-96.3
X26.3Y-97.1
X26.3Y-97.9
X26.3Y-98.7
X26.3Y-99.5
X31.6Y-151.3
X31.6Y-152.1
X31.6Y-152.9
X32.4Y-151.3
X32.4Y-152.1
X32.4Y-152.9
X33.2Y-151.3
X33.2Y-152.1
X33.2Y-152.9
X39.2Y-101.1
X39.2Y-101.9
X39.2Y-102.7
X40.0Y-95.6
X40.0Y-96.4
X40.0Y-97.2
X40.0Y-101.1
X40.0Y-101.9
X40.0Y-102.7
X40.6Y-121.0
X40.6Y-121.8
X40.6Y-122.6
X40.8Y-95.6
X40.8Y-96.4
X40.8Y-97.2
X40.8Y-101.1
X40.8Y-101.9
X40.8Y-102.7
X41.4Y-121.0
X41.4Y-121.8
X41.4Y-122.6
X41.6Y-95.6
X41.6Y-96.4
X41.6Y-97.2
X42.2Y-121.0
X42.2Y-121.8
X42.2Y-122.6
X46.9Y-141.3
X46.9Y-142.1
X46.9Y-142.9
X47.7Y-141.3
X47.7Y-142.1
X47.7Y-142.9
X48.5Y-141.3
X48.5Y-142.1
X48.5Y-142.9
X97.3Y-72.3
X97.33Y-69.83
X97.33Y-70.63
X97.33Y-71.43
X98.3Y-72.3
X98.33Y-69.83
X98.33Y-70.63
X98.33Y-71.43
X99.3Y-72.3
X99.33Y-69.83
X99.33Y-70.63
X99.33Y-71.43
X100.3Y-72.3
X100.33Y-69.83
X100.33Y-70.63
X100.33Y-71.43
X101.3Y-72.3
X101.33Y-69.83
X101.33Y-70.63
X101.33Y-71.43
X102.3Y-72.3
X102.33Y-69.83
X102.33Y-70.63
X102.33Y-71.43
X103.3Y-72.3
X103.33Y-69.83
X103.33Y-70.63
X103.33Y-71.43
X106.49Y-57.63
X106.5Y-56.51
X106.6Y-52.85
X106.6Y-53.8
X106.6Y-149.3
X106.6Y-150.0
X106.64Y-67.32
X106.69Y-66.23
X106.8Y-43.8
X106.8Y-44.8
X106.82Y-97.72
X106.85Y-96.61
X106.9Y-158.4
X106.9Y-159.1
X107.0Y-57.12
X107.05Y-104.7
X107.05Y-106.1
X107.1Y-145.7
X107.1Y-146.4
X107.16Y-66.73
X107.2Y-53.4
X107.3Y-136.4
X107.3Y-137.1
X107.3Y-149.3
X107.3Y-150.0
X107.4Y-44.3
X107.43Y-56.46
X107.44Y-57.62
X107.44Y-97.13
X107.56Y-74.57
X107.58Y-75.64
X107.6Y-84.58
X107.6Y-158.4
X107.6Y-159.1
X107.61Y-66.2
X107.61Y-83.54
X107.65Y-52.85
X107.65Y-67.34
X107.7Y-53.8
X107.7Y-118.0
X107.7Y-119.1
X107.8Y-105.5
X107.8Y-145.7
X107.8Y-146.4
X107.83Y-87.48
X107.88Y-88.65
X107.93Y-97.7
X107.95Y-44.8
X107.95Y-114.4
X107.95Y-115.3
X107.97Y-75.05
X108.0Y-43.8
X108.0Y-136.4
X108.0Y-137.1
X108.0Y-149.3
X108.0Y-150.0
X108.04Y-96.63
X108.1Y-88.02
X108.16Y-84.11
X108.2Y-127.5
X108.2Y-128.2
X108.3Y-118.65
X108.3Y-158.4
X108.3Y-159.1
X108.43Y-74.5
X108.45Y-114.85
X108.48Y-75.6
X108.5Y-145.7
X108.5Y-146.4
X108.6Y-131.8
X108.6Y-132.6
X108.6Y-133.4
X108.61Y-83.54
X108.62Y-87.44
X108.65Y-104.7
X108.669Y-106.112
X108.69Y-84.58
X108.7Y-136.4
X108.7Y-137.1
X108.77Y-88.68
X108.9Y-118.15
X108.9Y-127.5
X108.9Y-128.2
X108.95Y-114.45
X108.95Y-115.3
X108.95Y-119.1
X109.0Y-162.0
X109.0Y-162.8
X109.0Y-163.6
X109.32Y-100.19
X109.32Y-100.99
X109.32Y-101.79
X109.4Y-72.41
X109.43Y-69.94
X109.43Y-70.74
X109.43Y-71.54
X109.6Y-131.8
X109.6Y-132.6
X109.6Y-133.4
X110.0Y-162.0
X110.0Y-162.8
X110.0Y-163.6
X110.32Y-100.19
X110.32Y-100.99
X110.32Y-101.79
X110.4Y-72.41
X110.43Y-69.94
X110.43Y-70.74
X110.43Y-71.54
X110.6Y-131.8
X110.6Y-132.6
X110.6Y-133.4
X111.0Y-162.0
X111.0Y-162.8
X111.0Y-163.6
X111.32Y-100.19
X111.32Y-100.99
X111.32Y-101.79
X111.4Y-72.41
X111.43Y-69.94
X111.43Y-70.74
X111.43Y-71.54
X111.6Y-131.8
X111.6Y-132.6
X111.6Y-133.4
X112.0Y-162.0
X112.0Y-162.8
X112.0Y-163.6
X112.32Y-100.19
X112.32Y-100.99
X112.32Y-101.79
X112.4Y-72.41
X112.43Y-69.94
X112.43Y-70.74
X112.43Y-71.54
X112.6Y-131.8
X112.6Y-132.6
X112.6Y-133.4
X113.0Y-162.0
X113.0Y-162.8
X113.0Y-163.6
X113.32Y-100.19
X113.32Y-100.99
X113.32Y-101.79
X113.4Y-72.41
X113.43Y-69.94
X113.43Y-70.74
X113.43Y-71.54
X113.6Y-131.8
X113.6Y-132.6
X113.6Y-133.4
X114.0Y-162.0
X114.0Y-162.8
X114.0Y-163.6
X114.32Y-100.19
X114.32Y-100.99
X114.32Y-101.79
X114.4Y-72.41
X114.43Y-69.94
X114.43Y-70.74
X114.43Y-71.54
X114.6Y-131.8
X114.6Y-132.6
X114.6Y-133.4
X115.0Y-162.0
X115.0Y-162.8
X115.0Y-163.6
X115.32Y-100.19
X115.32Y-100.99
X115.32Y-101.79
X115.4Y-72.41
X115.43Y-69.94
X115.43Y-70.74
X115.43Y-71.54
X115.6Y-131.8
X115.6Y-132.6
X115.6Y-133.4
X115.75Y-43.65
X115.75Y-50.25
X115.75Y-51.15
X115.8Y-44.5
X115.8Y-45.4
X115.8Y-46.8
X115.8Y-47.7
X115.8Y-52.0
X115.85Y-48.55
X115.95Y-53.6
X115.95Y-54.5
X116.0Y-55.35
X116.0Y-56.25
X116.0Y-57.2
X116.0Y-58.1
X116.0Y-162.0
X116.0Y-162.8
X116.0Y-163.6
X116.01Y-59.83
X116.01Y-60.73
X116.01Y-63.41
X116.01Y-64.31
X116.06Y-61.58
X116.06Y-65.16
X116.22Y-66.42
X116.22Y-67.32
X116.27Y-68.17
X116.32Y-74.65
X116.32Y-75.55
X116.32Y-100.19
X116.32Y-100.99
X116.32Y-101.79
X116.37Y-76.4
X116.39Y-97.17
X116.39Y-98.07
X116.4Y-140.0
X116.4Y-140.9
X116.41Y-77.86
X116.41Y-78.66
X116.43Y-79.44
X116.44Y-98.92
X116.46Y-81.2
X116.46Y-82.0
X116.46Y-82.8
X116.5Y-143.2
X116.5Y-144.1
X116.6Y-131.8
X116.6Y-132.6
X116.6Y-133.4
X116.63Y-94.34
X116.63Y-95.14
X116.63Y-95.94
X116.65Y-50.25
X116.65Y-51.15
X116.68Y-84.44
X116.68Y-85.34
X116.7Y-46.8
X116.7Y-47.7
X116.7Y-52.0
X116.72Y-90.66
X116.72Y-91.46
X116.72Y-92.26
X116.73Y-86.19
X116.73Y-87.09
X116.73Y-88.04
X116.73Y-88.94
X116.75Y-43.65
X116.75Y-48.55
X116.8Y-44.5
X116.8Y-45.4
X116.8Y-152.7
X116.8Y-153.6
X116.8Y-156.2
X116.8Y-157.1
X116.9Y-121.9
X116.9Y-122.8
X116.91Y-59.83
X116.91Y-60.73
X116.91Y-63.41
X116.91Y-64.31
X116.95Y-53.6
X116.95Y-54.5
X116.96Y-61.58
X116.96Y-65.16
X117.0Y-55.35
X117.0Y-56.25
X117.0Y-57.2
X117.0Y-58.1
X117.0Y-146.2
X117.0Y-147.1
X117.0Y-148.1
X117.0Y-149.0
X117.0Y-149.9
X117.0Y-150.8
X117.0Y-162.0
X117.0Y-162.8
X117.0Y-163.6
X117.05Y-104.7
X117.05Y-105.6
X117.1Y-103.8
X117.1Y-106.45
X117.12Y-66.42
X117.12Y-67.32
X117.15Y-108.6
X117.15Y-109.5
X117.17Y-68.17
X117.2Y-112.25
X117.2Y-113.15
X117.3Y-125.3
X117.3Y-126.2
X117.32Y-74.65
X117.32Y-75.55
X117.32Y-100.19
X117.32Y-100.99
X117.32Y-101.79
X117.35Y-115.1
X117.35Y-116.0
X117.37Y-76.4
X117.39Y-97.17
X117.39Y-98.07
X117.4Y-116.85
X117.4Y-117.75
X117.4Y-118.7
X117.4Y-119.6
X117.4Y-140.0
X117.4Y-140.9
X117.41Y-77.86
X117.41Y-78.66
X117.43Y-79.44
X117.44Y-98.92
X117.46Y-81.2
X117.46Y-82.0
X117.46Y-82.8
X117.5Y-143.2
X117.5Y-144.1
X117.6Y-122.3
X117.6Y-128.5
X117.6Y-129.4
X117.6Y-131.8
X117.6Y-132.6
X117.6Y-133.4
X117.63Y-94.34
X117.63Y-95.14
X117.63Y-95.94
X117.65Y-50.25
X117.65Y-51.15
X117.68Y-84.44
X117.68Y-85.34
X117.7Y-46.8
X117.7Y-47.7
X117.7Y-52.0
X117.72Y-90.66
X117.72Y-91.46
X117.72Y-92.26
X117.73Y-86.19
X117.73Y-87.09
X117.73Y-88.04
X117.73Y-88.94
X117.75Y-43.65
X117.75Y-48.55
X117.8Y-44.5
X117.8Y-45.4
X117.8Y-152.7
X117.8Y-153.6
X117.8Y-156.2
X117.8Y-157.1
X117.8Y-158.9
X117.8Y-159.7
X117.8Y-160.5
X117.85Y-109.0
X117.9Y-112.65
X117.91Y-59.83
X117.91Y-60.73
X117.91Y-63.41
X117.91Y-64.31
X117.95Y-53.6
X117.95Y-54.5
X117.96Y-61.58
X117.96Y-65.16
X118.0Y-55.35
X118.0Y-56.25
X118.0Y-57.2
X118.0Y-58.1
X118.0Y-125.7
X118.0Y-146.2
X118.0Y-147.1
X118.0Y-148.1
X118.0Y-149.0
X118.0Y-149.9
X118.0Y-150.8
X118.0Y-162.0
X118.0Y-162.8
X118.0Y-163.6
X118.05Y-104.7
X118.05Y-105.6
X118.1Y-103.8
X118.1Y-106.45
X118.12Y-66.42
X118.12Y-67.32
X118.17Y-68.17
X118.2Y-121.9
X118.2Y-122.8
X118.3Y-136.1
X118.3Y-136.9
X118.3Y-137.7
X118.32Y-74.65
X118.32Y-75.55
X118.32Y-100.19
X118.32Y-100.99
X118.32Y-101.79
X118.35Y-115.1
X118.35Y-116.0
X118.37Y-76.4
X118.39Y-97.17
X118.39Y-98.07
X118.4Y-116.85
X118.4Y-117.75
X118.4Y-118.7
X118.4Y-119.6
X118.4Y-140.0
X118.4Y-140.9
X118.41Y-77.86
X118.41Y-78.66
X118.43Y-79.44
X118.44Y-98.92
X118.45Y-108.6
X118.45Y-109.5
X118.46Y-81.2
X118.46Y-82.0
X118.46Y-82.8
X118.5Y-112.25
X118.5Y-113.15
X118.5Y-143.2
X118.5Y-144.1
X118.6Y-125.3
X118.6Y-126.2
X118.6Y-128.5
X118.6Y-129.4
X118.6Y-131.8
X118.6Y-132.6
X118.6Y-133.4
X118.63Y-94.34
X118.63Y-95.14
X118.63Y-95.94
X118.65Y-50.25
X118.65Y-51.15
X118.68Y-84.44
X118.68Y-85.34
X118.7Y-46.8
X118.7Y-47.7
X118.7Y-52.0
X118.72Y-90.66
X118.72Y-91.46
X118.72Y-92.26
X118.73Y-86.19
X118.73Y-87.09
X118.73Y-88.04
X118.73Y-88.94
X118.75Y-43.65
X118.75Y-48.55
X118.8Y-44.5
X118.8Y-45.4
X118.8Y-152.7
X118.8Y-153.6
X118.8Y-156.2
X118.8Y-157.1
X118.8Y-158.9
X118.8Y-159.7
X118.8Y-160.5
X118.91Y-59.83
X118.91Y-60.73
X118.91Y-63.41
X118.91Y-64.31
X118.95Y-53.6
X118.95Y-54.5
X118.96Y-61.58
X118.96Y-65.16
X119.0Y-55.35
X119.0Y-56.25
X119.0Y-57.2
X119.0Y-58.1
X119.0Y-146.2
X119.0Y-147.1
X119.0Y-148.1
X119.0Y-149.0
X119.0Y-149.9
X119.0Y-150.8
X119.05Y-104.7
X119.05Y-105.6
X119.1Y-103.8
X119.1Y-106.45
X119.12Y-66.42
X119.12Y-67.32
X119.17Y-68.17
X119.2Y-97.52
X119.2Y-121.9
X119.2Y-122.8
X119.3Y-136.1
X119.3Y-136.9
X119.3Y-137.7
X119.32Y-74.65
X119.32Y-75.55
X119.32Y-100.19
X119.32Y-100.99
X119.32Y-101.79
X119.35Y-115.1
X119.35Y-116.0
X119.37Y-76.4
X119.4Y-116.85
X119.4Y-117.75
X119.4Y-118.7
X119.4Y-119.6
X119.4Y-140.0
X119.4Y-140.9
X119.41Y-77.86
X119.41Y-78.66
X119.43Y-79.44
X119.45Y-108.6
X119.45Y-109.5
X119.46Y-81.2
X119.46Y-82.0
X119.46Y-82.8
X119.5Y-112.25
X119.5Y-113.15
X119.5Y-143.2
X119.5Y-144.1
X119.6Y-125.3
X119.6Y-126.2
X119.6Y-128.5
X119.6Y-129.4
X119.6Y-131.8
X119.6Y-132.6
X119.6Y-133.4
X119.63Y-94.34
X119.63Y-95.14
X119.63Y-95.94
X119.66Y-50.19
X119.66Y-51.09
X119.68Y-84.44
X119.68Y-85.34
X119.71Y-46.74
X119.71Y-47.64
X119.71Y-51.94
X119.72Y-90.66
X119.72Y-91.46
X119.72Y-92.26
X119.73Y-86.19
X119.73Y-87.09
X119.73Y-88.04
X119.73Y-88.94
X119.76Y-48.49
X119.8Y-152.7
X119.8Y-153.6
X119.8Y-156.2
X119.8Y-157.1
X119.8Y-158.9
X119.8Y-159.7
X119.8Y-160.5
X119.92Y-59.77
X119.92Y-60.67
X119.92Y-63.35
X119.92Y-64.25
X119.95Y-43.75
X119.95Y-53.6
X119.95Y-54.5
X119.97Y-61.52
X119.97Y-65.1
X120.0Y-44.6
X120.0Y-45.5
X120.0Y-55.35
X120.0Y-56.25
X120.0Y-57.2
X120.0Y-58.1
X120.0Y-146.2
X120.0Y-147.1
X120.0Y-148.1
X120.0Y-149.0
X120.0Y-149.9
X120.0Y-150.8
X120.13Y-66.36
X120.13Y-67.26
X120.18Y-68.11
X120.2Y-97.52
X120.2Y-121.9
X120.2Y-122.8
X120.3Y-136.1
X120.3Y-136.9
X120.3Y-137.7
X120.35Y-115.1
X120.35Y-116.0
X120.4Y-116.85
X120.4Y-117.75
X120.4Y-118.7
X120.4Y-119.6
X120.4Y-140.0
X120.4Y-140.9
X120.41Y-77.86
X120.41Y-78.66
X120.43Y-79.44
X120.45Y-108.6
X120.45Y-109.5
X120.46Y-81.2
X120.46Y-82.0
X120.46Y-82.8
X120.5Y-112.25
X120.5Y-113.15
X120.5Y-143.2
X120.5Y-144.1
X120.6Y-125.3
X120.6Y-126.2
X120.6Y-128.5
X120.6Y-129.4
X120.6Y-131.8
X120.6Y-132.6
X120.6Y-133.4
X120.63Y-94.34
X120.63Y-95.14
X120.63Y-95.94
X120.66Y-50.19
X120.66Y-51.09
X120.68Y-84.44
X120.68Y-85.34
X120.71Y-46.74
X120.71Y-47.64
X120.71Y-51.94
X120.72Y-90.66
X120.72Y-91.46
X120.72Y-92.26
X120.73Y-86.19
X120.73Y-87.09
X120.73Y-88.04
X120.73Y-88.94
X120.76Y-48.49
X120.8Y-152.7
X120.8Y-153.6
X120.8Y-156.2
X120.8Y-157.1
X120.8Y-158.9
X120.8Y-159.7
X120.8Y-160.5
X120.92Y-59.77
X120.92Y-60.67
X120.92Y-63.35
X120.92Y-64.25
X120.95Y-43.75
X120.95Y-53.6
X120.95Y-54.5
X120.97Y-61.52
X120.97Y-65.1
X121.0Y-44.6
X121.0Y-45.5
X121.0Y-55.35
X121.0Y-56.25
X121.0Y-57.2
X121.0Y-58.1
X121.0Y-146.2
X121.0Y-147.1
X121.0Y-148.1
X121.0Y-149.0
X121.0Y-149.9
X121.0Y-150.8
X121.13Y-66.36
X121.13Y-67.26
X121.18Y-68.11
X121.2Y-97.52
X121.2Y-121.9
X121.2Y-122.8
X121.3Y-136.1
X121.3Y-136.9
X121.3Y-137.7
X121.35Y-115.1
X121.35Y-116.0
X121.4Y-116.85
X121.4Y-117.75
X121.4Y-118.7
X121.4Y-119.6
X121.41Y-77.86
X121.41Y-78.66
X121.43Y-79.44
X121.45Y-108.6
X121.45Y-109.5
X121.46Y-81.2
X121.46Y-82.0
X121.46Y-82.8
X121.5Y-112.25
X121.5Y-113.15
X121.6Y-125.3
X121.6Y-126.2
X121.6Y-128.5
X121.6Y-129.4
X121.6Y-131.8
X121.6Y-132.6
X121.6Y-133.4
X121.63Y-94.34
X121.63Y-95.14
X121.63Y-95.94
X121.66Y-50.19
X121.66Y-51.09
X121.68Y-84.44
X121.68Y-85.34
X121.71Y-46.74
X121.71Y-47.64
X121.71Y-51.94
X121.72Y-90.66
X121.72Y-91.46
X121.72Y-92.26
X121.73Y-86.19
X121.73Y-87.09
X121.73Y-88.04
X121.73Y-88.94
X121.76Y-48.49
X121.8Y-158.9
X121.8Y-159.7
X121.8Y-160.5
X121.92Y-59.77
X121.92Y-60.67
X121.92Y-63.35
X121.92Y-64.25
X121.95Y-43.75
X121.95Y-53.6
X121.95Y-54.5
X121.97Y-61.52
X121.97Y-65.1
X122.0Y-44.6
X122.0Y-45.5
X122.0Y-55.35
X122.0Y-56.25
X122.0Y-57.2
X122.0Y-58.1
X122.0Y-146.2
X122.0Y-147.1
X122.0Y-148.1
X122.0Y-149.0
X122.0Y-149.9
X122.0Y-150.8
X122.13Y-66.36
X122.13Y-67.26
X122.18Y-68.11
X122.2Y-121.9
X122.2Y-122.8
X122.3Y-136.1
X122.3Y-136.9
X122.3Y-137.7
X122.31Y-97.49
X122.35Y-115.1
X122.35Y-116.0
X122.4Y-116.85
X122.4Y-117.75
X122.4Y-118.7
X122.4Y-119.6
X122.41Y-77.86
X122.41Y-78.66
X122.43Y-79.44
X122.45Y-108.6
X122.45Y-109.5
X122.46Y-81.2
X122.46Y-82.0
X122.46Y-82.8
X122.5Y-112.25
X122.5Y-113.15
X122.6Y-125.3
X122.6Y-126.2
X122.6Y-128.5
X122.6Y-129.4
X122.63Y-50.2
X122.63Y-51.1
X122.63Y-94.34
X122.63Y-95.14
X122.63Y-95.94
X122.68Y-46.75
X122.68Y-47.65
X122.68Y-51.95
X122.68Y-84.44
X122.68Y-85.34
X122.72Y-90.66
X122.72Y-91.46
X122.72Y-92.26
X122.73Y-48.5
X122.73Y-86.19
X122.73Y-87.09
X122.73Y-88.04
X122.73Y-88.94
X122.89Y-59.78
X122.89Y-60.68
X122.89Y-63.36
X122.89Y-64.26
X122.94Y-61.53
X122.94Y-65.11
X122.95Y-43.75
X122.97Y-100.31
X122.97Y-101.11
X122.97Y-101.91
X123.0Y-44.6
X123.0Y-45.5
X123.0Y-146.2
X123.0Y-147.1
X123.0Y-148.1
X123.0Y-149.0
X123.0Y-149.9
X123.0Y-150.8
X123.05Y-103.85
X123.05Y-104.7
X123.05Y-105.6
X123.08Y-66.36
X123.08Y-67.26
X123.1Y-106.45
X123.13Y-68.11
X123.15Y-53.7
X123.15Y-54.6
X123.2Y-55.45
X123.2Y-56.35
X123.2Y-57.3
X123.2Y-58.2
X123.2Y-121.9
X123.2Y-122.8
X123.26Y-97.4
X123.26Y-98.3
X123.31Y-99.15
X123.32Y-72.33
X123.32Y-74.65
X123.32Y-75.55
X123.35Y-69.86
X123.35Y-70.66
X123.35Y-71.46
X123.35Y-115.1
X123.35Y-116.0
X123.37Y-76.4
X123.4Y-116.85
X123.4Y-117.75
X123.4Y-118.7
X123.4Y-119.6
X123.41Y-77.86
X123.41Y-78.66
X123.43Y-79.44
X123.45Y-108.6
X123.45Y-109.5
X123.46Y-81.2
X123.46Y-82.0
X123.46Y-82.8
X123.5Y-112.25
X123.5Y-113.15
X123.53Y-50.2
X123.53Y-51.1
X123.58Y-46.75
X123.58Y-47.65
X123.58Y-51.95
X123.6Y-125.3
X123.6Y-126.2
X123.6Y-128.5
X123.6Y-129.4
X123.63Y-48.5
X123.63Y-94.34
X123.63Y-95.14
X123.63Y-95.94
X123.68Y-84.44
X123.68Y-85.34
X123.72Y-90.66
X123.72Y-91.46
X123.72Y-92.26
X123.73Y-86.19
X123.73Y-87.09
X123.73Y-88.04
X123.73Y-88.94
X123.79Y-59.78
X123.79Y-60.68
X123.79Y-63.36
X123.79Y-64.26
X123.84Y-61.53
X123.84Y-65.11
X123.95Y-43.75
X123.97Y-100.31
X123.97Y-101.11
X123.97Y-101.91
X123.98Y-66.36
X123.98Y-67.26
X124.0Y-44.6
X124.0Y-45.5
X124.0Y-146.2
X124.0Y-147.1
X124.0Y-148.1
X124.0Y-149.0
X124.0Y-149.9
X124.0Y-150.8
X124.03Y-68.11
X124.05Y-103.85
X124.05Y-104.7
X124.05Y-105.6
X124.1Y-106.45
X124.15Y-53.7
X124.15Y-54.6
X124.2Y-55.45
X124.2Y-56.35
X124.2Y-57.3
X124.2Y-58.2
X124.2Y-121.9
X124.2Y-122.8
X124.22Y-74.65
X124.22Y-75.55
X124.26Y-97.4
X124.26Y-98.3
X124.27Y-76.4
X124.31Y-99.15
X124.32Y-72.33
X124.35Y-69.86
X124.35Y-70.66
X124.35Y-71.46
X124.35Y-115.1
X124.35Y-116.0
X124.4Y-116.85
X124.4Y-117.75
X124.4Y-118.7
X124.4Y-119.6
X124.41Y-77.86
X124.41Y-78.66
X124.43Y-79.44
X124.45Y-108.6
X124.45Y-109.5
X124.46Y-81.2
X124.46Y-82.0
X124.46Y-82.8
X124.5Y-112.25
X124.5Y-113.15
X124.53Y-50.2
X124.53Y-51.1
X124.58Y-46.75
X124.58Y-47.65
X124.58Y-51.95
X124.58Y-84.44
X124.58Y-85.34
X124.6Y-125.3
X124.6Y-126.2
X124.6Y-128.5
X124.6Y-129.4
X124.63Y-48.5
X124.63Y-86.19
X124.63Y-87.09
X124.63Y-88.04
X124.63Y-88.94
X124.79Y-59.78
X124.79Y-60.68
X124.79Y-63.36
X124.79Y-64.26
X124.84Y-61.53
X124.84Y-65.11
X124.9Y-146.2
X124.9Y-147.1
X124.9Y-148.1
X124.9Y-149.0
X124.9Y-149.9
X124.9Y-150.8
X124.97Y-100.31
X124.97Y-101.11
X124.97Y-101.91
X124.98Y-66.36
X124.98Y-67.26
X125.03Y-68.11
X125.05Y-103.85
X125.05Y-104.7
X125.05Y-105.6
X125.1Y-106.45
X125.1Y-121.9
X125.1Y-122.8
X125.15Y-53.7
X125.15Y-54.6
X125.2Y-55.45
X125.2Y-56.35
X125.2Y-57.3
X125.2Y-58.2
X125.22Y-74.65
X125.22Y-75.55
X125.25Y-115.1
X125.25Y-116.0
X125.26Y-97.4
X125.26Y-98.3
X125.27Y-76.4
X125.3Y-116.85
X125.3Y-117.75
X125.3Y-118.7
X125.3Y-119.6
X125.31Y-99.15
X125.32Y-72.33
X125.35Y-69.86
X125.35Y-70.66
X125.35Y-71.46
X125.35Y-108.6
X125.35Y-109.5
X125.4Y-112.25
X125.4Y-113.15
X125.41Y-77.86
X125.41Y-78.66
X125.43Y-79.44
X125.46Y-81.2
X125.46Y-82.0
X125.46Y-82.8
X125.5Y-125.3
X125.5Y-126.2
X125.5Y-128.5
X125.5Y-129.4
X125.53Y-50.2
X125.53Y-51.1
X125.58Y-46.75
X125.58Y-47.65
X125.58Y-51.95
X125.58Y-84.44
X125.58Y-85.34
X125.63Y-48.5
X125.63Y-86.19
X125.63Y-87.09
X125.79Y-59.78
X125.79Y-60.68
X125.79Y-63.36
X125.79Y-64.26
X125.84Y-61.53
X125.84Y-65.11
X125.95Y-104.7
X125.95Y-105.6
X125.97Y-100.31
X125.97Y-101.11
X125.97Y-101.91
X125.98Y-66.36
X125.98Y-67.26
X126.0Y-106.45
X126.03Y-68.11
X126.05Y-103.85
X126.1Y-121.9
X126.1Y-122.8
X126.15Y-53.7
X126.15Y-54.6
X126.2Y-55.45
X126.2Y-56.35
X126.2Y-57.3
X126.2Y-58.2
X126.22Y-74.65
X126.22Y-75.55
X126.25Y-115.1
X126.25Y-116.0
X126.27Y-76.4
X126.3Y-116.85
X126.3Y-117.75
X126.3Y-118.7
X126.3Y-119.6
X126.32Y-72.33
X126.35Y-69.86
X126.35Y-70.66
X126.35Y-71.46
X126.35Y-108.6
X126.35Y-109.5
X126.37Y-97.37
X126.37Y-98.27
X126.4Y-112.25
X126.4Y-113.15
X126.41Y-77.86
X126.41Y-78.66
X126.42Y-99.12
X126.43Y-79.44
X126.46Y-81.2
X126.46Y-82.0
X126.46Y-82.8
X126.5Y-125.3
X126.5Y-126.2
X126.5Y-128.5
X126.5Y-129.4
X126.54Y-50.14
X126.54Y-51.04
X126.58Y-84.44
X126.58Y-85.34
X126.59Y-46.69
X126.59Y-47.59
X126.59Y-51.89
X126.63Y-86.19
X126.63Y-87.09
X126.64Y-48.44
X126.7Y-131.7
X126.7Y-132.5
X126.7Y-133.3
X126.8Y-59.72
X126.8Y-60.62
X126.8Y-63.3
X126.8Y-64.2
X126.85Y-61.47
X126.85Y-65.05
X126.95Y-104.7
X126.95Y-105.6
X126.97Y-100.31
X126.97Y-101.11
X126.97Y-101.91
X126.99Y-66.3
X126.99Y-67.2
X127.0Y-103.8
X127.0Y-106.45
X127.04Y-68.05
X127.1Y-121.9
X127.1Y-122.8
X127.15Y-53.7
X127.15Y-54.6
X127.2Y-55.45
X127.2Y-56.35
X127.2Y-57.3
X127.2Y-58.2
X127.23Y-74.59
X127.23Y-75.49
X127.25Y-115.1
X127.25Y-116.0
X127.28Y-76.34
X127.3Y-116.85
X127.3Y-117.75
X127.3Y-118.7
X127.3Y-119.6
X127.32Y-72.33
X127.35Y-69.86
X127.35Y-70.66
X127.35Y-71.46
X127.35Y-108.6
X127.35Y-109.5
X127.38Y-77.84
X127.38Y-78.64
X127.4Y-79.42
X127.4Y-112.25
X127.4Y-113.15
X127.43Y-81.18
X127.43Y-81.98
X127.43Y-82.78
X127.5Y-125.3
X127.5Y-126.2
X127.5Y-128.5
X127.5Y-129.4
X127.54Y-50.14
X127.54Y-51.04
X127.59Y-46.69
X127.59Y-47.59
X127.59Y-51.89
X127.64Y-48.44
X127.7Y-131.7
X127.7Y-132.5
X127.7Y-133.3
X127.8Y-59.72
X127.8Y-60.62
X127.8Y-63.3
X127.8Y-64.2
X127.85Y-61.47
X127.85Y-65.05
X127.95Y-104.7
X127.95Y-105.6
X127.97Y-100.31
X127.97Y-101.11
X127.97Y-101.91
X127.99Y-66.3
X127.99Y-67.2
X128.0Y-103.8
X128.0Y-106.45
X128.04Y-68.05
X128.1Y-121.9
X128.1Y-122.8
X128.23Y-74.59
X128.23Y-75.49
X128.25Y-115.1
X128.25Y-116.0
X128.28Y-76.34
X128.3Y-116.85
X128.3Y-117.75
X128.3Y-118.7
X128.3Y-119.6
X128.32Y-72.33
X128.35Y-69.86
X128.35Y-70.66
X128.35Y-71.46
X128.35Y-108.6
X128.35Y-109.5
X128.38Y-77.84
X128.38Y-78.64
X128.4Y-79.42
X128.4Y-112.25
X128.4Y-113.15
X128.43Y-81.98
X128.43Y-82.78
X128.5Y-125.3
X128.5Y-126.2
X128.5Y-128.5
X128.5Y-129.4
X128.6Y-122.3
X128.7Y-131.7
X128.7Y-132.5
X128.7Y-133.3
X128.85Y-109.0
X128.9Y-112.65
X128.95Y-104.7
X128.95Y-105.6
X128.97Y-100.31
X128.97Y-101.11
X128.97Y-101.91
X128.99Y-66.3
X128.99Y-67.2
X129.0Y-103.8
X129.0Y-106.45
X129.0Y-125.7
X129.04Y-68.05
X129.1Y-121.9
X129.1Y-122.8
X129.23Y-74.59
X129.23Y-75.49
X129.25Y-115.1
X129.25Y-116.0
X129.28Y-76.34
X129.3Y-116.85
X129.3Y-117.75
X129.3Y-118.7
X129.3Y-119.6
X129.32Y-72.33
X129.35Y-69.86
X129.35Y-70.66
X129.35Y-71.46
X129.35Y-108.6
X129.35Y-109.5
X129.4Y-112.25
X129.4Y-113.15
X129.5Y-125.3
X129.5Y-126.2
X129.5Y-128.5
X129.5Y-129.4
X129.7Y-131.7
X129.7Y-132.5
X129.7Y-133.3
X129.95Y-104.7
X129.95Y-105.6
X129.97Y-100.31
X129.97Y-101.11
X129.97Y-101.91
X130.0Y-103.8
X130.0Y-106.45
X130.5Y-128.5
X130.5Y-129.4
X130.7Y-131.7
X130.7Y-132.5
X130.7Y-133.3
X130.97Y-100.31
X130.97Y-101.11
X130.97Y-101.91
X131.4Y-128.5
X131.4Y-129.4
X131.61Y-97.69
X131.61Y-98.49
X131.61Y-99.29
X131.7Y-131.7
X131.7Y-132.5
X131.7Y-133.3
T2
X90.65Y-148.1
X90.65Y-149.4
X90.65Y-150.7
X90.7Y-144.2
X90.7Y-145.5
X90.7Y-146.8
X90.7Y-152.0
X90.7Y-153.3
X90.98Y-57.49
X90.98Y-58.79
X90.98Y-60.09
X91.03Y-53.59
X91.03Y-54.89
X91.03Y-56.19
X91.03Y-61.39
X91.03Y-62.69
X91.95Y-148.1
X91.95Y-149.4
X91.95Y-150.7
X92.0Y-144.2
X92.0Y-145.5
X92.0Y-146.8
X92.0Y-152.0
X92.0Y-153.3
X92.28Y-57.49
X92.28Y-58.79
X92.28Y-60.09
X92.33Y-53.59
X92.33Y-54.89
X92.33Y-56.19
X92.33Y-61.39
X92.33Y-62.69
X93.25Y-148.1
X93.25Y-149.4
X93.25Y-150.7
X93.3Y-144.2
X93.3Y-145.5
X93.3Y-146.8
X93.3Y-152.0
X93.3Y-153.3
X93.58Y-57.49
X93.58Y-58.79
X93.58Y-60.09
X93.63Y-53.59
X93.63Y-54.89
X93.63Y-56.19
X93.63Y-61.39
X93.63Y-62.69
X95.95Y-113.85
X95.95Y-115.15
X95.95Y-116.45
X96.0Y-109.95
X96.0Y-111.25
X96.0Y-112.55
X96.0Y-117.75
X96.0Y-119.05
X96.15Y-86.6
X96.15Y-87.9
X96.15Y-89.2
X96.2Y-82.7
X96.2Y-84.0
X96.2Y-85.3
X96.2Y-90.5
X96.2Y-91.8
X97.25Y-113.85
X97.25Y-115.15
X97.25Y-116.45
X97.3Y-109.95
X97.3Y-111.25
X97.3Y-112.55
X97.3Y-117.75
X97.3Y-119.05
X97.45Y-86.6
X97.45Y-87.9
X97.45Y-89.2
X97.5Y-82.7
X97.5Y-84.0
X97.5Y-85.3
X97.5Y-90.5
X97.5Y-91.8
X98.55Y-113.85
X98.55Y-115.15
X98.55Y-116.45
X98.6Y-109.95
X98.6Y-111.25
X98.6Y-112.55
X98.6Y-117.75
X98.6Y-119.05
X98.75Y-86.6
X98.75Y-87.9
X98.75Y-89.2
X98.8Y-82.7
X98.8Y-84.0
X98.8Y-85.3
X98.8Y-90.5
X98.8Y-91.8
X121.75Y-29.25
X122.75Y-29.275
X123.75Y-29.25
T3
X26.2Y-28.6
X33.56Y-116.48
X36.5Y-26.6
X43.755Y-116.275
X44.23Y-103.222
X45.8Y-42.6
X48.36Y-99.49
X50.75Y-34.0
X51.5Y-43.0
X53.5Y-26.0
X54.63Y-102.34
X54.725Y-24.975
X55.7Y-99.2
X56.69Y-125.81
X57.455Y-39.045
X57.75Y-40.75
X57.846Y-160.97
X57.912Y-159.258
X61.02Y-99.1
X61.344Y-172.85
X61.75Y-33.0
X63.9Y-33.0
X64.704Y-168.59
X65.75Y-99.12
X66.736Y-170.876
X67.75Y-89.23
X68.625Y-124.874
X68.67Y-90.06
X68.86Y-102.98
X69.022Y-166.304
X71.1Y-66.1
X72.853Y-32.678
X73.0Y-64.5
X73.34Y-154.62
X74.6Y-95.1
X74.8Y-170.5
X74.86Y-106.19
X75.75Y-38.75
X77.075Y-111.645
X77.25Y-42.25
X77.6Y-99.1
X77.93Y-114.92
X78.57Y-119.53
X80.06Y-100.85
X82.4Y-114.09
X82.72Y-113.14
X84.79Y-123.632
X84.94Y-110.48
X85.95Y-115.234
X87.75Y-27.25
X88.324Y-90.404
X88.52Y-123.01
X88.84Y-91.26
X89.12Y-119.76
X89.18Y-99.59
X89.61Y-93.006
X90.23Y-87.025
X90.44Y-100.86
X90.65Y-113.9
X91.68Y-123.01
X98.13Y-145.24
X98.67Y-146.87
X99.75Y-28.0
X102.98Y-140.39
X109.71Y-148.49
X111.75Y-25.25
X120.25Y-28.0
X120.25Y-29.25
X120.5Y-30.6
X124.5Y-27.0
X125.5Y-25.25
X137.602Y-142.682
X137.602Y-166.812
X138.3Y-25.3
X155.89Y-167.066
T4
X22.75Y-31.25
X23.048Y-160.208
X23.111Y-158.493
X23.6Y-138.7
X24.0Y-83.5
X24.2Y-140.5
X24.572Y-111.186
X24.6Y-157.6
X24.75Y-39.5
X25.588Y-112.202
X28.0Y-55.0
X28.5Y-113.28
X28.89Y-118.806
X28.9Y-152.3
X29.4Y-163.2
X30.1Y-144.9
X30.2Y-30.4
X30.7Y-162.1
X30.9Y-103.798
X30.922Y-171.13
X31.43Y-114.234
X32.0Y-69.25
X32.25Y-29.25
X32.25Y-63.5
X32.3Y-105.047
X32.4Y-100.3
X32.4Y-144.4
X32.8Y-146.3
X33.1Y-122.7
X34.6Y-156.5
X34.732Y-161.224
X35.5Y-107.0
X35.8Y-163.4
X36.0Y-148.1
X36.7Y-119.946
X36.75Y-150.2
X37.2Y-151.9
X37.25Y-57.75
X37.25Y-104.396
X37.272Y-111.186
X37.272Y-112.456
X37.95Y-119.175
X38.317Y-154.817
X38.65Y-117.1
X39.241Y-105.221
X39.25Y-73.25
X40.5Y-34.789
X40.733Y-170.019
X41.25Y-59.75
X41.25Y-65.25
X41.25Y-71.25
X41.6Y-132.7
X42.0Y-114.0
X42.098Y-159.7
X42.5Y-138.8
X42.606Y-132.014
X43.2Y-76.4
X43.25Y-114.25
X43.35Y-112.75
X43.7Y-126.55
X43.8Y-136.7
X45.5Y-97.0
X46.0Y-84.4
X46.6Y-115.6
X46.67Y-122.87
X46.9Y-113.15
X46.924Y-158.43
X47.432Y-116.774
X47.475Y-105.7
X47.75Y-84.75
X47.8Y-121.35
X47.9Y-136.0
X47.94Y-123.886
X48.1Y-81.3
X48.3Y-87.7
X48.5Y-37.75
X48.8Y-133.2
X49.21Y-107.376
X49.475Y-120.825
X49.6Y-77.0
X49.75Y-122.75
X49.8Y-132.0
X50.5Y-52.75
X51.0Y-44.8
X51.0Y-77.2
X51.0Y-79.2
X51.0Y-131.3
X51.093Y-119.165
X51.6Y-37.8
X51.7Y-92.6
X51.8Y-72.6
X52.55Y-118.8
X53.0Y-46.8
X53.0Y-77.2
X53.0Y-79.2
X53.1Y-110.3
X53.75Y-42.0
X53.836Y-101.442
X54.0Y-106.25
X54.14Y-67.15
X54.462Y-148.963
X54.741Y-100.617
X55.0Y-47.099
X55.0Y-130.5
X55.047Y-112.949
X55.078Y-111.75
X55.6Y-95.7
X55.75Y-54.5
X56.25Y-128.0
X56.3Y-88.6
X56.3Y-123.1
X56.537Y-148.963
X56.55Y-141.35
X56.69Y-140.0
X56.83Y-156.652
X56.87Y-82.03
X57.0Y-85.8
X57.0Y-134.25
X58.0Y-115.25
X58.1Y-106.3
X58.354Y-156.906
X58.5Y-87.68
X58.7Y-101.9
X58.742Y-100.599
X58.862Y-165.288
X58.862Y-167.574
X59.1Y-81.2
X59.3Y-89.7
X59.576Y-132.893
X59.6Y-135.3
X59.6Y-136.8
X59.6Y-138.8
X59.7Y-131.7
X60.214Y-100.486
X60.3Y-109.0
X60.889Y-97.91
X61.3Y-79.1
X61.4Y-92.6
X61.4Y-101.7
X61.774Y-97.1
X61.8Y-110.7
X61.85Y-141.55
X62.164Y-121.092
X62.275Y-116.52
X62.4Y-79.8
X62.9Y-147.8
X63.0Y-105.8
X63.0Y-115.25
X63.1Y-123.1
X63.3Y-74.8
X64.1Y-160.2
X64.375Y-137.625
X64.47Y-69.71
X65.2Y-107.5
X65.434Y-92.666
X65.5Y-110.3
X65.5Y-150.0
X65.9Y-101.4
X66.2Y-70.8
X66.4Y-120.0
X67.25Y-135.5
X67.425Y-111.575
X67.5Y-70.7
X67.6Y-109.0
X67.94Y-50.33
X68.124Y-147.8
X68.25Y-130.5
X68.25Y-134.25
X69.488Y-115.54
X69.55Y-120.95
X69.8Y-102.1
X70.1Y-98.2
X70.103Y-106.046
X70.104Y-104.396
X70.2Y-33.3
X70.2Y-113.9
X70.212Y-126.037
X70.25Y-140.0
X70.4Y-41.7
X70.4Y-50.2
X70.6Y-51.9
X71.1Y-77.6
X71.1Y-87.9
X71.3Y-147.7
X71.5Y-44.0
X71.75Y-114.75
X72.05Y-121.1
X72.167Y-78.467
X72.2Y-125.0
X72.25Y-132.25
X72.25Y-145.0
X72.4Y-109.3
X72.45Y-97.48
X72.6Y-106.1
X72.625Y-90.175
X73.6Y-79.4
X74.5Y-93.8
X74.79Y-117.32
X74.825Y-125.0
X75.6Y-128.0
X75.6Y-145.5
X75.9Y-78.6
X76.0Y-60.4
X76.0Y-121.9
X76.2Y-61.9
X76.3Y-68.3
X76.4Y-66.9
X76.5Y-132.25
X76.57Y-34.73
X76.75Y-128.5
X76.75Y-136.25
X77.1Y-40.1
X77.5Y-133.25
X78.45Y-124.15
X78.5Y-55.5
X78.5Y-129.45
X78.8Y-39.9
X78.834Y-100.017
X79.0Y-58.25
X79.1Y-149.9
X79.208Y-89.508
X80.0Y-157.3
X80.5Y-89.3
X80.6Y-40.7
X81.25Y-86.25
X81.6Y-94.9
X81.7Y-145.9
X81.78Y-117.14
X82.037Y-121.912
X82.25Y-138.75
X82.25Y-140.0
X82.425Y-129.525
X82.72Y-88.7
X82.793Y-116.425
X82.95Y-137.2
X83.0Y-135.25
X83.06Y-83.72
X83.5Y-133.25
X83.66Y-89.579
X83.75Y-150.25
X83.754Y-124.648
X84.1Y-140.3
X84.492Y-156.608
X84.516Y-50.266
X85.4Y-168.2
X85.712Y-124.394
X86.802Y-58.1
X87.0Y-159.1
X87.4Y-145.925
X87.4Y-167.3
X87.6Y-59.3
X88.15Y-130.85
X88.54Y-114.51
X89.0Y-137.25
X89.33Y-78.91
X89.45Y-121.9
X90.0Y-128.5
X90.0Y-139.25
X90.25Y-119.525
X90.375Y-115.425
X90.387Y-94.807
X92.075Y-115.25
X92.39Y-124.394
X93.406Y-105.09
X95.675Y-120.675
X96.5Y-153.25
X96.581Y-104.201
X96.63Y-94.48
X97.22Y-67.34
X97.5Y-61.64
X98.2Y-121.3
X98.8Y-57.0
X99.4Y-55.0
X99.578Y-134.224
X99.9Y-26.7
X101.24Y-125.5
X101.95Y-119.55
X102.05Y-92.87
X102.25Y-149.75
X102.3Y-88.05
X102.3Y-115.7
X102.6Y-112.95
X102.7Y-89.86
X103.1Y-114.6
X103.7Y-85.77
X104.0Y-117.0
X104.26Y-79.48
X104.4Y-109.16
X104.79Y-144.4
X104.825Y-121.65
X104.83Y-58.61
X105.0Y-50.2
X105.4Y-51.6
X106.35Y-86.69
X106.98Y-92.26
X107.54Y-90.18
X107.8Y-49.4
X108.04Y-68.93
X108.25Y-153.75
X108.3Y-121.4
X108.59Y-55.86
X108.63Y-62.41
X108.665Y-120.065
X108.7Y-116.55
X108.75Y-141.98
X109.0Y-123.5
X109.707Y-80.212
X109.71Y-86.66
X109.77Y-93.23
X110.26Y-110.74
X122.256Y-32.041
X126.7Y-150.1
X130.225Y-161.3
X131.9Y-158.8
X132.6Y-150.7
X134.094Y-150.794
X134.7Y-157.5
X135.54Y-148.371
X135.7Y-166.8
X135.8Y-151.3
X136.6Y-164.6
X138.5Y-163.4
X139.677Y-140.623
X140.0Y-160.6
X140.0Y-162.5
X140.052Y-159.3
X140.501Y-158.1
X141.326Y-140.623
X141.8Y-157.8
X141.9Y-156.55
X142.3Y-155.1
X142.7Y-158.9
X142.8Y-153.8
X144.886Y-158.786
X148.7Y-164.8
X148.7Y-170.8
X154.96Y-167.996
X155.5Y-170.8
X159.1Y-166.0
X160.293Y-169.775
T5
X27.9Y-97.0
X30.25Y-110.25
X40.75Y-24.0
X42.0Y-92.6
X42.4Y-102.37
X44.0Y-55.6
X58.38Y-66.8
X60.386Y-54.29
X65.0Y-77.8
X66.56Y-52.19
X85.0Y-27.0
X89.3Y-159.0
X89.7Y-66.1
X91.55Y-120.5
X91.62Y-93.9
X95.0Y-159.0
X95.27Y-67.54
X96.75Y-25.75
X100.16Y-95.94
X102.4Y-121.2
X140.5Y-26.0
X146.0Y-25.75
T6
X80.522Y-167.282
X82.522Y-167.282
T7
X78.015Y-142.78
X79.245Y-153.8
X80.015Y-142.78
X81.245Y-153.8
X83.24Y-64.49
X83.24Y-66.49
X84.035Y-78.87
X85.005Y-93.51
X85.015Y-104.29
X85.34Y-118.75
X86.035Y-78.87
X87.005Y-93.51
X87.015Y-104.29
X87.34Y-118.75
X92.959Y-47.94
X94.959Y-47.94
T8
X23.3Y-92.6
X41.1Y-99.1
X44.8Y-44.2
X48.962Y-95.362
X58.33Y-34.73
X62.355Y-48.755
X70.4Y-56.8
X76.0Y-92.6
X108.6Y-41.8
X138.4Y-170.85
T9
X24.25Y-123.25
X24.25Y-125.79
X24.25Y-128.33
X26.79Y-123.25
X26.79Y-125.79
X26.79Y-128.33
X27.75Y-35.63
X27.75Y-38.17
X27.75Y-40.71
X27.75Y-43.25
X34.1Y-31.66
X34.1Y-34.2
X34.1Y-36.74
X34.1Y-39.28
X67.9Y-41.375
X67.9Y-43.915
X67.9Y-46.455
X69.5Y-72.5
X69.5Y-75.04
X74.5Y-82.675
X74.5Y-85.215
X74.5Y-87.755
X85.37Y-34.73
X85.37Y-37.27
X87.91Y-34.73
X87.91Y-37.27
X90.45Y-34.73
X90.45Y-37.27
X92.99Y-34.73
X92.99Y-37.27
X94.16Y-123.62
X94.16Y-126.16
X94.16Y-128.7
X94.16Y-131.24
X94.16Y-133.78
X94.16Y-136.32
X94.16Y-138.86
X94.16Y-141.4
X95.53Y-34.73
X95.53Y-37.27
X96.7Y-123.62
X96.7Y-126.16
X96.7Y-128.7
X96.7Y-131.24
X96.7Y-133.78
X96.7Y-136.32
X96.7Y-138.86
X96.7Y-141.4
X98.07Y-34.73
X98.07Y-37.27
X100.61Y-34.73
X100.61Y-37.27
X103.15Y-34.73
X103.15Y-37.27
X105.69Y-34.73
X105.69Y-37.27
X108.23Y-34.73
X108.23Y-37.27
X110.77Y-34.73
X110.77Y-37.27
X113.31Y-34.73
X113.31Y-37.27
X115.85Y-34.73
X115.85Y-37.27
X118.39Y-34.73
X118.39Y-37.27
X120.93Y-34.73
X120.93Y-37.27
X121.05Y-99.85
X121.05Y-104.85
X121.34Y-70.44
X121.34Y-75.44
X123.47Y-34.73
X123.47Y-37.27
X124.0Y-158.75
X124.0Y-163.75
X124.4Y-132.868
X124.4Y-137.868
X125.832Y-44.6
X126.01Y-34.73
X126.01Y-37.27
X128.55Y-34.73
X128.55Y-37.27
X129.75Y-93.632
X129.75Y-98.632
X130.832Y-44.6
X131.09Y-34.73
X131.09Y-37.27
X131.55Y-66.91
X131.55Y-71.91
X133.5Y-127.132
X133.5Y-132.132
X133.63Y-34.73
X133.63Y-37.27
T10
X151.68Y-74.8
X151.68Y-77.8
X151.68Y-84.8
X151.68Y-87.8
X151.68Y-94.8
X151.68Y-97.8
X151.68Y-104.8
X151.68Y-107.8
X154.68Y-74.8
X154.68Y-77.8
X154.68Y-84.8
X154.68Y-87.8
X154.68Y-94.8
X154.68Y-97.8
X154.68Y-104.8
X154.68Y-107.8
T11
X27.8Y-47.555
X27.8Y-78.035
T12
X150.83Y-123.13
X150.83Y-125.9
X150.83Y-128.67
X150.83Y-131.44
X150.83Y-134.21
X150.83Y-136.98
X150.83Y-139.75
X150.83Y-142.52
X150.83Y-145.29
X150.83Y-148.06
X150.83Y-150.83
X150.83Y-153.6
X150.83Y-156.37
X153.67Y-124.515
X153.67Y-127.285
X153.67Y-130.055
X153.67Y-132.825
X153.67Y-135.595
X153.67Y-138.365
X153.67Y-141.135
X153.67Y-143.905
X153.67Y-146.675
X153.67Y-149.445
X153.67Y-152.215
X153.67Y-154.985
T13
X72.254Y-26.325
X104.5Y-30.1
T14
X144.75Y-32.8
X144.75Y-37.0
X144.75Y-41.2
X150.25Y-32.8
X150.25Y-37.0
X150.25Y-41.2
T15
X152.25Y-116.23
X152.25Y-163.27
T0
M30
