%TF.GenerationSoftware,KiCad,Pcbnew,6.0.6+dfsg-1~bpo11+1*%
%TF.CreationDate,2022-11-12T15:23:50-08:00*%
%TF.ProjectId,BuildboticsController,4275696c-6462-46f7-9469-6373436f6e74,rev?*%
%TF.SameCoordinates,Original*%
%TF.FileFunction,Copper,L3,Inr*%
%TF.FilePolarity,Positive*%
%FSLAX46Y46*%
G04 Gerber Fmt 4.6, Leading zero omitted, Abs format (unit mm)*
G04 Created by KiCad (PCBNEW 6.0.6+dfsg-1~bpo11+1) date 2022-11-12 15:23:50*
%MOMM*%
%LPD*%
G01*
G04 APERTURE LIST*
%TA.AperFunction,ComponentPad*%
%ADD10R,1.700000X1.700000*%
%TD*%
%TA.AperFunction,ComponentPad*%
%ADD11O,1.700000X1.700000*%
%TD*%
%TA.AperFunction,ComponentPad*%
%ADD12R,0.850000X0.850000*%
%TD*%
%TA.AperFunction,ComponentPad*%
%ADD13C,0.499999*%
%TD*%
%TA.AperFunction,ComponentPad*%
%ADD14R,1.600000X1.600000*%
%TD*%
%TA.AperFunction,ComponentPad*%
%ADD15C,1.600000*%
%TD*%
%TA.AperFunction,ComponentPad*%
%ADD16R,2.000000X2.000000*%
%TD*%
%TA.AperFunction,ComponentPad*%
%ADD17C,2.000000*%
%TD*%
%TA.AperFunction,ComponentPad*%
%ADD18C,1.200000*%
%TD*%
%TA.AperFunction,ComponentPad*%
%ADD19R,2.750000X2.750000*%
%TD*%
%TA.AperFunction,ComponentPad*%
%ADD20C,2.750000*%
%TD*%
%TA.AperFunction,ComponentPad*%
%ADD21C,2.400000*%
%TD*%
%TA.AperFunction,ComponentPad*%
%ADD22O,2.400000X2.400000*%
%TD*%
%TA.AperFunction,ComponentPad*%
%ADD23C,4.770000*%
%TD*%
%TA.AperFunction,ComponentPad*%
%ADD24C,1.830000*%
%TD*%
%TA.AperFunction,ComponentPad*%
%ADD25R,1.570000X1.570000*%
%TD*%
%TA.AperFunction,ComponentPad*%
%ADD26C,1.570000*%
%TD*%
%TA.AperFunction,ViaPad*%
%ADD27C,1.000000*%
%TD*%
%TA.AperFunction,ViaPad*%
%ADD28C,0.500000*%
%TD*%
%TA.AperFunction,ViaPad*%
%ADD29C,1.500000*%
%TD*%
%TA.AperFunction,ViaPad*%
%ADD30C,0.800000*%
%TD*%
%TA.AperFunction,ViaPad*%
%ADD31C,2.000000*%
%TD*%
%TA.AperFunction,Conductor*%
%ADD32C,0.250000*%
%TD*%
%TA.AperFunction,Conductor*%
%ADD33C,0.650000*%
%TD*%
%TA.AperFunction,Conductor*%
%ADD34C,1.000000*%
%TD*%
%TA.AperFunction,Conductor*%
%ADD35C,2.000000*%
%TD*%
G04 APERTURE END LIST*
D10*
%TO.N,/Microprocessor/serial_cts*%
%TO.C,J11*%
X67900000Y-41375000D03*
D11*
%TO.N,/Microprocessor/serial_rx*%
X67900000Y-43915000D03*
%TO.N,/Microprocessor/serial_tx*%
X67900000Y-46455000D03*
%TD*%
D12*
%TO.N,GND*%
%TO.C,TP13*%
X42400000Y-102370000D03*
%TD*%
%TO.N,Net-(C16-Pad1)*%
%TO.C,TP8*%
X58380000Y-66800000D03*
%TD*%
%TO.N,/Power Supply/Vdd*%
%TO.C,TP3*%
X60386000Y-54290000D03*
%TD*%
D10*
%TO.N,/Microprocessor/sda*%
%TO.C,J12*%
X74500000Y-82675000D03*
D11*
%TO.N,/Microprocessor/scl*%
X74500000Y-85215000D03*
%TO.N,GND*%
X74500000Y-87755000D03*
%TD*%
D13*
%TO.N,GND*%
%TO.C,U9*%
X96000000Y-112550000D03*
X95950000Y-115150001D03*
X96000000Y-119050000D03*
X98550000Y-113850000D03*
X97250000Y-113850000D03*
X97300000Y-119050000D03*
X95950000Y-116450001D03*
X97300000Y-112550000D03*
X95950000Y-113850000D03*
X98600000Y-109949999D03*
X98600000Y-119050000D03*
X98600000Y-117750000D03*
X96000000Y-111250000D03*
X97250000Y-115150001D03*
X98600000Y-112550000D03*
X97300000Y-111250000D03*
X98550000Y-116450001D03*
X98600000Y-111250000D03*
X96000000Y-109949999D03*
X97300000Y-117750000D03*
X97300000Y-109949999D03*
X98550000Y-115150001D03*
X97250000Y-116450001D03*
X96000000Y-117750000D03*
%TD*%
D12*
%TO.N,Net-(TP6-Pad1)*%
%TO.C,TP6*%
X40750000Y-24000000D03*
%TD*%
D13*
%TO.N,Net-(U8-Pad13)*%
%TO.C,U8*%
X121749999Y-29250000D03*
X122750000Y-29275400D03*
X123750001Y-29250000D03*
%TD*%
D10*
%TO.N,unconnected-(J10-Pad1)*%
%TO.C,J10*%
X85370000Y-37270000D03*
D11*
%TO.N,+5V*%
X85370000Y-34730000D03*
%TO.N,/Microprocessor/sda*%
X87910000Y-37270000D03*
%TO.N,+5V*%
X87910000Y-34730000D03*
%TO.N,/Microprocessor/scl*%
X90450000Y-37270000D03*
%TO.N,GND*%
X90450000Y-34730000D03*
%TO.N,/Power Supply/pwr_tx*%
X92990000Y-37270000D03*
%TO.N,/Microprocessor/serial_rx*%
X92990000Y-34730000D03*
%TO.N,GND*%
X95530000Y-37270000D03*
%TO.N,/Microprocessor/serial_tx*%
X95530000Y-34730000D03*
%TO.N,unconnected-(J10-Pad11)*%
X98070000Y-37270000D03*
%TO.N,unconnected-(J10-Pad12)*%
X98070000Y-34730000D03*
%TO.N,/Microprocessor/reset*%
X100610000Y-37270000D03*
%TO.N,GND*%
X100610000Y-34730000D03*
%TO.N,unconnected-(J10-Pad15)*%
X103150000Y-37270000D03*
%TO.N,/Microprocessor/pdi*%
X103150000Y-34730000D03*
%TO.N,unconnected-(J10-Pad17)*%
X105690000Y-37270000D03*
%TO.N,unconnected-(J10-Pad18)*%
X105690000Y-34730000D03*
%TO.N,unconnected-(J10-Pad19)*%
X108230000Y-37270000D03*
%TO.N,unconnected-(J10-Pad20)*%
X108230000Y-34730000D03*
%TO.N,unconnected-(J10-Pad21)*%
X110770000Y-37270000D03*
%TO.N,unconnected-(J10-Pad22)*%
X110770000Y-34730000D03*
%TO.N,unconnected-(J10-Pad23)*%
X113310000Y-37270000D03*
%TO.N,unconnected-(J10-Pad24)*%
X113310000Y-34730000D03*
%TO.N,GND*%
X115850000Y-37270000D03*
%TO.N,unconnected-(J10-Pad26)*%
X115850000Y-34730000D03*
%TO.N,unconnected-(J10-Pad27)*%
X118390000Y-37270000D03*
%TO.N,unconnected-(J10-Pad28)*%
X118390000Y-34730000D03*
%TO.N,/Power Supply/pwr_rx*%
X120930000Y-37270000D03*
%TO.N,GND*%
X120930000Y-34730000D03*
%TO.N,unconnected-(J10-Pad31)*%
X123470000Y-37270000D03*
%TO.N,unconnected-(J10-Pad32)*%
X123470000Y-34730000D03*
%TO.N,unconnected-(J10-Pad33)*%
X126010000Y-37270000D03*
%TO.N,GND*%
X126010000Y-34730000D03*
%TO.N,unconnected-(J10-Pad35)*%
X128550000Y-37270000D03*
%TO.N,/Microprocessor/serial_cts*%
X128550000Y-34730000D03*
%TO.N,unconnected-(J10-Pad37)*%
X131090000Y-37270000D03*
%TO.N,unconnected-(J10-Pad38)*%
X131090000Y-34730000D03*
%TO.N,GND*%
X133630000Y-37270000D03*
%TO.N,unconnected-(J10-Pad40)*%
X133630000Y-34730000D03*
%TD*%
D14*
%TO.N,Vs*%
%TO.C,C58*%
X86035113Y-78870000D03*
D15*
%TO.N,GND*%
X84035113Y-78870000D03*
%TD*%
D12*
%TO.N,/Power Supply/Vin*%
%TO.C,TP14*%
X146000000Y-25750000D03*
%TD*%
D16*
%TO.N,Vs*%
%TO.C,C55*%
X129750000Y-93632323D03*
D17*
%TO.N,GND*%
X129750000Y-98632323D03*
%TD*%
D16*
%TO.N,Vs*%
%TO.C,C66*%
X131550000Y-66910000D03*
D17*
%TO.N,GND*%
X131550000Y-71910000D03*
%TD*%
D10*
%TO.N,/Microprocessor/pdi*%
%TO.C,J4*%
X24250000Y-123250000D03*
D11*
%TO.N,+3.3V*%
X26790000Y-123250000D03*
%TO.N,unconnected-(J4-Pad3)*%
X24250000Y-125790000D03*
%TO.N,unconnected-(J4-Pad4)*%
X26790000Y-125790000D03*
%TO.N,/Microprocessor/reset*%
X24250000Y-128330000D03*
%TO.N,GND*%
X26790000Y-128330000D03*
%TD*%
D12*
%TO.N,Net-(R58-Pad2)*%
%TO.C,TP21*%
X89700000Y-66100000D03*
%TD*%
%TO.N,Net-(Q5-Pad1)*%
%TO.C,TP4*%
X85000000Y-27000000D03*
%TD*%
D16*
%TO.N,Vs*%
%TO.C,C2*%
X124000000Y-158750000D03*
D17*
%TO.N,GND*%
X124000000Y-163750000D03*
%TD*%
D12*
%TO.N,Net-(R42-Pad2)*%
%TO.C,TP17*%
X91550000Y-120500000D03*
%TD*%
D10*
%TO.N,unconnected-(J6-Pad1)*%
%TO.C,J6*%
X96700000Y-141400000D03*
D11*
%TO.N,/MotorDriver0/enable*%
X94160000Y-141400000D03*
%TO.N,/Microprocessor/step_0*%
X96700000Y-138860000D03*
%TO.N,/Microprocessor/dir_0*%
X94160000Y-138860000D03*
%TO.N,/Microprocessor/step_1*%
X96700000Y-136320000D03*
%TO.N,/Microprocessor/dir_1*%
X94160000Y-136320000D03*
%TO.N,/Microprocessor/step_2*%
X96700000Y-133780000D03*
%TO.N,/Microprocessor/dir_2*%
X94160000Y-133780000D03*
%TO.N,/Microprocessor/step_3*%
X96700000Y-131240000D03*
%TO.N,/Microprocessor/dir_3*%
X94160000Y-131240000D03*
%TO.N,+5V*%
X96700000Y-128700000D03*
%TO.N,GND*%
X94160000Y-128700000D03*
%TO.N,+5V*%
X96700000Y-126160000D03*
%TO.N,GND*%
X94160000Y-126160000D03*
%TO.N,/Peripherals/spin_0to10*%
X96700000Y-123620000D03*
%TO.N,GND*%
X94160000Y-123620000D03*
%TD*%
D16*
%TO.N,Vs*%
%TO.C,C44*%
X133500000Y-127132323D03*
D17*
%TO.N,GND*%
X133500000Y-132132323D03*
%TD*%
D12*
%TO.N,Net-(Q5-Pad4)*%
%TO.C,TP2*%
X96750000Y-25750000D03*
%TD*%
%TO.N,Net-(TP12-Pad1)*%
%TO.C,TP12*%
X30250000Y-110250000D03*
%TD*%
D14*
%TO.N,Vs*%
%TO.C,C68*%
X92958888Y-47940000D03*
D15*
%TO.N,GND*%
X94958888Y-47940000D03*
%TD*%
D18*
%TO.N,Vs*%
%TO.C,C93*%
X82522000Y-167282000D03*
%TO.N,GND*%
X80522000Y-167282000D03*
%TD*%
D14*
%TO.N,Vs*%
%TO.C,C46*%
X87340000Y-118750000D03*
D15*
%TO.N,GND*%
X85340000Y-118750000D03*
%TD*%
D19*
%TO.N,/Power Supply/Vin*%
%TO.C,J2*%
X150250000Y-32800000D03*
D20*
X150250000Y-37000000D03*
X150250000Y-41200000D03*
%TO.N,GND*%
X144750000Y-32800000D03*
X144750000Y-37000000D03*
X144750000Y-41200000D03*
%TD*%
D16*
%TO.N,Vs*%
%TO.C,C56*%
X121340000Y-75440000D03*
D17*
%TO.N,GND*%
X121340000Y-70440000D03*
%TD*%
D12*
%TO.N,Net-(R50-Pad2)*%
%TO.C,TP19*%
X91620000Y-93900000D03*
%TD*%
D14*
%TO.N,Vs*%
%TO.C,C67*%
X83240000Y-64490000D03*
D15*
%TO.N,GND*%
X83240000Y-66490000D03*
%TD*%
D12*
%TO.N,Net-(C43-Pad1)*%
%TO.C,TP18*%
X102400000Y-121200000D03*
%TD*%
D21*
%TO.N,Vs*%
%TO.C,R25*%
X27800000Y-47555000D03*
D22*
%TO.N,Net-(Q8-Pad4)*%
X27800000Y-78035000D03*
%TD*%
D12*
%TO.N,Net-(C64-Pad1)*%
%TO.C,TP22*%
X95270000Y-67540000D03*
%TD*%
%TO.N,Net-(C54-Pad1)*%
%TO.C,TP20*%
X100160000Y-95940000D03*
%TD*%
%TO.N,+5V*%
%TO.C,TP11*%
X42000000Y-92600000D03*
%TD*%
%TO.N,Net-(C1-Pad1)*%
%TO.C,TP16*%
X95000000Y-159000000D03*
%TD*%
D23*
%TO.N,GND*%
%TO.C,J5*%
X152250000Y-116230000D03*
X152250000Y-163270000D03*
D24*
%TO.N,/Microprocessor/out_1*%
X150830000Y-156370000D03*
%TO.N,/Microprocessor/out_2*%
X150830000Y-153600000D03*
%TO.N,/Microprocessor/in_3*%
X150830000Y-150830000D03*
%TO.N,/Microprocessor/in_4*%
X150830000Y-148060000D03*
%TO.N,/Microprocessor/in_5*%
X150830000Y-145290000D03*
%TO.N,/Peripherals/spin_0to10*%
X150830000Y-142520000D03*
%TO.N,GND*%
X150830000Y-139750000D03*
%TO.N,/Microprocessor/in_8*%
X150830000Y-136980000D03*
%TO.N,/Microprocessor/in_9*%
X150830000Y-134210000D03*
%TO.N,/Microprocessor/in_10*%
X150830000Y-131440000D03*
%TO.N,/Microprocessor/in_11*%
X150830000Y-128670000D03*
%TO.N,/Microprocessor/in_12*%
X150830000Y-125900000D03*
%TO.N,/Peripherals/rs485-*%
X150830000Y-123130000D03*
%TO.N,/Peripherals/rs485+*%
X153670000Y-154985000D03*
%TO.N,/Microprocessor/out_15*%
X153670000Y-152215000D03*
%TO.N,/Microprocessor/out_16*%
X153670000Y-149445000D03*
%TO.N,/Microprocessor/spin_pwm*%
X153670000Y-146675000D03*
%TO.N,/Microprocessor/analog_2*%
X153670000Y-143905000D03*
%TO.N,GND*%
X153670000Y-141135000D03*
%TO.N,+5V*%
X153670000Y-138365000D03*
%TO.N,/Microprocessor/out_21*%
X153670000Y-135595000D03*
%TO.N,/Microprocessor/in_22*%
X153670000Y-132825000D03*
%TO.N,/Microprocessor/in_23*%
X153670000Y-130055000D03*
%TO.N,/Microprocessor/analog_1*%
X153670000Y-127285000D03*
%TO.N,GND*%
X153670000Y-124515000D03*
%TD*%
D10*
%TO.N,GND*%
%TO.C,J13*%
X27750000Y-43250000D03*
D11*
%TO.N,+5V*%
X27750000Y-40710000D03*
%TO.N,/Raspberry Pi/5V_sda*%
X27750000Y-38170000D03*
%TO.N,/Raspberry Pi/5V_scl*%
X27750000Y-35630000D03*
%TD*%
D14*
%TO.N,Vs*%
%TO.C,C4*%
X79244888Y-153800000D03*
D15*
%TO.N,GND*%
X81244888Y-153800000D03*
%TD*%
D25*
%TO.N,Net-(J8-Pad1)*%
%TO.C,J8*%
X154679999Y-84800000D03*
D26*
%TO.N,Net-(J8-Pad2)*%
X151679999Y-84800000D03*
%TO.N,Net-(J8-Pad3)*%
X151679999Y-87800000D03*
%TO.N,Net-(J8-Pad4)*%
X154679999Y-87800000D03*
%TD*%
D14*
%TO.N,Vs*%
%TO.C,C57*%
X87005112Y-93510000D03*
D15*
%TO.N,GND*%
X85005112Y-93510000D03*
%TD*%
D25*
%TO.N,Net-(J9-Pad1)*%
%TO.C,J9*%
X154679999Y-74800000D03*
D26*
%TO.N,Net-(J9-Pad2)*%
X151679999Y-74800000D03*
%TO.N,Net-(J9-Pad3)*%
X151679999Y-77800000D03*
%TO.N,Net-(J9-Pad4)*%
X154679999Y-77800000D03*
%TD*%
D13*
%TO.N,GND*%
%TO.C,U1*%
X91950000Y-148100000D03*
X93250000Y-149400001D03*
X93250000Y-150700001D03*
X90650000Y-150700001D03*
X90700000Y-145500000D03*
X93300000Y-145500000D03*
X92000000Y-145500000D03*
X90700000Y-152000000D03*
X90700000Y-153300000D03*
X90650000Y-148100000D03*
X92000000Y-144199999D03*
X92000000Y-146800000D03*
X93300000Y-152000000D03*
X92000000Y-152000000D03*
X91950000Y-149400001D03*
X90700000Y-144199999D03*
X91950000Y-150700001D03*
X92000000Y-153300000D03*
X93300000Y-144199999D03*
X90650000Y-149400001D03*
X93300000Y-153300000D03*
X90700000Y-146800000D03*
X93250000Y-148100000D03*
X93300000Y-146800000D03*
%TD*%
D10*
%TO.N,/Power Supply/en*%
%TO.C,J3*%
X69500000Y-72500000D03*
D11*
%TO.N,Net-(J3-Pad2)*%
X69500000Y-75040000D03*
%TD*%
D25*
%TO.N,Net-(J7-Pad1)*%
%TO.C,J7*%
X154679999Y-94800000D03*
D26*
%TO.N,Net-(J7-Pad2)*%
X151679999Y-94800000D03*
%TO.N,Net-(J7-Pad3)*%
X151679999Y-97800000D03*
%TO.N,Net-(J7-Pad4)*%
X154679999Y-97800000D03*
%TD*%
D16*
%TO.N,Vs*%
%TO.C,C45*%
X121050000Y-104850000D03*
D17*
%TO.N,GND*%
X121050000Y-99850000D03*
%TD*%
D14*
%TO.N,Vs*%
%TO.C,C47*%
X87015112Y-104290000D03*
D15*
%TO.N,GND*%
X85015112Y-104290000D03*
%TD*%
D12*
%TO.N,Net-(TP1-Pad1)*%
%TO.C,TP1*%
X140500000Y-26000000D03*
%TD*%
%TO.N,+3.3V*%
%TO.C,TP10*%
X27900000Y-97000000D03*
%TD*%
D16*
%TO.N,Vs*%
%TO.C,C3*%
X124400000Y-137867677D03*
D17*
%TO.N,GND*%
X124400000Y-132867677D03*
%TD*%
D12*
%TO.N,Net-(C18-Pad2)*%
%TO.C,TP9*%
X65000000Y-77800000D03*
%TD*%
D25*
%TO.N,Net-(J1-Pad1)*%
%TO.C,J1*%
X154679999Y-104800000D03*
D26*
%TO.N,Net-(J1-Pad2)*%
X151679999Y-104800000D03*
%TO.N,Net-(J1-Pad3)*%
X151679999Y-107800000D03*
%TO.N,Net-(J1-Pad4)*%
X154679999Y-107800000D03*
%TD*%
D14*
%TO.N,Vs*%
%TO.C,C5*%
X78014888Y-142780000D03*
D15*
%TO.N,GND*%
X80014888Y-142780000D03*
%TD*%
D12*
%TO.N,Vs*%
%TO.C,TP5*%
X66560000Y-52190000D03*
%TD*%
%TO.N,Net-(Q7-Pad3)*%
%TO.C,TP7*%
X44000000Y-55600000D03*
%TD*%
D13*
%TO.N,GND*%
%TO.C,U12*%
X91030000Y-54890000D03*
X92280000Y-57490000D03*
X92330000Y-56190000D03*
X93580000Y-58790001D03*
X92280000Y-58790001D03*
X92330000Y-53589999D03*
X93630000Y-54890000D03*
X93580000Y-60090001D03*
X90980000Y-57490000D03*
X93630000Y-53589999D03*
X91030000Y-61390000D03*
X93630000Y-61390000D03*
X93630000Y-62690000D03*
X91030000Y-53589999D03*
X90980000Y-58790001D03*
X92330000Y-62690000D03*
X92330000Y-61390000D03*
X93630000Y-56190000D03*
X93580000Y-57490000D03*
X92280000Y-60090001D03*
X92330000Y-54890000D03*
X91030000Y-62690000D03*
X90980000Y-60090001D03*
X91030000Y-56190000D03*
%TD*%
%TO.N,GND*%
%TO.C,U11*%
X98800000Y-82699999D03*
X97500000Y-90500000D03*
X98800000Y-84000000D03*
X96200000Y-91800000D03*
X96200000Y-85300000D03*
X96150000Y-87900001D03*
X96150000Y-86600000D03*
X98750000Y-86600000D03*
X97450000Y-87900001D03*
X97450000Y-89200001D03*
X98750000Y-89200001D03*
X98800000Y-85300000D03*
X97450000Y-86600000D03*
X97500000Y-85300000D03*
X97500000Y-91800000D03*
X97500000Y-84000000D03*
X98750000Y-87900001D03*
X98800000Y-90500000D03*
X96200000Y-82699999D03*
X98800000Y-91800000D03*
X96200000Y-84000000D03*
X96150000Y-89200001D03*
X97500000Y-82699999D03*
X96200000Y-90500000D03*
%TD*%
D16*
%TO.N,Vs*%
%TO.C,C65*%
X125832323Y-44600000D03*
D17*
%TO.N,GND*%
X130832323Y-44600000D03*
%TD*%
D10*
%TO.N,GND*%
%TO.C,J14*%
X34100000Y-39280000D03*
D11*
%TO.N,/Power Supply/pwr_rx*%
X34100000Y-36740000D03*
%TO.N,+3.3V*%
X34100000Y-34200000D03*
%TO.N,/Power Supply/pwr_tx*%
X34100000Y-31660000D03*
%TD*%
D12*
%TO.N,Net-(R7-Pad2)*%
%TO.C,TP15*%
X89300000Y-159000000D03*
%TD*%
D27*
%TO.N,Net-(Q1-Pad4)*%
X108750000Y-141980000D03*
X104790000Y-144400000D03*
D28*
%TO.N,Vs*%
X124600000Y-129400000D03*
X124980000Y-66360000D03*
X118400000Y-118700000D03*
X117730000Y-87090000D03*
X117800000Y-45400000D03*
X122180000Y-68110000D03*
X120000000Y-146200000D03*
X124400000Y-117750000D03*
X130000000Y-103800000D03*
X119000000Y-57200000D03*
X118800000Y-158900000D03*
X123000000Y-150800000D03*
X120300000Y-136900000D03*
X121730000Y-88940000D03*
X128990000Y-66300000D03*
X124900000Y-148100000D03*
X118600000Y-129400000D03*
X129000000Y-106450000D03*
X118000000Y-150800000D03*
X118000000Y-146200000D03*
X126200000Y-57300000D03*
X124000000Y-148100000D03*
X124030000Y-68110000D03*
X125580000Y-84440000D03*
X129280000Y-76340000D03*
X128000000Y-103800000D03*
X128500000Y-128500000D03*
X118050000Y-105600000D03*
X119050000Y-105600000D03*
X117170000Y-68170000D03*
X123050000Y-105600000D03*
X127990000Y-66300000D03*
X116950000Y-53600000D03*
X123080000Y-67260000D03*
X116730000Y-88040000D03*
X124400000Y-119600000D03*
X119050000Y-104700000D03*
X118000000Y-57200000D03*
X123000000Y-45500000D03*
X123320000Y-75550000D03*
X119730000Y-86190000D03*
X122000000Y-148100000D03*
X117000000Y-146200000D03*
X118000000Y-149000000D03*
X123730000Y-86190000D03*
X118300000Y-137700000D03*
X127200000Y-58200000D03*
X120000000Y-57200000D03*
X120130000Y-67260000D03*
X119300000Y-136900000D03*
X118750000Y-43650000D03*
X117400000Y-117750000D03*
X117800000Y-158900000D03*
X120000000Y-150800000D03*
X117400000Y-118700000D03*
X124900000Y-149900000D03*
X119370000Y-76400000D03*
X117600000Y-128500000D03*
X127990000Y-67200000D03*
X127500000Y-129400000D03*
X117950000Y-53600000D03*
X119000000Y-146200000D03*
X129300000Y-118700000D03*
X125980000Y-67260000D03*
X121000000Y-58100000D03*
X117680000Y-84440000D03*
X121300000Y-137700000D03*
X126300000Y-118700000D03*
X124350000Y-116000000D03*
X119000000Y-55350000D03*
X117320000Y-75550000D03*
X117100000Y-106450000D03*
X121950000Y-54500000D03*
X119950000Y-43750000D03*
X127200000Y-56350000D03*
X124630000Y-88940000D03*
X125300000Y-119600000D03*
X115800000Y-45400000D03*
X124900000Y-146200000D03*
X124260000Y-98300000D03*
X126990000Y-66300000D03*
X117800000Y-160500000D03*
X122000000Y-150800000D03*
X122400000Y-118700000D03*
X120600000Y-129400000D03*
X126950000Y-104700000D03*
X116680000Y-84440000D03*
X119320000Y-75550000D03*
X128040000Y-68050000D03*
X125220000Y-74650000D03*
X123600000Y-128500000D03*
X123730000Y-87090000D03*
X121300000Y-136900000D03*
X125100000Y-106450000D03*
X119320000Y-74650000D03*
X118100000Y-103800000D03*
X117950000Y-54500000D03*
X124630000Y-86190000D03*
X121130000Y-66360000D03*
X121180000Y-68110000D03*
X119800000Y-159700000D03*
X120350000Y-116000000D03*
X124630000Y-88040000D03*
X117600000Y-129400000D03*
X116390000Y-97170000D03*
X121000000Y-146200000D03*
D29*
X62355000Y-48755000D03*
D28*
X128950000Y-104700000D03*
X118370000Y-76400000D03*
X115750000Y-43650000D03*
X125250000Y-116000000D03*
X122000000Y-58100000D03*
X125200000Y-58200000D03*
X122000000Y-44600000D03*
X122400000Y-117750000D03*
X117120000Y-66420000D03*
X128300000Y-119600000D03*
X121000000Y-149000000D03*
X126200000Y-58200000D03*
X118320000Y-74650000D03*
X124270000Y-76400000D03*
X128000000Y-106450000D03*
X121600000Y-128500000D03*
X126300000Y-117750000D03*
X120000000Y-58100000D03*
X116950000Y-54500000D03*
X127500000Y-128500000D03*
X123050000Y-104700000D03*
X122300000Y-136100000D03*
X118050000Y-104700000D03*
X121800000Y-159700000D03*
X124100000Y-106450000D03*
X125200000Y-57300000D03*
X123980000Y-66360000D03*
X117730000Y-88940000D03*
X127200000Y-55450000D03*
X124050000Y-104700000D03*
X122000000Y-56250000D03*
X119800000Y-158900000D03*
X120600000Y-128500000D03*
X117120000Y-67320000D03*
X120800000Y-158900000D03*
X127300000Y-116850000D03*
X122350000Y-115100000D03*
X119000000Y-58100000D03*
X120000000Y-44600000D03*
X121350000Y-115100000D03*
X118320000Y-75550000D03*
X129230000Y-75490000D03*
X124900000Y-150800000D03*
X120300000Y-136100000D03*
X118680000Y-85340000D03*
X123730000Y-88040000D03*
X125250000Y-115100000D03*
X119730000Y-88940000D03*
X129950000Y-104700000D03*
X120680000Y-85340000D03*
X125300000Y-118700000D03*
X120000000Y-55350000D03*
X126050000Y-103850000D03*
X121400000Y-117750000D03*
X120730000Y-88940000D03*
X117370000Y-76400000D03*
X117730000Y-86190000D03*
X121680000Y-84440000D03*
X127280000Y-76340000D03*
X122400000Y-119600000D03*
X130500000Y-128500000D03*
X125050000Y-105600000D03*
X124200000Y-57300000D03*
X119000000Y-56250000D03*
X124400000Y-118700000D03*
X118800000Y-45400000D03*
X118730000Y-87090000D03*
X123200000Y-55450000D03*
X116440000Y-98920000D03*
X121950000Y-53600000D03*
X116320000Y-75550000D03*
X129000000Y-103800000D03*
X125050000Y-104700000D03*
X118950000Y-53600000D03*
X122400000Y-116850000D03*
X126200000Y-56350000D03*
X129300000Y-119600000D03*
X120000000Y-149900000D03*
X126630000Y-87090000D03*
X128950000Y-105600000D03*
X118730000Y-86190000D03*
X122300000Y-137700000D03*
X119680000Y-85340000D03*
X122730000Y-87090000D03*
X129500000Y-129400000D03*
X117000000Y-55350000D03*
X117800000Y-44500000D03*
X120180000Y-68110000D03*
X126580000Y-84440000D03*
X121400000Y-119600000D03*
X116270000Y-68170000D03*
X125260000Y-98300000D03*
X117750000Y-43650000D03*
X116220000Y-67320000D03*
X121000000Y-149900000D03*
X119200000Y-97520000D03*
X118170000Y-68170000D03*
X129040000Y-68050000D03*
X123350000Y-116000000D03*
X121000000Y-56250000D03*
X116800000Y-44500000D03*
X119120000Y-67320000D03*
X117000000Y-57200000D03*
X118000000Y-147100000D03*
X118400000Y-119600000D03*
X119400000Y-117750000D03*
X119000000Y-150800000D03*
X117000000Y-150800000D03*
X119350000Y-116000000D03*
X124000000Y-147100000D03*
X128300000Y-118700000D03*
X118300000Y-136100000D03*
X123260000Y-97400000D03*
X122730000Y-86190000D03*
X124400000Y-116850000D03*
X120200000Y-97520000D03*
X116220000Y-66420000D03*
X119100000Y-103800000D03*
X121200000Y-97520000D03*
X116800000Y-45400000D03*
X128990000Y-67200000D03*
X128280000Y-76340000D03*
X117390000Y-98070000D03*
X120800000Y-160500000D03*
X117800000Y-159700000D03*
X121730000Y-87090000D03*
X118390000Y-97170000D03*
X122000000Y-146200000D03*
X123000000Y-147100000D03*
X125050000Y-103850000D03*
X128230000Y-74590000D03*
X118000000Y-149900000D03*
X116370000Y-76400000D03*
X130500000Y-129400000D03*
X116730000Y-87090000D03*
X116750000Y-43650000D03*
X127300000Y-119600000D03*
X126030000Y-68110000D03*
X123400000Y-118700000D03*
X131400000Y-129400000D03*
X121130000Y-67260000D03*
X120950000Y-53600000D03*
X125260000Y-97400000D03*
X124600000Y-128500000D03*
X122680000Y-84440000D03*
X124000000Y-149900000D03*
X119950000Y-53600000D03*
X121730000Y-86190000D03*
X126580000Y-85340000D03*
X128500000Y-129400000D03*
X121400000Y-116850000D03*
X117730000Y-88040000D03*
X125630000Y-87090000D03*
X117440000Y-98920000D03*
X131400000Y-128500000D03*
X117000000Y-58100000D03*
X128300000Y-116850000D03*
X117390000Y-97170000D03*
X125500000Y-129400000D03*
X117350000Y-116000000D03*
X121800000Y-158900000D03*
X123100000Y-106450000D03*
X117320000Y-74650000D03*
X118000000Y-58100000D03*
D27*
X87400000Y-145925499D03*
D28*
X118390000Y-98070000D03*
X117050000Y-104700000D03*
X126630000Y-86190000D03*
X122310000Y-97490000D03*
X118730000Y-88940000D03*
X120350000Y-115100000D03*
X117400000Y-119600000D03*
X126000000Y-106450000D03*
X118000000Y-56250000D03*
X124260000Y-97400000D03*
X118600000Y-128500000D03*
X121000000Y-55350000D03*
X118120000Y-66420000D03*
D27*
X84100000Y-140300000D03*
D28*
X122000000Y-45500000D03*
X124580000Y-85340000D03*
X123200000Y-56350000D03*
X118100000Y-106450000D03*
X118950000Y-54500000D03*
X125580000Y-85340000D03*
X115800000Y-44500000D03*
X125950000Y-104700000D03*
X116000000Y-55350000D03*
X126370000Y-98270000D03*
X122600000Y-128500000D03*
X130000000Y-106450000D03*
X125220000Y-75550000D03*
X123680000Y-84440000D03*
X118730000Y-88040000D03*
X122730000Y-88040000D03*
X120300000Y-137700000D03*
X115950000Y-54500000D03*
X127000000Y-106450000D03*
X121400000Y-118700000D03*
X124200000Y-55450000D03*
X127150000Y-53700000D03*
X119170000Y-68170000D03*
X125300000Y-117750000D03*
X126950000Y-105600000D03*
X121800000Y-160500000D03*
X126270000Y-76400000D03*
X129250000Y-115100000D03*
X127250000Y-116000000D03*
X127300000Y-118700000D03*
X116730000Y-86190000D03*
X127950000Y-104700000D03*
X122350000Y-116000000D03*
X119400000Y-118700000D03*
X123680000Y-85340000D03*
X121730000Y-88040000D03*
X120950000Y-54500000D03*
X117000000Y-148100000D03*
X119730000Y-87090000D03*
X119400000Y-116850000D03*
X125270000Y-76400000D03*
X127040000Y-68050000D03*
X126990000Y-67200000D03*
X123000000Y-146200000D03*
X127230000Y-75490000D03*
X118400000Y-117750000D03*
X117000000Y-147100000D03*
X120400000Y-118700000D03*
X126300000Y-116850000D03*
X128250000Y-115100000D03*
X125980000Y-66360000D03*
X119300000Y-137700000D03*
X124200000Y-56350000D03*
X123000000Y-44600000D03*
X124220000Y-74650000D03*
X123600000Y-129400000D03*
X127200000Y-57300000D03*
X120000000Y-45500000D03*
X118350000Y-115100000D03*
X126220000Y-75550000D03*
X116000000Y-56250000D03*
X122950000Y-43750000D03*
X125300000Y-116850000D03*
X124200000Y-58200000D03*
X122130000Y-66360000D03*
X124000000Y-45500000D03*
X127300000Y-117750000D03*
X121000000Y-44600000D03*
X118120000Y-67320000D03*
X119800000Y-160500000D03*
X126150000Y-53700000D03*
X121000000Y-148100000D03*
X121680000Y-85340000D03*
X120730000Y-86190000D03*
X124350000Y-115100000D03*
X126500000Y-129400000D03*
X119350000Y-115100000D03*
X120680000Y-84440000D03*
X129950000Y-105600000D03*
X119300000Y-136100000D03*
X117000000Y-56250000D03*
X123320000Y-74650000D03*
X123980000Y-67260000D03*
X126220000Y-74650000D03*
X124000000Y-146200000D03*
X121000000Y-57200000D03*
X125500000Y-128500000D03*
X120000000Y-147100000D03*
X123150000Y-54600000D03*
X118800000Y-159700000D03*
X123950000Y-43750000D03*
X119000000Y-148100000D03*
X123200000Y-58200000D03*
X123730000Y-88940000D03*
X122730000Y-88940000D03*
X120130000Y-66360000D03*
X126250000Y-116000000D03*
X119680000Y-84440000D03*
X119000000Y-149000000D03*
X125950000Y-105600000D03*
X122000000Y-149900000D03*
X115950000Y-53600000D03*
X123050000Y-103850000D03*
X124900000Y-147100000D03*
X120000000Y-149000000D03*
X124000000Y-44600000D03*
X121950000Y-43750000D03*
X120950000Y-43750000D03*
X118000000Y-148100000D03*
X124310000Y-99150000D03*
X119000000Y-149900000D03*
X123350000Y-115100000D03*
X122000000Y-147100000D03*
X122000000Y-149000000D03*
X123000000Y-149000000D03*
X127000000Y-103800000D03*
X125200000Y-56350000D03*
X118800000Y-160500000D03*
X117350000Y-115100000D03*
X119000000Y-147100000D03*
X123370000Y-76400000D03*
X123400000Y-117750000D03*
X129300000Y-116850000D03*
X117400000Y-116850000D03*
X116320000Y-74650000D03*
X122000000Y-55350000D03*
X120400000Y-117750000D03*
X118350000Y-116000000D03*
X125150000Y-53700000D03*
X129250000Y-116000000D03*
X124630000Y-87090000D03*
X127230000Y-74590000D03*
X118800000Y-44500000D03*
X120800000Y-159700000D03*
X122000000Y-57200000D03*
X119120000Y-66420000D03*
X122680000Y-85340000D03*
X116730000Y-88940000D03*
X117050000Y-105600000D03*
X123000000Y-149900000D03*
X119600000Y-129400000D03*
X119600000Y-128500000D03*
X124050000Y-103850000D03*
X125150000Y-54600000D03*
X122300000Y-136900000D03*
X121000000Y-45500000D03*
X123130000Y-68110000D03*
X125200000Y-55450000D03*
X124980000Y-67260000D03*
X116000000Y-57200000D03*
X117000000Y-149000000D03*
X124150000Y-54600000D03*
X125310000Y-99150000D03*
X128300000Y-117750000D03*
X118440000Y-98920000D03*
X116000000Y-58100000D03*
X121350000Y-116000000D03*
X123400000Y-119600000D03*
X126200000Y-55450000D03*
X127950000Y-105600000D03*
X117000000Y-149900000D03*
X125030000Y-68110000D03*
X124900000Y-149000000D03*
X120400000Y-116850000D03*
X120400000Y-119600000D03*
X116390000Y-98070000D03*
X128250000Y-116000000D03*
X123400000Y-116850000D03*
X117100000Y-103800000D03*
X118400000Y-116850000D03*
X119100000Y-106450000D03*
X119950000Y-54500000D03*
X117680000Y-85340000D03*
X127150000Y-54600000D03*
X118300000Y-136900000D03*
X124220000Y-75550000D03*
X120730000Y-87090000D03*
X118680000Y-84440000D03*
X129500000Y-128500000D03*
X116680000Y-85340000D03*
X126150000Y-54600000D03*
X120000000Y-148100000D03*
X124000000Y-149000000D03*
X122600000Y-129400000D03*
X120000000Y-56250000D03*
X126300000Y-119600000D03*
X128230000Y-75490000D03*
X121000000Y-150800000D03*
X119400000Y-119600000D03*
X121300000Y-136100000D03*
X124050000Y-105600000D03*
X118000000Y-55350000D03*
X123080000Y-66360000D03*
X125630000Y-86190000D03*
X123260000Y-98300000D03*
X126500000Y-128500000D03*
X123000000Y-148100000D03*
X119730000Y-88040000D03*
X129300000Y-117750000D03*
X124150000Y-53700000D03*
X120730000Y-88040000D03*
X127250000Y-115100000D03*
X129230000Y-74590000D03*
X121000000Y-147100000D03*
X123200000Y-57300000D03*
X126370000Y-97370000D03*
X124000000Y-150800000D03*
X122130000Y-67260000D03*
X124580000Y-84440000D03*
X123150000Y-53700000D03*
X121600000Y-129400000D03*
X126250000Y-115100000D03*
X123310000Y-99150000D03*
X126420000Y-99120000D03*
%TO.N,Net-(J1-Pad1)*%
X116400000Y-140900000D03*
X119400000Y-140900000D03*
X117400000Y-140900000D03*
X108700000Y-136400000D03*
X108700000Y-137100000D03*
X120400000Y-140000000D03*
X108000000Y-137100000D03*
X118400000Y-140000000D03*
X107300000Y-136400000D03*
X117400000Y-140000000D03*
X120400000Y-140900000D03*
X118400000Y-140900000D03*
X119400000Y-140000000D03*
X107300000Y-137100000D03*
X108000000Y-136400000D03*
X116400000Y-140000000D03*
%TO.N,Net-(J1-Pad2)*%
X117500000Y-143200000D03*
X107100000Y-146400000D03*
X120500000Y-143200000D03*
X116500000Y-144100000D03*
X107100000Y-145700000D03*
X119500000Y-144100000D03*
X107800000Y-146400000D03*
X108500000Y-146400000D03*
X119500000Y-143200000D03*
X117500000Y-144100000D03*
X120500000Y-144100000D03*
X118500000Y-144100000D03*
X108500000Y-145700000D03*
X107800000Y-145700000D03*
X116500000Y-143200000D03*
X118500000Y-143200000D03*
D27*
%TO.N,Net-(C24-Pad1)*%
X46000000Y-84400000D03*
X48100000Y-81300000D03*
D28*
%TO.N,Net-(J1-Pad4)*%
X106900000Y-158400000D03*
X117800000Y-157100000D03*
X116800000Y-156200000D03*
X116800000Y-157100000D03*
X108300000Y-159100000D03*
X120800000Y-157100000D03*
X106900000Y-159100000D03*
X119800000Y-156200000D03*
X120800000Y-156200000D03*
X107600000Y-158400000D03*
X118800000Y-156200000D03*
X119800000Y-157100000D03*
X108300000Y-158400000D03*
D27*
X96500000Y-153250000D03*
D28*
X117800000Y-156200000D03*
X118800000Y-157100000D03*
X107600000Y-159100000D03*
%TO.N,Net-(J1-Pad3)*%
X107300000Y-150000000D03*
X119800000Y-152700000D03*
X117800000Y-153600000D03*
X118800000Y-153600000D03*
X120800000Y-153600000D03*
X108000000Y-150000000D03*
X118800000Y-152700000D03*
X106600000Y-149300000D03*
X116800000Y-153600000D03*
X119800000Y-153600000D03*
X116800000Y-152700000D03*
X120800000Y-152700000D03*
X107300000Y-149300000D03*
X106600000Y-150000000D03*
X117800000Y-152700000D03*
X108000000Y-149300000D03*
%TO.N,GND*%
X98330000Y-70630000D03*
X126350000Y-70660000D03*
X116600000Y-133400000D03*
D29*
X108600000Y-41800000D03*
D28*
X126350000Y-69860000D03*
X109430000Y-70740000D03*
X109000000Y-162000000D03*
X110600000Y-132600000D03*
X113600000Y-133400000D03*
X126970000Y-101910000D03*
X102330000Y-69830000D03*
D27*
X43350000Y-112750000D03*
D28*
X109430000Y-69940000D03*
X97330000Y-69830000D03*
X111600000Y-131800000D03*
X98330000Y-69830000D03*
X111430000Y-71540000D03*
X114320000Y-101790000D03*
X99330000Y-69830000D03*
X113430000Y-70740000D03*
X129700000Y-132500000D03*
X117320000Y-100190000D03*
X128700000Y-131700000D03*
X110430000Y-69940000D03*
X125970000Y-100310000D03*
X109600000Y-133400000D03*
X129320000Y-72330000D03*
X97330000Y-70630000D03*
X127350000Y-70660000D03*
X125970000Y-101110000D03*
X101330000Y-71430000D03*
X128700000Y-133300000D03*
D27*
X99578200Y-134223800D03*
D28*
X127970000Y-101110000D03*
X111430000Y-70740000D03*
D27*
X43700000Y-126550000D03*
D28*
X120600000Y-131800000D03*
D30*
X26200000Y-28600000D03*
D27*
X81700000Y-145900000D03*
D28*
X115400000Y-72410000D03*
X124350000Y-71460000D03*
X113600000Y-131800000D03*
X128350000Y-70660000D03*
X110430000Y-70740000D03*
D30*
X73340000Y-154620000D03*
D28*
X116320000Y-100990000D03*
X110430000Y-71540000D03*
X115430000Y-69940000D03*
X130970000Y-101110000D03*
X112430000Y-69940000D03*
X128350000Y-69860000D03*
X114000000Y-162800000D03*
X114320000Y-100990000D03*
X121600000Y-131800000D03*
X103330000Y-70630000D03*
X129700000Y-131700000D03*
X114430000Y-71540000D03*
D27*
X30100100Y-144899900D03*
D28*
X125350000Y-71460000D03*
D30*
X69022000Y-166304000D03*
D28*
X112320000Y-100190000D03*
X131610000Y-99290000D03*
D30*
X57750000Y-40750000D03*
D28*
X111000000Y-162000000D03*
D30*
X77250000Y-42250000D03*
D28*
X127350000Y-69860000D03*
X99330000Y-70630000D03*
X128970000Y-100310000D03*
X130970000Y-100310000D03*
D27*
X84516000Y-50266000D03*
X97220000Y-67340000D03*
D29*
X48962500Y-95362500D03*
D28*
X118000000Y-162000000D03*
X117600000Y-132600000D03*
X126970000Y-101110000D03*
X127320000Y-72330000D03*
D30*
X71100000Y-66100000D03*
D28*
X100330000Y-71430000D03*
X112320000Y-100990000D03*
X109320000Y-100190000D03*
X124970000Y-101910000D03*
X109600000Y-132600000D03*
X103330000Y-69830000D03*
X97300000Y-72300000D03*
X119600000Y-131800000D03*
X119600000Y-133400000D03*
X118000000Y-163600000D03*
D27*
X66200000Y-70800000D03*
D28*
X131610000Y-98490000D03*
X130700000Y-133300000D03*
X110320000Y-100990000D03*
X131700000Y-133300000D03*
X127700000Y-133300000D03*
D30*
X64704000Y-168590000D03*
D28*
X111320000Y-100190000D03*
X114320000Y-100190000D03*
X100300000Y-72300000D03*
D27*
X22750000Y-31250000D03*
D28*
X125970000Y-101910000D03*
X118600000Y-133400000D03*
D30*
X84940000Y-110480000D03*
D28*
X112430000Y-70740000D03*
X117320000Y-100990000D03*
X115600000Y-132600000D03*
X124970000Y-101110000D03*
X108600000Y-132600000D03*
D27*
X28900000Y-152300000D03*
D28*
X122970000Y-101910000D03*
X126320000Y-72330000D03*
X116000000Y-163600000D03*
X109000000Y-162800000D03*
D27*
X54462500Y-148962500D03*
D28*
X115320000Y-100990000D03*
D27*
X38650000Y-117100000D03*
D28*
X113430000Y-71540000D03*
X100330000Y-70630000D03*
X113000000Y-162000000D03*
X123350000Y-69860000D03*
X126700000Y-132500000D03*
X119320000Y-100990000D03*
X115430000Y-71540000D03*
X115000000Y-162800000D03*
X112000000Y-162800000D03*
D27*
X126700000Y-150100000D03*
D28*
X114000000Y-163600000D03*
X129350000Y-70660000D03*
X99330000Y-71430000D03*
D27*
X51000000Y-44800000D03*
D28*
X127350000Y-71460000D03*
D30*
X48360000Y-99490000D03*
D28*
X131700000Y-132500000D03*
X109430000Y-71540000D03*
X102330000Y-71430000D03*
X121600000Y-132600000D03*
X130700000Y-132500000D03*
D27*
X70212500Y-126037500D03*
D28*
X112600000Y-131800000D03*
D29*
X44800000Y-44200000D03*
D28*
X109320000Y-101790000D03*
X123970000Y-100310000D03*
D30*
X53500000Y-26000000D03*
D28*
X113000000Y-163600000D03*
X126700000Y-131700000D03*
D30*
X120250000Y-29250000D03*
D28*
X127970000Y-101910000D03*
D27*
X78500000Y-55500000D03*
D28*
X102330000Y-70630000D03*
X130700000Y-131700000D03*
D27*
X85712500Y-124394000D03*
D28*
X113600000Y-132600000D03*
X128320000Y-72330000D03*
X123350000Y-71460000D03*
D30*
X87750000Y-27250000D03*
D28*
X129970000Y-100310000D03*
D27*
X51000000Y-79200000D03*
D28*
X130970000Y-101910000D03*
X127700000Y-131700000D03*
X117000000Y-162000000D03*
D27*
X30900500Y-103798500D03*
X144886200Y-158786200D03*
D28*
X128970000Y-101110000D03*
X119600000Y-132600000D03*
D30*
X36500000Y-26600000D03*
D28*
X114600000Y-132600000D03*
X98330000Y-71430000D03*
X115320000Y-101790000D03*
X121600000Y-133400000D03*
D27*
X59300000Y-89700000D03*
X83500000Y-133250000D03*
X78500000Y-129450000D03*
X53000000Y-77200000D03*
D28*
X123320000Y-72330000D03*
X110320000Y-100190000D03*
X117000000Y-163600000D03*
D27*
X40732750Y-170018750D03*
D28*
X101330000Y-69830000D03*
X116000000Y-162000000D03*
D27*
X46924000Y-158430000D03*
D28*
X123970000Y-101110000D03*
D30*
X57846000Y-160970000D03*
D28*
X99300000Y-72300000D03*
X117600000Y-131800000D03*
X125320000Y-72330000D03*
D27*
X52550000Y-118800000D03*
D28*
X115000000Y-162000000D03*
X114400000Y-72410000D03*
X101300000Y-72300000D03*
D30*
X72853475Y-32678475D03*
D28*
X112430000Y-71540000D03*
X124970000Y-100310000D03*
X118600000Y-131800000D03*
X122970000Y-100310000D03*
D27*
X98200000Y-121300000D03*
X83060000Y-83720000D03*
D28*
X115600000Y-133400000D03*
X120600000Y-132600000D03*
X101330000Y-70630000D03*
X119320000Y-100190000D03*
X108600000Y-131800000D03*
X128700000Y-132500000D03*
X103330000Y-71430000D03*
X111400000Y-72410000D03*
X111320000Y-100990000D03*
X115430000Y-70740000D03*
X129700000Y-133300000D03*
X129970000Y-101110000D03*
X118320000Y-100190000D03*
X124350000Y-69860000D03*
X112400000Y-72410000D03*
X118320000Y-101790000D03*
X129970000Y-101910000D03*
D27*
X77500000Y-133250000D03*
X46900000Y-113150000D03*
D28*
X114430000Y-69940000D03*
D30*
X45800000Y-42600000D03*
D28*
X113000000Y-162800000D03*
X127970000Y-100310000D03*
X110320000Y-101790000D03*
X128970000Y-101910000D03*
X110400000Y-72410000D03*
X125350000Y-69860000D03*
D29*
X41100000Y-99100000D03*
D28*
X122970000Y-101110000D03*
X116320000Y-100190000D03*
X111430000Y-69940000D03*
X109600000Y-131800000D03*
X120600000Y-133400000D03*
X97330000Y-71430000D03*
D27*
X51000000Y-77200000D03*
D28*
X116320000Y-101790000D03*
D27*
X96630000Y-94480000D03*
D28*
X116000000Y-162800000D03*
X103300000Y-72300000D03*
X118600000Y-132600000D03*
X112600000Y-132600000D03*
X112000000Y-163600000D03*
X110000000Y-162800000D03*
X100330000Y-69830000D03*
D27*
X50500000Y-52750000D03*
D28*
X109400000Y-72410000D03*
X114600000Y-131800000D03*
X114600000Y-133400000D03*
X111600000Y-133400000D03*
D27*
X28890000Y-118806000D03*
X47940000Y-123886000D03*
D28*
X114430000Y-70740000D03*
X110600000Y-131800000D03*
X113400000Y-72410000D03*
X113320000Y-100990000D03*
D30*
X57911999Y-159257999D03*
D28*
X126350000Y-71460000D03*
X113430000Y-69940000D03*
X111320000Y-101790000D03*
X110600000Y-133400000D03*
X126700000Y-133300000D03*
X124320000Y-72330000D03*
X109320000Y-100990000D03*
X114000000Y-162000000D03*
X126970000Y-100310000D03*
X123970000Y-101910000D03*
X115000000Y-163600000D03*
X119320000Y-101790000D03*
D27*
X132600000Y-150700000D03*
D28*
X118320000Y-100990000D03*
X117000000Y-162800000D03*
X111000000Y-163600000D03*
X128350000Y-71460000D03*
X112320000Y-101790000D03*
X125350000Y-70660000D03*
X123350000Y-70660000D03*
X108600000Y-133400000D03*
X110000000Y-163600000D03*
X116600000Y-132600000D03*
X111000000Y-162800000D03*
X127700000Y-132500000D03*
D27*
X53000000Y-79200000D03*
D28*
X110000000Y-162000000D03*
X115600000Y-131800000D03*
X111600000Y-132600000D03*
X117600000Y-133400000D03*
X112000000Y-162000000D03*
X115320000Y-100190000D03*
D27*
X57000000Y-85800000D03*
D28*
X118000000Y-162800000D03*
X129350000Y-69860000D03*
D27*
X24750000Y-39500000D03*
D28*
X113320000Y-101790000D03*
X131700000Y-131700000D03*
X112600000Y-133400000D03*
X109000000Y-163600000D03*
X102300000Y-72300000D03*
X117320000Y-101790000D03*
D27*
X84492000Y-156608000D03*
D28*
X129350000Y-71460000D03*
D27*
X34732000Y-161224000D03*
D28*
X113320000Y-100190000D03*
X131610000Y-97690000D03*
X116600000Y-131800000D03*
D27*
X89330000Y-78910000D03*
D28*
X98300000Y-72300000D03*
D27*
X30922000Y-171130000D03*
X70600000Y-51900000D03*
D28*
X124350000Y-70660000D03*
D27*
X61773800Y-97099999D03*
%TO.N,/MotorDriver0/enable*%
X76750000Y-128500000D03*
X90000000Y-139250000D03*
D30*
X90650000Y-113900000D03*
X77075000Y-111645000D03*
D27*
X81250001Y-86249999D03*
X82250000Y-140000000D03*
X79000000Y-58250000D03*
X90000000Y-128500000D03*
D31*
%TO.N,/Power Supply/Vdd*%
X104500000Y-30100000D03*
D29*
X70400000Y-56800000D03*
D31*
X72253975Y-26324500D03*
D27*
%TO.N,Net-(Q3-Pad4)*%
X108250000Y-153750000D03*
X102250000Y-149750000D03*
D30*
%TO.N,Net-(Q2-Pad4)*%
X98670000Y-146870000D03*
X109710000Y-148490000D03*
%TO.N,/Power Supply/Vin*%
X125500000Y-25250000D03*
X138300000Y-25300000D03*
X73000000Y-64500000D03*
%TO.N,Net-(TP1-Pad1)*%
X124500000Y-27000000D03*
D27*
%TO.N,/Power Supply/en*%
X51800000Y-72600000D03*
X54140000Y-67150000D03*
%TO.N,+5V*%
X135540000Y-148371099D03*
X51700000Y-92600000D03*
D30*
X61344000Y-172850000D03*
D29*
X58330000Y-34730000D03*
D27*
X76570000Y-34730000D03*
X55000000Y-47099500D03*
X82037500Y-121912500D03*
X53750000Y-42000000D03*
X89450000Y-121900000D03*
D29*
X76000000Y-92600000D03*
D27*
X65434000Y-92666000D03*
X48500000Y-37750000D03*
D29*
X23300000Y-92600000D03*
D27*
X135800000Y-151300000D03*
X76000000Y-121900000D03*
X61400000Y-92600000D03*
D29*
X138400000Y-170850000D03*
D27*
%TO.N,/Power Supply/shunt*%
X53000000Y-46800000D03*
X51600000Y-37800000D03*
D30*
%TO.N,/Power Supply/vin_ref*%
X111750000Y-25250000D03*
X61750000Y-33000000D03*
%TO.N,/Power Supply/vout_ref*%
X50750000Y-34000000D03*
X51500000Y-43000000D03*
%TO.N,/Power Supply/pwr_rx*%
X63900000Y-33000000D03*
D27*
X30200000Y-30400000D03*
D30*
%TO.N,/Power Supply/enable*%
X54725000Y-24975000D03*
X120250000Y-28000000D03*
%TO.N,/Power Supply/imon*%
X57455000Y-39045000D03*
X75750000Y-38750000D03*
D27*
%TO.N,Net-(R18-Pad2)*%
X32250000Y-29250000D03*
X40500000Y-34789500D03*
%TO.N,Net-(C25-Pad2)*%
X49600000Y-77000000D03*
X43200000Y-76400000D03*
D28*
%TO.N,+3.3V*%
X32400000Y-152900000D03*
D27*
X58000000Y-115250000D03*
D28*
X24700000Y-97100000D03*
X31600000Y-152900000D03*
X41600000Y-96400000D03*
D27*
X39250000Y-73250000D03*
D28*
X25500000Y-97100000D03*
X23100000Y-99500000D03*
X40600000Y-121800000D03*
X42200000Y-121000000D03*
X40000000Y-101100000D03*
X24300000Y-148200000D03*
D27*
X69488099Y-115539584D03*
D28*
X39200000Y-101900000D03*
X22300000Y-96300000D03*
X40800000Y-102700000D03*
X33200000Y-152900000D03*
X26300000Y-97900000D03*
X24300000Y-146600000D03*
X23900000Y-99500000D03*
X40800000Y-101900000D03*
X46900000Y-141300000D03*
X23900000Y-98700000D03*
X42200000Y-121800000D03*
X48500000Y-142900000D03*
X25500000Y-98700000D03*
X31600000Y-152100000D03*
X25500000Y-97900000D03*
D27*
X31430000Y-114234000D03*
D28*
X22300000Y-99500000D03*
X22700000Y-148200000D03*
X46900000Y-142100000D03*
X47700000Y-142900000D03*
X22700000Y-147400000D03*
X33200000Y-152100000D03*
X22300000Y-98700000D03*
X26300000Y-98700000D03*
X39200000Y-102700000D03*
X23500000Y-146600000D03*
D27*
X46670000Y-122870000D03*
D28*
X23100000Y-97100000D03*
X26300000Y-96300000D03*
X40000000Y-96400000D03*
X40000000Y-102700000D03*
X22300000Y-97100000D03*
X33200000Y-151300000D03*
D27*
X43250000Y-114250000D03*
X51092595Y-119164594D03*
D28*
X41400000Y-122600000D03*
D27*
X49210000Y-107376000D03*
D28*
X40800000Y-97200000D03*
X40800000Y-96400000D03*
X23100000Y-96300000D03*
X42200000Y-122600000D03*
X41600000Y-97200000D03*
D27*
X56690000Y-140000000D03*
D28*
X24700000Y-97900000D03*
X40000000Y-95600000D03*
X23900000Y-97100000D03*
X47700000Y-141300000D03*
X41400000Y-121800000D03*
X40800000Y-95600000D03*
X23900000Y-96300000D03*
D27*
X41250000Y-65250000D03*
D28*
X23100000Y-97900000D03*
X26300000Y-97100000D03*
X46900000Y-142900000D03*
X26300000Y-99500000D03*
X23500000Y-148200000D03*
X47700000Y-142100000D03*
D27*
X70250000Y-140000000D03*
D28*
X41400000Y-121000000D03*
X23900000Y-97900000D03*
X48500000Y-142100000D03*
X40600000Y-121000000D03*
D27*
X42606000Y-132014000D03*
D28*
X22300000Y-97900000D03*
X25500000Y-96300000D03*
X32400000Y-151300000D03*
D27*
X41250000Y-59750000D03*
D28*
X24700000Y-96300000D03*
X24700000Y-98700000D03*
D27*
X72450000Y-97480000D03*
D28*
X48500000Y-141300000D03*
X24300000Y-147400000D03*
X31600000Y-151300000D03*
X22700000Y-146600000D03*
X32400000Y-152100000D03*
X40600000Y-122600000D03*
X40800000Y-101100000D03*
X24700000Y-99500000D03*
X40000000Y-97200000D03*
X40000000Y-101900000D03*
X23500000Y-147400000D03*
X41600000Y-95600000D03*
X39200000Y-101100000D03*
X23100000Y-98700000D03*
X25500000Y-99500000D03*
D27*
%TO.N,/Microprocessor/stall_3*%
X41600000Y-132700000D03*
X33100000Y-122700000D03*
%TO.N,/Microprocessor/stall_1*%
X69550000Y-120950000D03*
X37950000Y-119175500D03*
D30*
%TO.N,/Microprocessor/stall_2*%
X44230000Y-103221590D03*
X43755000Y-116275000D03*
X68860000Y-102980000D03*
X33560000Y-116480000D03*
D28*
%TO.N,Net-(J7-Pad1)*%
X119450000Y-108600000D03*
X124450000Y-109500000D03*
X122450000Y-109500000D03*
X107050000Y-104700000D03*
X117850000Y-109000000D03*
X107800000Y-105500000D03*
X126350000Y-108600000D03*
X123450000Y-109500000D03*
X129350000Y-108600000D03*
X125350000Y-109500000D03*
X120450000Y-108600000D03*
X118450000Y-108600000D03*
X122450000Y-108600000D03*
X121450000Y-108600000D03*
X118450000Y-109500000D03*
X120450000Y-109500000D03*
X119450000Y-109500000D03*
X128850000Y-109000000D03*
X128350000Y-109500000D03*
X125350000Y-108600000D03*
X127350000Y-108600000D03*
X123450000Y-108600000D03*
X128350000Y-108600000D03*
X117150000Y-109500000D03*
X124450000Y-108600000D03*
X108650000Y-104700000D03*
X108668696Y-106112034D03*
X129350000Y-109500000D03*
X121450000Y-109500000D03*
X127350000Y-109500000D03*
X117150000Y-108600000D03*
X107050000Y-106100000D03*
X126350000Y-109500000D03*
%TO.N,Net-(J7-Pad2)*%
X121500000Y-112250000D03*
X120500000Y-113150000D03*
X123500000Y-113150000D03*
X126400000Y-113150000D03*
X119500000Y-112250000D03*
X119500000Y-113150000D03*
X128400000Y-112250000D03*
X129400000Y-112250000D03*
X107950000Y-115300000D03*
X129400000Y-113150000D03*
X107950000Y-114400000D03*
X122500000Y-113150000D03*
X118500000Y-113150000D03*
X120500000Y-112250000D03*
X121500000Y-113150000D03*
X124500000Y-112250000D03*
X108950000Y-115300000D03*
X108950000Y-114450000D03*
X127400000Y-113150000D03*
X117900000Y-112650000D03*
X123500000Y-112250000D03*
X118500000Y-112250000D03*
X128900000Y-112650000D03*
X125400000Y-113150000D03*
X127400000Y-112250000D03*
X117200000Y-113150000D03*
X117200000Y-112250000D03*
X125400000Y-112250000D03*
X124500000Y-113150000D03*
X122500000Y-112250000D03*
X128400000Y-113150000D03*
X108450000Y-114850000D03*
X126400000Y-112250000D03*
%TO.N,Net-(J7-Pad3)*%
X108950000Y-119100000D03*
X128600000Y-122300000D03*
X118200000Y-122800000D03*
X129100000Y-121900000D03*
X123200000Y-121900000D03*
X122200000Y-121900000D03*
X125100000Y-121900000D03*
X120200000Y-121900000D03*
X127100000Y-122800000D03*
D27*
X103100000Y-114600000D03*
D28*
X116900000Y-122800000D03*
X128100000Y-121900000D03*
X127100000Y-121900000D03*
X116900000Y-121900000D03*
X122200000Y-122800000D03*
X107700000Y-118000000D03*
X126100000Y-121900000D03*
X123200000Y-122800000D03*
X129100000Y-122800000D03*
X124200000Y-122800000D03*
X125100000Y-122800000D03*
X121200000Y-122800000D03*
X108900000Y-118150000D03*
X121200000Y-121900000D03*
X117600000Y-122300000D03*
X107700000Y-119100000D03*
X120200000Y-122800000D03*
X124200000Y-121900000D03*
X128100000Y-122800000D03*
X119200000Y-121900000D03*
X108300000Y-118650000D03*
X126100000Y-122800000D03*
X118200000Y-121900000D03*
X119200000Y-122800000D03*
%TO.N,Net-(J7-Pad4)*%
X119600000Y-126200000D03*
X129500000Y-125300000D03*
X128500000Y-126200000D03*
X117300000Y-125300000D03*
X126500000Y-125300000D03*
X126500000Y-126200000D03*
X124600000Y-126200000D03*
X127500000Y-126200000D03*
X108900000Y-127500000D03*
X127500000Y-125300000D03*
X122600000Y-125300000D03*
X121600000Y-126200000D03*
X118600000Y-125300000D03*
X129000000Y-125700000D03*
X121600000Y-125300000D03*
X120600000Y-126200000D03*
X124600000Y-125300000D03*
X123600000Y-125300000D03*
X119600000Y-125300000D03*
X120600000Y-125300000D03*
X108900000Y-128200000D03*
X118600000Y-126200000D03*
X129500000Y-126200000D03*
X125500000Y-126200000D03*
X125500000Y-125300000D03*
X108200000Y-128200000D03*
X123600000Y-126200000D03*
X128500000Y-125300000D03*
D27*
X101950000Y-119550000D03*
D28*
X117300000Y-126200000D03*
X118000000Y-125700000D03*
X108200000Y-127500000D03*
X122600000Y-126200000D03*
D27*
%TO.N,Net-(Q11-Pad2)*%
X108665000Y-120065000D03*
X102300000Y-115700000D03*
%TO.N,Net-(Q11-Pad3)*%
X108300000Y-121400000D03*
X104000000Y-117000000D03*
%TO.N,Net-(Q11-Pad4)*%
X104824500Y-121650000D03*
X109000000Y-123500000D03*
%TO.N,Net-(Q12-Pad4)*%
X104400000Y-109160000D03*
X110260000Y-110740000D03*
D30*
%TO.N,Net-(Q1-Pad3)*%
X98130000Y-145240000D03*
X102980000Y-140390000D03*
D27*
%TO.N,Net-(Q14-Pad4)*%
X108700000Y-116550000D03*
X102600000Y-112950000D03*
%TO.N,/Microprocessor/drv_fault*%
X81600000Y-94900000D03*
D30*
X90440000Y-100860000D03*
D27*
X74790000Y-117320000D03*
X90386990Y-94806990D03*
X76400000Y-66900000D03*
X80500000Y-89300000D03*
X81780000Y-117140000D03*
D30*
X74860000Y-106190000D03*
D27*
%TO.N,Net-(R42-Pad2)*%
X72050000Y-121100000D03*
D28*
%TO.N,Net-(J8-Pad1)*%
X107970000Y-75050000D03*
X116410000Y-78660000D03*
X124410000Y-78660000D03*
X118410000Y-78660000D03*
X122430000Y-79440000D03*
X121410000Y-77860000D03*
X108430000Y-74500000D03*
X107580000Y-75640000D03*
X127400000Y-79420000D03*
X126410000Y-78660000D03*
X125430000Y-79440000D03*
X126410000Y-77860000D03*
X121430000Y-79440000D03*
X125410000Y-78660000D03*
X128380000Y-77840000D03*
X107560000Y-74570000D03*
X122410000Y-77860000D03*
X119410000Y-77860000D03*
X117430000Y-79440000D03*
X121410000Y-78660000D03*
X117410000Y-78660000D03*
X116430000Y-79440000D03*
X120410000Y-77860000D03*
X127380000Y-77840000D03*
X124430000Y-79440000D03*
X122410000Y-78660000D03*
X120410000Y-78660000D03*
X123410000Y-77860000D03*
X123410000Y-78660000D03*
X118410000Y-77860000D03*
X128380000Y-78640000D03*
X125410000Y-77860000D03*
X128400000Y-79420000D03*
X127380000Y-78640000D03*
X124410000Y-77860000D03*
X108480000Y-75600000D03*
X120430000Y-79440000D03*
X117410000Y-77860000D03*
X116410000Y-77860000D03*
X118430000Y-79440000D03*
X123430000Y-79440000D03*
X126430000Y-79440000D03*
X119430000Y-79440000D03*
X119410000Y-78660000D03*
%TO.N,Net-(J8-Pad2)*%
X117460000Y-81200000D03*
X120460000Y-82000000D03*
X117460000Y-82000000D03*
X108160000Y-84110000D03*
X127430000Y-81180000D03*
X126460000Y-82800000D03*
X124460000Y-82800000D03*
X126460000Y-81200000D03*
X123460000Y-82000000D03*
X118460000Y-82800000D03*
X122460000Y-81200000D03*
X128430000Y-81980000D03*
X124460000Y-81200000D03*
X120460000Y-82800000D03*
X107610000Y-83540000D03*
X119460000Y-82000000D03*
X124460000Y-82000000D03*
X121460000Y-81200000D03*
X107600000Y-84580000D03*
X127430000Y-81980000D03*
X122460000Y-82800000D03*
X118460000Y-81200000D03*
X108690000Y-84580000D03*
X119460000Y-82800000D03*
X116460000Y-82800000D03*
X125460000Y-81200000D03*
X118460000Y-82000000D03*
X121460000Y-82800000D03*
X122460000Y-82000000D03*
X120460000Y-81200000D03*
X125460000Y-82000000D03*
X128430000Y-82780000D03*
X117460000Y-82800000D03*
X121460000Y-82000000D03*
X116460000Y-82000000D03*
X123460000Y-82800000D03*
X119460000Y-81200000D03*
X125460000Y-82800000D03*
X123460000Y-81200000D03*
X126460000Y-82000000D03*
X108610000Y-83540000D03*
X116460000Y-81200000D03*
X127430000Y-82780000D03*
%TO.N,Net-(J8-Pad3)*%
X117720000Y-92260000D03*
X108100000Y-88020000D03*
X107830000Y-87480000D03*
X122720000Y-92260000D03*
X108620000Y-87440000D03*
X120720000Y-92260000D03*
X117720000Y-90660000D03*
X120720000Y-90660000D03*
X107880000Y-88650000D03*
X120720000Y-91460000D03*
X116720000Y-90660000D03*
X116720000Y-91460000D03*
X122720000Y-90660000D03*
X119720000Y-91460000D03*
X121720000Y-90660000D03*
X121720000Y-91460000D03*
X118720000Y-91460000D03*
X108770000Y-88680000D03*
X123720000Y-92260000D03*
X122720000Y-91460000D03*
X118720000Y-92260000D03*
X118720000Y-90660000D03*
X119720000Y-92260000D03*
X123720000Y-90660000D03*
X123720000Y-91460000D03*
X117720000Y-91460000D03*
X121720000Y-92260000D03*
X116720000Y-92260000D03*
X119720000Y-90660000D03*
%TO.N,Net-(J8-Pad4)*%
X122630000Y-95140000D03*
X117630000Y-95940000D03*
X117630000Y-94340000D03*
X120630000Y-95140000D03*
X107440000Y-97130000D03*
X118630000Y-95140000D03*
X119630000Y-94340000D03*
X116630000Y-95940000D03*
X122630000Y-95940000D03*
X116630000Y-94340000D03*
X121630000Y-95940000D03*
X118630000Y-95940000D03*
X106850000Y-96610000D03*
X119630000Y-95940000D03*
X116630000Y-95140000D03*
X122630000Y-94340000D03*
X118630000Y-94340000D03*
X106820000Y-97720000D03*
X108040000Y-96630000D03*
X120630000Y-95940000D03*
X117630000Y-95140000D03*
X123630000Y-94340000D03*
D27*
X102050000Y-92870000D03*
D28*
X123630000Y-95940000D03*
X123630000Y-95140000D03*
X120630000Y-94340000D03*
X121630000Y-94340000D03*
X107930000Y-97700000D03*
X119630000Y-95140000D03*
X121630000Y-95140000D03*
D27*
%TO.N,Net-(Q15-Pad2)*%
X102300000Y-88050000D03*
X107540000Y-90180000D03*
%TO.N,Net-(Q15-Pad3)*%
X106980000Y-92260000D03*
X102700000Y-89860000D03*
%TO.N,Net-(Q15-Pad4)*%
X106350000Y-86690000D03*
X109770000Y-93230000D03*
%TO.N,Net-(Q16-Pad4)*%
X104260000Y-79480000D03*
X109707500Y-80212500D03*
%TO.N,Net-(Q18-Pad4)*%
X109710000Y-86660000D03*
X103700000Y-85770000D03*
D30*
%TO.N,Net-(R50-Pad2)*%
X74600000Y-95100000D03*
D28*
%TO.N,Net-(J9-Pad1)*%
X107950000Y-44800000D03*
X123630000Y-48500000D03*
X108000000Y-43800000D03*
X118750000Y-48550000D03*
X115850000Y-48550000D03*
X118700000Y-47700000D03*
X116750000Y-48550000D03*
X118700000Y-46800000D03*
X125580000Y-46750000D03*
X126590000Y-47590000D03*
X115800000Y-47700000D03*
X115800000Y-46800000D03*
X120710000Y-47640000D03*
X120710000Y-46740000D03*
X125630000Y-48500000D03*
X117750000Y-48550000D03*
X127640000Y-48440000D03*
X126590000Y-46690000D03*
X122730000Y-48500000D03*
X122680000Y-47650000D03*
X119710000Y-46740000D03*
X120760000Y-48490000D03*
X121710000Y-47640000D03*
X121710000Y-46740000D03*
X127590000Y-46690000D03*
X117700000Y-47700000D03*
X107400000Y-44300000D03*
X124580000Y-46750000D03*
X116700000Y-47700000D03*
X121760000Y-48490000D03*
X106800000Y-44800000D03*
X125580000Y-47650000D03*
X117700000Y-46800000D03*
X127590000Y-47590000D03*
X124630000Y-48500000D03*
X123580000Y-47650000D03*
X123580000Y-46750000D03*
X124580000Y-47650000D03*
X119710000Y-47640000D03*
X126640000Y-48440000D03*
X106800000Y-43800000D03*
X119760000Y-48490000D03*
X116700000Y-46800000D03*
X122680000Y-46750000D03*
%TO.N,Net-(J9-Pad2)*%
X118650000Y-50250000D03*
X120660000Y-50190000D03*
X122630000Y-51100000D03*
X125580000Y-51950000D03*
X117650000Y-50250000D03*
X123530000Y-50200000D03*
X116650000Y-51150000D03*
X124530000Y-51100000D03*
X115750000Y-51150000D03*
X125530000Y-50200000D03*
X117700000Y-52000000D03*
X126590000Y-51890000D03*
X126540000Y-50140000D03*
X121660000Y-50190000D03*
X124530000Y-50200000D03*
X119710000Y-51940000D03*
X125530000Y-51100000D03*
X115750000Y-50250000D03*
X120710000Y-51940000D03*
X127540000Y-51040000D03*
X122630000Y-50200000D03*
X121710000Y-51940000D03*
X106600000Y-53800000D03*
X115800000Y-52000000D03*
X107650000Y-52850000D03*
X124580000Y-51950000D03*
X120660000Y-51090000D03*
X106600000Y-52850000D03*
X119660000Y-50190000D03*
X118700000Y-52000000D03*
X107700000Y-53800000D03*
X116650000Y-50250000D03*
X122680000Y-51950000D03*
X107200000Y-53400000D03*
X118650000Y-51150000D03*
X127590000Y-51890000D03*
X121660000Y-51090000D03*
X119660000Y-51090000D03*
X127540000Y-50140000D03*
X123580000Y-51950000D03*
X117650000Y-51150000D03*
X116700000Y-52000000D03*
X123530000Y-51100000D03*
X126540000Y-51040000D03*
%TO.N,Net-(J9-Pad3)*%
X121920000Y-59770000D03*
X119970000Y-61520000D03*
X126800000Y-59720000D03*
X122890000Y-59780000D03*
X125790000Y-60680000D03*
X124790000Y-60680000D03*
X107430000Y-56460000D03*
X125790000Y-59780000D03*
X118910000Y-60730000D03*
X122940000Y-61530000D03*
X123790000Y-59780000D03*
X119920000Y-60670000D03*
X127850000Y-61470000D03*
X117910000Y-60730000D03*
X117960000Y-61580000D03*
X121970000Y-61520000D03*
X119920000Y-59770000D03*
X123790000Y-60680000D03*
X106500000Y-56510000D03*
X122890000Y-60680000D03*
X123840000Y-61530000D03*
X116010000Y-60730000D03*
X116010000Y-59830000D03*
X120920000Y-59770000D03*
X107440000Y-57620000D03*
X126850000Y-61470000D03*
X117910000Y-59830000D03*
X124840000Y-61530000D03*
X116910000Y-59830000D03*
X106490000Y-57630000D03*
X118960000Y-61580000D03*
X121920000Y-60670000D03*
X125840000Y-61530000D03*
X126800000Y-60620000D03*
X107000000Y-57120000D03*
X124790000Y-59780000D03*
X120970000Y-61520000D03*
X127800000Y-59720000D03*
X127800000Y-60620000D03*
X120920000Y-60670000D03*
X116910000Y-60730000D03*
X116060000Y-61580000D03*
X116960000Y-61580000D03*
X118910000Y-59830000D03*
%TO.N,Net-(J9-Pad4)*%
X125790000Y-63360000D03*
X116010000Y-63410000D03*
X121920000Y-63350000D03*
X106690000Y-66230000D03*
X122940000Y-65110000D03*
X117910000Y-63410000D03*
X120920000Y-63350000D03*
X123840000Y-65110000D03*
X126800000Y-63300000D03*
X125790000Y-64260000D03*
X120970000Y-65100000D03*
X106640000Y-67320000D03*
X124840000Y-65110000D03*
X125840000Y-65110000D03*
X116010000Y-64310000D03*
X116910000Y-63410000D03*
X120920000Y-64250000D03*
X117910000Y-64310000D03*
X107650000Y-67340000D03*
X127850000Y-65050000D03*
X119920000Y-64250000D03*
X124790000Y-63360000D03*
X118910000Y-64310000D03*
X107610000Y-66200000D03*
X123790000Y-63360000D03*
X127800000Y-64200000D03*
X123790000Y-64260000D03*
X116910000Y-64310000D03*
X127800000Y-63300000D03*
X118910000Y-63410000D03*
X119920000Y-63350000D03*
X119970000Y-65100000D03*
X126850000Y-65050000D03*
X126800000Y-64200000D03*
X116060000Y-65160000D03*
X121970000Y-65100000D03*
X118960000Y-65160000D03*
X117960000Y-65160000D03*
X116960000Y-65160000D03*
X121920000Y-64250000D03*
X122890000Y-64260000D03*
X124790000Y-64260000D03*
X107160000Y-66730000D03*
X122890000Y-63360000D03*
D27*
%TO.N,Net-(Q19-Pad4)*%
X104830000Y-58610000D03*
X108630000Y-62410000D03*
%TO.N,/Microprocessor/stall_0*%
X23600000Y-138700000D03*
X71300000Y-147700000D03*
%TO.N,Net-(Q20-Pad4)*%
X105400000Y-51600000D03*
X107800000Y-49400000D03*
%TO.N,Net-(Q22-Pad4)*%
X108590000Y-55860000D03*
X98800000Y-57000000D03*
%TO.N,Net-(R58-Pad2)*%
X73600000Y-79400000D03*
X76300000Y-68300000D03*
X75900000Y-78600000D03*
X63000000Y-105800000D03*
X48300000Y-87700000D03*
X58500000Y-87680000D03*
X59100000Y-81200000D03*
X47475500Y-105700000D03*
X42500000Y-138800000D03*
X59600000Y-138800000D03*
%TO.N,/Microprocessor/mosi*%
X83660000Y-89579345D03*
X72250000Y-132250000D03*
D30*
X77930000Y-114920000D03*
D27*
X76200000Y-61900000D03*
D30*
X85950000Y-115234500D03*
D27*
X76500000Y-132250000D03*
%TO.N,/Microprocessor/sck*%
X83750000Y-150250000D03*
X56537500Y-148962500D03*
X76000000Y-60400000D03*
X82720000Y-88700000D03*
X61850000Y-141550000D03*
X56550000Y-141350000D03*
X63000000Y-115250000D03*
X88540000Y-114510000D03*
D30*
X82720000Y-113140000D03*
D27*
%TO.N,/Microprocessor/miso*%
X72625000Y-90175000D03*
D30*
X68670000Y-90060000D03*
D27*
X75600000Y-145500000D03*
X71750000Y-114750000D03*
D30*
X88840000Y-91260000D03*
D27*
X82793342Y-116425070D03*
X72250000Y-145000000D03*
%TO.N,/Microprocessor/cs_0*%
X75600000Y-128000000D03*
X56250000Y-128000000D03*
%TO.N,/Microprocessor/cs_3*%
X46600000Y-115600000D03*
X72166990Y-78466990D03*
X70200000Y-113900000D03*
X70103410Y-106045590D03*
X58100000Y-106300000D03*
X61300000Y-79100000D03*
D30*
%TO.N,/Microprocessor/cs_2*%
X88324244Y-90403845D03*
X56690000Y-125810000D03*
X68625000Y-124874500D03*
X67750000Y-89230000D03*
D27*
%TO.N,/Microprocessor/cs_1*%
X55047175Y-112949095D03*
D30*
X82400000Y-114090000D03*
D27*
%TO.N,/Microprocessor/analog_2*%
X148700000Y-170800000D03*
X155500000Y-170800000D03*
X30700000Y-162100000D03*
X148700000Y-164800000D03*
%TO.N,/Microprocessor/analog_1*%
X159100000Y-166000000D03*
X29400000Y-163200000D03*
%TO.N,/Microprocessor/step_0*%
X89000000Y-137250000D03*
X82250000Y-138750000D03*
%TO.N,/Microprocessor/dir_0*%
X82950001Y-137200001D03*
%TO.N,/Microprocessor/step_1*%
X88150000Y-130850000D03*
X90375000Y-115425000D03*
X95675000Y-120675000D03*
%TO.N,/Microprocessor/dir_1*%
X92075000Y-115250000D03*
X82425000Y-129525000D03*
X90250000Y-119525000D03*
D30*
%TO.N,/Microprocessor/step_2*%
X89180000Y-99590000D03*
X54630000Y-102340000D03*
X90230000Y-87025499D03*
X84790000Y-123632000D03*
X80060000Y-100850000D03*
X89610000Y-93006286D03*
%TO.N,/Microprocessor/dir_2*%
X78570000Y-119530000D03*
X88520000Y-123010000D03*
X77600000Y-99100000D03*
X91680000Y-123010000D03*
X65750000Y-99120000D03*
X89120000Y-119760000D03*
D27*
%TO.N,/Microprocessor/step_3*%
X86802000Y-58100000D03*
X96581000Y-104201000D03*
X93406000Y-105090000D03*
%TO.N,/Microprocessor/dir_3*%
X87600000Y-59300000D03*
%TO.N,/Microprocessor/3to5_3/in*%
X49750000Y-122750000D03*
X83000000Y-135250000D03*
%TO.N,/Microprocessor/3to5_4/in*%
X49475000Y-120824500D03*
X83754000Y-124648000D03*
%TO.N,/Microprocessor/3to5_7/in*%
X67425000Y-111575000D03*
X55078427Y-111750000D03*
X76750000Y-136250000D03*
X67250000Y-135500000D03*
%TO.N,/Microprocessor/3to5_8/in*%
X78449500Y-124150000D03*
X47800000Y-121350000D03*
%TO.N,/Microprocessor/3to5_6/in*%
X47432000Y-116774000D03*
X62275500Y-116520000D03*
X92390000Y-124394000D03*
X62164000Y-121092000D03*
D30*
%TO.N,/Microprocessor/3to5_9/in*%
X61020001Y-99099999D03*
X55700000Y-99200000D03*
D27*
%TO.N,/Microprocessor/3to5_10/in*%
X54000000Y-106250000D03*
X35500000Y-107000000D03*
X55750000Y-54500000D03*
X47750000Y-84750000D03*
%TO.N,/Peripherals/rs485-*%
X160293000Y-169775000D03*
X58862000Y-167574000D03*
%TO.N,/Peripherals/rs485+*%
X154960000Y-167996000D03*
X58862000Y-165288000D03*
%TO.N,/Microprocessor/rs485_di*%
X58354000Y-156906000D03*
X23111000Y-158493000D03*
%TO.N,/Microprocessor/rs485_ro*%
X56830000Y-156652000D03*
X24600000Y-157600000D03*
%TO.N,/Microprocessor/rs485_rw*%
X23048000Y-160208000D03*
X42098000Y-159700000D03*
%TO.N,/Microprocessor/3to5_12/in*%
X68124500Y-147800000D03*
X56300000Y-123100000D03*
X63100000Y-123100000D03*
X80000000Y-157300000D03*
X131900000Y-158800000D03*
X62900000Y-147800000D03*
%TO.N,/Microprocessor/3to5_13/in*%
X65500000Y-150000000D03*
X142700000Y-158900000D03*
X53100000Y-110300000D03*
X65500000Y-110300000D03*
%TO.N,/Microprocessor/3to5_15/in*%
X66400000Y-120000000D03*
X36700000Y-119946090D03*
%TO.N,/Microprocessor/3to5_14/in*%
X24200000Y-140500000D03*
X130224500Y-161300000D03*
%TO.N,/Microprocessor/out_15*%
X134700000Y-157500000D03*
%TO.N,/Microprocessor/out_16*%
X134093800Y-150793800D03*
%TO.N,/Microprocessor/out_21*%
X64100000Y-160200000D03*
X141326000Y-140623000D03*
X139677000Y-140623000D03*
X140051500Y-159300000D03*
%TO.N,/Microprocessor/3to5_16/in*%
X45500000Y-97000000D03*
X55600000Y-95700000D03*
D30*
%TO.N,/Microprocessor/spin_pwm*%
X155890000Y-167066000D03*
X66736000Y-170876000D03*
D27*
%TO.N,Net-(D11-Pad2)*%
X72600000Y-106100000D03*
X138500000Y-163400000D03*
X39240520Y-105220590D03*
X85400000Y-168200195D03*
%TO.N,Net-(D12-Pad2)*%
X87000000Y-159100000D03*
X32300000Y-105047273D03*
X140000000Y-160600000D03*
X74824500Y-125000000D03*
X79100000Y-149900000D03*
X87400000Y-167300000D03*
X72200000Y-125000000D03*
X72400000Y-109300000D03*
%TO.N,Net-(D13-Pad2)*%
X141800000Y-157800000D03*
X36750000Y-150200000D03*
%TO.N,Net-(D14-Pad2)*%
X38316853Y-154816853D03*
X140000000Y-162500000D03*
%TO.N,Net-(D15-Pad2)*%
X32800000Y-146300000D03*
X142300000Y-155100000D03*
%TO.N,Net-(D16-Pad2)*%
X135700000Y-166800000D03*
X35800000Y-163400000D03*
%TO.N,Net-(D17-Pad2)*%
X142800000Y-153800000D03*
X32400000Y-144400000D03*
%TO.N,Net-(D18-Pad2)*%
X136600000Y-164600000D03*
X34600000Y-156500000D03*
%TO.N,Net-(D19-Pad2)*%
X36000000Y-148100000D03*
X141900000Y-156550000D03*
%TO.N,Net-(D20-Pad2)*%
X140501500Y-158100000D03*
X37200000Y-151900000D03*
%TO.N,/Microprocessor/pdi*%
X63300000Y-74800000D03*
X70400000Y-41700000D03*
X65900000Y-101400000D03*
X67940000Y-50330000D03*
X37272000Y-112456000D03*
X64470000Y-69710000D03*
X61400000Y-101700000D03*
X70400000Y-50200000D03*
X25588000Y-112202000D03*
X61800000Y-110700000D03*
%TO.N,/Microprocessor/reset*%
X60889086Y-97909992D03*
X80600000Y-40700000D03*
X62400000Y-79800000D03*
X37272000Y-111186000D03*
X24572000Y-111186000D03*
X32400000Y-100300000D03*
D30*
%TO.N,/Peripherals/spin_0to10*%
X74800000Y-170500000D03*
X137602000Y-166812000D03*
D27*
X101240000Y-125500000D03*
D30*
X137602000Y-142682000D03*
D27*
%TO.N,/Microprocessor/sda*%
X43800000Y-136700000D03*
X69800000Y-102100000D03*
X77100000Y-40100000D03*
X64375000Y-137625000D03*
X65200000Y-107500000D03*
X41250000Y-71250000D03*
X74500000Y-93800000D03*
X70100000Y-98200000D03*
%TO.N,/Microprocessor/scl*%
X60214338Y-100485662D03*
X59600000Y-136800000D03*
X24000000Y-83500000D03*
X78834500Y-100016756D03*
X37250000Y-57750000D03*
X28000000Y-55000000D03*
X78800000Y-39900000D03*
X79208010Y-89508010D03*
X47900000Y-136000000D03*
%TO.N,/Microprocessor/serial_rx*%
X60300000Y-109000000D03*
X49800000Y-132000000D03*
X59575945Y-132893068D03*
X67500000Y-70700000D03*
X70200000Y-33300000D03*
X67600000Y-109000000D03*
%TO.N,/Microprocessor/serial_tx*%
X59600000Y-135300000D03*
X58741907Y-100599365D03*
X54741471Y-100617169D03*
X56870000Y-82030000D03*
X48800000Y-133200000D03*
%TO.N,/Microprocessor/serial_cts*%
X71100000Y-77600000D03*
X56300000Y-88600000D03*
X71500000Y-44000000D03*
X59700000Y-131700000D03*
X53835928Y-101441669D03*
X51000000Y-131300000D03*
X71100000Y-87900000D03*
X58700000Y-101900000D03*
%TO.N,/Raspberry Pi/5V_sda*%
X32000000Y-69250000D03*
%TO.N,/Raspberry Pi/5V_scl*%
X32250000Y-63500000D03*
%TO.N,Net-(Q21-Pad4)*%
X97499998Y-61639998D03*
X108040000Y-68930000D03*
%TO.N,Net-(R66-Pad1)*%
X55000000Y-130500000D03*
X68250000Y-130500000D03*
%TO.N,Net-(R69-Pad1)*%
X68250000Y-134250000D03*
X57000000Y-134250000D03*
%TO.N,Net-(TP12-Pad1)*%
X42000000Y-114000000D03*
X28500000Y-113280500D03*
D30*
%TO.N,Net-(Q5-Pad4)*%
X120500000Y-30600000D03*
X99750000Y-28000000D03*
D27*
%TO.N,Net-(Q20-Pad3)*%
X105000000Y-50200000D03*
X99400000Y-55000000D03*
%TO.N,Net-(R38-Pad2)*%
X37250000Y-104396090D03*
X70103910Y-104396090D03*
%TO.N,Net-(Q5-Pad1)*%
X122256212Y-32040529D03*
X99900000Y-26700000D03*
%TD*%
D32*
%TO.N,Net-(Q1-Pad4)*%
X104790000Y-144400000D02*
X106330000Y-144400000D01*
X106330000Y-144400000D02*
X108750000Y-141980000D01*
%TO.N,Net-(J1-Pad4)*%
X102000000Y-158750000D02*
X106550000Y-158750000D01*
X96500000Y-153250000D02*
X102000000Y-158750000D01*
X106550000Y-158750000D02*
X106900000Y-159100000D01*
%TO.N,GND*%
X132600000Y-150700000D02*
X127300000Y-150700000D01*
X127300000Y-150700000D02*
X126700000Y-150100000D01*
%TO.N,/MotorDriver0/enable*%
X77770000Y-112350000D02*
X89100000Y-112350000D01*
X83925000Y-128500000D02*
X90000000Y-128500000D01*
X77075000Y-111655000D02*
X77770000Y-112350000D01*
X92150000Y-141400000D02*
X90000000Y-139250000D01*
X94160000Y-141400000D02*
X92150000Y-141400000D01*
X81250001Y-86249999D02*
X79000000Y-83999998D01*
X76750000Y-128500000D02*
X83925000Y-128500000D01*
X79000000Y-60250000D02*
X79000000Y-58250000D01*
X77075000Y-111645000D02*
X77075000Y-111655000D01*
X89100000Y-112350000D02*
X90650000Y-113900000D01*
X90000000Y-139250000D02*
X83000000Y-139250000D01*
X79000000Y-83999998D02*
X79000000Y-60250000D01*
X83000000Y-139250000D02*
X82250000Y-140000000D01*
D33*
%TO.N,/Power Supply/Vdd*%
X72928475Y-29800000D02*
X72928475Y-26728475D01*
X72928475Y-26728475D02*
X72657950Y-26728475D01*
X71600000Y-31128475D02*
X72928475Y-29800000D01*
X72928475Y-34061623D02*
X71600000Y-32733148D01*
X72657950Y-26728475D02*
X72253975Y-26324500D01*
X71600000Y-32733148D02*
X71600000Y-31128475D01*
X72928475Y-54271525D02*
X72928475Y-34061623D01*
X70400000Y-56800000D02*
X72928475Y-54271525D01*
D32*
%TO.N,Net-(Q3-Pad4)*%
X106250000Y-153750000D02*
X102250000Y-149750000D01*
X108250000Y-153750000D02*
X106250000Y-153750000D01*
%TO.N,Net-(Q2-Pad4)*%
X98670000Y-146870000D02*
X100280000Y-148480000D01*
X100290000Y-148490000D02*
X109710000Y-148490000D01*
X100280000Y-148480000D02*
X100290000Y-148490000D01*
%TO.N,/Power Supply/Vin*%
X73578475Y-25171525D02*
X75000000Y-23750000D01*
X138300000Y-25300000D02*
X125550000Y-25300000D01*
X125550000Y-25300000D02*
X125500000Y-25250000D01*
X73578475Y-63921525D02*
X73578475Y-25171525D01*
X73000000Y-64500000D02*
X73578475Y-63921525D01*
X124000000Y-23750000D02*
X125500000Y-25250000D01*
X75000000Y-23750000D02*
X124000000Y-23750000D01*
%TO.N,Net-(TP1-Pad1)*%
X124500000Y-27000000D02*
X139500000Y-27000000D01*
X139500000Y-27000000D02*
X140500000Y-26000000D01*
%TO.N,/Power Supply/en*%
X54140000Y-70260000D02*
X51800000Y-72600000D01*
X54140000Y-67150000D02*
X54140000Y-70260000D01*
D33*
%TO.N,+5V*%
X51700000Y-92600000D02*
X61400000Y-92600000D01*
X81350000Y-121900000D02*
X76000000Y-121900000D01*
X96924544Y-121900000D02*
X81350000Y-121900000D01*
X96700000Y-128700000D02*
X96700000Y-126160000D01*
X96700000Y-126160000D02*
X98075000Y-124785000D01*
X98075000Y-124785000D02*
X98075000Y-123050456D01*
X61400000Y-92600000D02*
X76000000Y-92600000D01*
X23300000Y-92600000D02*
X51700000Y-92600000D01*
X98075000Y-123050456D02*
X96924544Y-121900000D01*
D32*
%TO.N,/Power Supply/shunt*%
X52225000Y-46025000D02*
X52225000Y-38425000D01*
X53000000Y-46800000D02*
X52225000Y-46025000D01*
X51600000Y-37800000D02*
X52225000Y-38425000D01*
%TO.N,/Power Supply/vout_ref*%
X50750000Y-42250000D02*
X50750000Y-34000000D01*
X51500000Y-43000000D02*
X50750000Y-42250000D01*
%TO.N,Net-(R18-Pad2)*%
X34960500Y-29250000D02*
X32250000Y-29250000D01*
X40500000Y-34789500D02*
X34960500Y-29250000D01*
%TO.N,+3.3V*%
X34100000Y-34200000D02*
X41250000Y-41350000D01*
D33*
X41250000Y-65250000D02*
X41250000Y-59750000D01*
X39250000Y-67250000D02*
X41250000Y-65250000D01*
X39250000Y-73250000D02*
X39250000Y-67250000D01*
D32*
X70250000Y-140000000D02*
X56690000Y-140000000D01*
X58825000Y-114425000D02*
X58000000Y-115250000D01*
X68373515Y-114425000D02*
X58825000Y-114425000D01*
X69488099Y-115539584D02*
X68373515Y-114425000D01*
X41250000Y-41350000D02*
X41250000Y-59750000D01*
%TO.N,/Microprocessor/stall_3*%
X41600000Y-132700000D02*
X33100000Y-124200000D01*
X33100000Y-124200000D02*
X33100000Y-122700000D01*
%TO.N,/Microprocessor/stall_1*%
X43374500Y-119175500D02*
X44575000Y-117975000D01*
X65775000Y-119175000D02*
X69125000Y-119175000D01*
X69125000Y-119175000D02*
X69550000Y-119600000D01*
X64575000Y-117975000D02*
X65775000Y-119175000D01*
X69550000Y-119600000D02*
X69550000Y-120950000D01*
X37950000Y-119175500D02*
X43374500Y-119175500D01*
X44575000Y-117975000D02*
X64575000Y-117975000D01*
%TO.N,/Microprocessor/stall_2*%
X68610000Y-103230000D02*
X44230000Y-103230000D01*
X33560000Y-116480000D02*
X33765000Y-116275000D01*
X68860000Y-102980000D02*
X68610000Y-103230000D01*
X33765000Y-116275000D02*
X43755000Y-116275000D01*
D34*
%TO.N,Net-(J7-Pad1)*%
X107050000Y-104750000D02*
X107800000Y-105500000D01*
D35*
X111300000Y-109000000D02*
X107800000Y-105500000D01*
D34*
X108412034Y-106112034D02*
X107800000Y-105500000D01*
X107050000Y-106100000D02*
X107200000Y-106100000D01*
X108650000Y-104700000D02*
X108600000Y-104700000D01*
X107200000Y-106100000D02*
X107800000Y-105500000D01*
X108668696Y-106112034D02*
X108412034Y-106112034D01*
X107050000Y-104700000D02*
X107050000Y-104750000D01*
X108600000Y-104700000D02*
X107800000Y-105500000D01*
D35*
X128850000Y-109000000D02*
X111300000Y-109000000D01*
%TO.N,Net-(J7-Pad2)*%
X110650000Y-112650000D02*
X108450000Y-114850000D01*
X128900000Y-112650000D02*
X110650000Y-112650000D01*
D32*
%TO.N,Net-(J7-Pad3)*%
X104100000Y-114600000D02*
X107500000Y-118000000D01*
D33*
X108150000Y-118650000D02*
X107700000Y-119100000D01*
D35*
X128600000Y-122300000D02*
X113304164Y-122300000D01*
X113304164Y-122300000D02*
X109369164Y-118365000D01*
D33*
X108300000Y-118650000D02*
X108150000Y-118650000D01*
D32*
X103100000Y-114600000D02*
X104100000Y-114600000D01*
D33*
X108800000Y-118150000D02*
X108300000Y-118650000D01*
D34*
X108300000Y-118650000D02*
X108947057Y-118650000D01*
D35*
X109369164Y-118365000D02*
X108300000Y-118365000D01*
D32*
X107500000Y-118000000D02*
X107700000Y-118000000D01*
D33*
X107700000Y-118000000D02*
X107700000Y-118050000D01*
X107700000Y-118050000D02*
X108300000Y-118650000D01*
D32*
%TO.N,Net-(J7-Pad4)*%
X105800000Y-127500000D02*
X108200000Y-127500000D01*
X101950000Y-119550000D02*
X101650000Y-119850000D01*
X101650000Y-123350000D02*
X105800000Y-127500000D01*
X101650000Y-119850000D02*
X101650000Y-123350000D01*
%TO.N,Net-(Q11-Pad2)*%
X106600000Y-118433273D02*
X106600000Y-118919238D01*
X102300000Y-115700000D02*
X103866727Y-115700000D01*
X107745762Y-120065000D02*
X108665000Y-120065000D01*
X106600000Y-118919238D02*
X107745762Y-120065000D01*
X103866727Y-115700000D02*
X106600000Y-118433273D01*
%TO.N,Net-(Q11-Pad3)*%
X108300000Y-121400000D02*
X104000000Y-117100000D01*
X104000000Y-117100000D02*
X104000000Y-117000000D01*
%TO.N,Net-(Q11-Pad4)*%
X104824500Y-121874500D02*
X104824500Y-121650000D01*
X106450000Y-123500000D02*
X104824500Y-121874500D01*
X109000000Y-123500000D02*
X106450000Y-123500000D01*
%TO.N,Net-(Q12-Pad4)*%
X104480000Y-109080000D02*
X104400000Y-109160000D01*
X110260000Y-110740000D02*
X108600000Y-109080000D01*
X108600000Y-109080000D02*
X104480000Y-109080000D01*
%TO.N,Net-(Q1-Pad3)*%
X98130000Y-145240000D02*
X102980000Y-140390000D01*
%TO.N,Net-(Q14-Pad4)*%
X108276168Y-116550000D02*
X108700000Y-116550000D01*
X102600000Y-112950000D02*
X104676168Y-112950000D01*
X104676168Y-112950000D02*
X108276168Y-116550000D01*
%TO.N,/Microprocessor/drv_fault*%
X90440000Y-100860000D02*
X85330000Y-100860000D01*
X76400000Y-66900000D02*
X77125000Y-67625000D01*
X80000000Y-106190000D02*
X74860000Y-106190000D01*
X76900000Y-85700000D02*
X76900000Y-85800000D01*
X77125000Y-68975000D02*
X76100000Y-70000000D01*
X76900000Y-80525000D02*
X76900000Y-85700000D01*
X90386990Y-94886990D02*
X90386990Y-94806990D01*
X76900000Y-78400000D02*
X76900000Y-80525000D01*
X90400000Y-94900000D02*
X90386990Y-94886990D01*
X76900000Y-85800000D02*
X80400000Y-89300000D01*
X85330000Y-100860000D02*
X80000000Y-106190000D01*
X75900000Y-77400000D02*
X76900000Y-78400000D01*
X76100000Y-70000000D02*
X75900000Y-70200000D01*
X74970000Y-117140000D02*
X74790000Y-117320000D01*
X80400000Y-89300000D02*
X80500000Y-89300000D01*
X81780000Y-117140000D02*
X74970000Y-117140000D01*
X75900000Y-70200000D02*
X75900000Y-77400000D01*
X77125000Y-67625000D02*
X77125000Y-68975000D01*
X81600000Y-94900000D02*
X90400000Y-94900000D01*
%TO.N,Net-(R42-Pad2)*%
X72650000Y-120500000D02*
X72050000Y-121100000D01*
X91550000Y-120500000D02*
X72650000Y-120500000D01*
%TO.N,Net-(J8-Pad4)*%
X105790000Y-96610000D02*
X106850000Y-96610000D01*
X102050000Y-92870000D02*
X105790000Y-96610000D01*
%TO.N,Net-(Q15-Pad2)*%
X102300000Y-88050000D02*
X105410000Y-88050000D01*
X105410000Y-88050000D02*
X107540000Y-90180000D01*
%TO.N,Net-(Q15-Pad3)*%
X105150000Y-92310000D02*
X102700000Y-89860000D01*
X106930000Y-92310000D02*
X105150000Y-92310000D01*
X106980000Y-92260000D02*
X106930000Y-92310000D01*
%TO.N,Net-(Q15-Pad4)*%
X109770000Y-91243273D02*
X109770000Y-93230000D01*
X109710000Y-91183273D02*
X109770000Y-91243273D01*
X106350000Y-86690000D02*
X106350000Y-88050000D01*
X106350000Y-88050000D02*
X107655000Y-89355000D01*
X107655000Y-89355000D02*
X107881727Y-89355000D01*
X107881727Y-89355000D02*
X109710000Y-91183273D01*
%TO.N,Net-(Q16-Pad4)*%
X109707500Y-80212500D02*
X105002500Y-80212500D01*
X104992500Y-80212500D02*
X104260000Y-79480000D01*
X105002500Y-80212500D02*
X104992500Y-80212500D01*
%TO.N,Net-(Q18-Pad4)*%
X108840000Y-85780000D02*
X109710000Y-86650000D01*
X108840000Y-85780000D02*
X103710000Y-85780000D01*
X109710000Y-86650000D02*
X109710000Y-86660000D01*
X103710000Y-85780000D02*
X103700000Y-85770000D01*
%TO.N,Net-(R50-Pad2)*%
X81500000Y-96400000D02*
X80200000Y-95100000D01*
X89960000Y-96400000D02*
X81500000Y-96400000D01*
X91620000Y-94740000D02*
X89960000Y-96400000D01*
X80200000Y-95100000D02*
X74600000Y-95100000D01*
X91620000Y-93900000D02*
X91620000Y-94740000D01*
%TO.N,Net-(Q19-Pad4)*%
X108630000Y-62410000D02*
X104830000Y-58610000D01*
%TO.N,/Microprocessor/stall_0*%
X38147792Y-146975000D02*
X35136396Y-143963604D01*
X70575000Y-146975000D02*
X62175000Y-146975000D01*
X62175000Y-146975000D02*
X38147792Y-146975000D01*
X71300000Y-147700000D02*
X70575000Y-146975000D01*
X35136396Y-143963604D02*
X29872792Y-138700000D01*
X29872792Y-138700000D02*
X23600000Y-138700000D01*
%TO.N,Net-(Q20-Pad4)*%
X105400000Y-51600000D02*
X107600000Y-49400000D01*
X107600000Y-49400000D02*
X107800000Y-49400000D01*
%TO.N,Net-(Q22-Pad4)*%
X99940000Y-55860000D02*
X108590000Y-55860000D01*
X98800000Y-57000000D02*
X99940000Y-55860000D01*
%TO.N,Net-(R58-Pad2)*%
X59100000Y-81200000D02*
X62650000Y-81200000D01*
X75900000Y-78600000D02*
X75400000Y-78100000D01*
X42500000Y-138800000D02*
X59600000Y-138800000D01*
X62650000Y-81200000D02*
X63600000Y-80250000D01*
X48103910Y-105296090D02*
X47700000Y-105700000D01*
X48300000Y-87700000D02*
X58500000Y-87700000D01*
X76200000Y-68300000D02*
X76300000Y-68300000D01*
X47700000Y-105700000D02*
X47475500Y-105700000D01*
X63000000Y-105800000D02*
X62496090Y-105296090D01*
X62496090Y-105296090D02*
X48103910Y-105296090D01*
X75400000Y-69100000D02*
X76200000Y-68300000D01*
X72750000Y-80250000D02*
X73600000Y-79400000D01*
X75400000Y-78100000D02*
X75400000Y-69100000D01*
X63600000Y-80250000D02*
X72750000Y-80250000D01*
%TO.N,/Microprocessor/mosi*%
X76200000Y-61900000D02*
X78000000Y-63700000D01*
X78000000Y-85500000D02*
X82079345Y-89579345D01*
X77930000Y-114920000D02*
X83440000Y-114920000D01*
X85833773Y-115118273D02*
X85950000Y-115234500D01*
X72250000Y-132250000D02*
X76500000Y-132250000D01*
X82079345Y-89579345D02*
X83660000Y-89579345D01*
X78000000Y-63700000D02*
X78000000Y-85500000D01*
X83440000Y-114920000D02*
X83638273Y-115118273D01*
X83638273Y-115118273D02*
X85833773Y-115118273D01*
%TO.N,/Microprocessor/sck*%
X76000000Y-60400000D02*
X78450000Y-62850000D01*
X88540000Y-114510000D02*
X87989009Y-114510000D01*
X65845000Y-118095000D02*
X63000000Y-115250000D01*
X82462500Y-148962500D02*
X56537500Y-148962500D01*
X78450000Y-84900000D02*
X82250000Y-88700000D01*
X65845000Y-118145000D02*
X65845000Y-118095000D01*
X56550000Y-141350000D02*
X61700000Y-141350000D01*
X84090000Y-114510000D02*
X88540000Y-114510000D01*
X61850000Y-141500000D02*
X61850000Y-141550000D01*
X83750000Y-150250000D02*
X82462500Y-148962500D01*
X82250000Y-88700000D02*
X82720000Y-88700000D01*
X78450000Y-62850000D02*
X78450000Y-84900000D01*
X61700000Y-141350000D02*
X61850000Y-141500000D01*
X84354009Y-118145000D02*
X65845000Y-118145000D01*
X82720000Y-113140000D02*
X84090000Y-114510000D01*
X87989009Y-114510000D02*
X84354009Y-118145000D01*
%TO.N,/Microprocessor/miso*%
X82042772Y-115674500D02*
X82793342Y-116425070D01*
X68785000Y-90175000D02*
X68670000Y-90060000D01*
X88840000Y-91260000D02*
X81440000Y-91260000D01*
X81440000Y-91260000D02*
X78550000Y-91260000D01*
X72674500Y-115674500D02*
X71750000Y-114750000D01*
X77465000Y-90175000D02*
X72625000Y-90175000D01*
X72250000Y-145000000D02*
X75100000Y-145000000D01*
X75100000Y-145000000D02*
X75600000Y-145500000D01*
X72625000Y-90175000D02*
X68785000Y-90175000D01*
X82042772Y-115674500D02*
X72674500Y-115674500D01*
X78550000Y-91260000D02*
X77465000Y-90175000D01*
%TO.N,/Microprocessor/cs_0*%
X75600000Y-128000000D02*
X56250000Y-128000000D01*
%TO.N,/Microprocessor/cs_3*%
X67896090Y-105296090D02*
X65000000Y-105296090D01*
X48300000Y-113900000D02*
X46600000Y-115600000D01*
X71283980Y-79350000D02*
X64800000Y-79350000D01*
X65000000Y-105296090D02*
X64903910Y-105296090D01*
X70200000Y-113900000D02*
X48300000Y-113900000D01*
X64703910Y-105296090D02*
X63000000Y-107000000D01*
X63116727Y-79350000D02*
X62741727Y-78975000D01*
X70103410Y-106045590D02*
X69957820Y-105900000D01*
X64800000Y-79350000D02*
X63116727Y-79350000D01*
X58800000Y-107000000D02*
X58100000Y-106300000D01*
X69957820Y-105900000D02*
X68500000Y-105900000D01*
X72166990Y-78466990D02*
X71283980Y-79350000D01*
X64803910Y-105296090D02*
X64703910Y-105296090D01*
X62741727Y-78975000D02*
X61425000Y-78975000D01*
X68500000Y-105900000D02*
X67896090Y-105296090D01*
X61425000Y-78975000D02*
X61300000Y-79100000D01*
X64903910Y-105296090D02*
X64803910Y-105296090D01*
X63000000Y-107000000D02*
X58800000Y-107000000D01*
%TO.N,/Microprocessor/cs_2*%
X68625000Y-124874500D02*
X57525500Y-124874500D01*
X56690000Y-125710000D02*
X56690000Y-125810000D01*
X88324244Y-90403845D02*
X78803845Y-90403845D01*
X77630000Y-89230000D02*
X67750000Y-89230000D01*
X57525500Y-124874500D02*
X56690000Y-125710000D01*
X78803845Y-90403845D02*
X77630000Y-89230000D01*
%TO.N,/Microprocessor/cs_1*%
X55047175Y-112949095D02*
X81259095Y-112949095D01*
X81365822Y-113045822D02*
X81365822Y-113055822D01*
X81365822Y-113055822D02*
X82400000Y-114090000D01*
X81259095Y-112949095D02*
X81365822Y-113055822D01*
%TO.N,/Microprocessor/analog_2*%
X30700000Y-162100000D02*
X30725000Y-162125000D01*
X134150000Y-166350000D02*
X135000000Y-165500000D01*
X60025000Y-162125000D02*
X66600000Y-168700000D01*
X135000000Y-165500000D02*
X135025000Y-165525000D01*
X148700000Y-170800000D02*
X155500000Y-170800000D01*
X30725000Y-162125000D02*
X60025000Y-162125000D01*
X76500000Y-169474695D02*
X132888909Y-169474695D01*
X134150000Y-168213604D02*
X134150000Y-166350000D01*
X135025000Y-165525000D02*
X147975000Y-165525000D01*
X75725305Y-168700000D02*
X76500000Y-169474695D01*
X66600000Y-168700000D02*
X75725305Y-168700000D01*
X147975000Y-165525000D02*
X148700000Y-164800000D01*
X132888909Y-169474695D02*
X134150000Y-168213604D01*
%TO.N,/Microprocessor/analog_1*%
X134600000Y-166733273D02*
X135358273Y-165975000D01*
X134600000Y-168400000D02*
X134600000Y-166733273D01*
X60589305Y-163450000D02*
X66339305Y-169200000D01*
X37350000Y-163450000D02*
X60589305Y-163450000D01*
X66339305Y-169200000D02*
X75300000Y-169200000D01*
X36475000Y-162575000D02*
X37350000Y-163450000D01*
X152075000Y-165975000D02*
X152100000Y-166000000D01*
X34600000Y-163200000D02*
X35225000Y-162575000D01*
X35225000Y-162575000D02*
X36475000Y-162575000D01*
X152100000Y-166000000D02*
X159100000Y-166000000D01*
X75300000Y-169200000D02*
X76024695Y-169924695D01*
X76024695Y-169924695D02*
X133075305Y-169924695D01*
X135358273Y-165975000D02*
X152075000Y-165975000D01*
X29400000Y-163200000D02*
X34600000Y-163200000D01*
X133075305Y-169924695D02*
X134600000Y-168400000D01*
%TO.N,/Microprocessor/step_0*%
X82250000Y-138750000D02*
X82125001Y-138625001D01*
X82125001Y-138625001D02*
X82125001Y-136858274D01*
X82125001Y-136858274D02*
X82608274Y-136375001D01*
X88125001Y-136375001D02*
X89000000Y-137250000D01*
X82608274Y-136375001D02*
X88125001Y-136375001D01*
X95520722Y-137680722D02*
X96700000Y-138860000D01*
X89000000Y-137250000D02*
X89430722Y-137680722D01*
X89430722Y-137680722D02*
X95520722Y-137680722D01*
%TO.N,/Microprocessor/dir_0*%
X90250000Y-138250000D02*
X90860000Y-138860000D01*
X84000000Y-138250000D02*
X90250000Y-138250000D01*
X82950001Y-137200001D02*
X84000000Y-138250000D01*
X90860000Y-138860000D02*
X94160000Y-138860000D01*
%TO.N,/Microprocessor/step_1*%
X92900000Y-114908273D02*
X92416727Y-114425000D01*
X88150000Y-133713604D02*
X89581396Y-135145000D01*
X95525000Y-135145000D02*
X96700000Y-136320000D01*
X92900000Y-117900000D02*
X92900000Y-114908273D01*
X95675000Y-120675000D02*
X92900000Y-117900000D01*
X89581396Y-135145000D02*
X95525000Y-135145000D01*
X91350000Y-114425000D02*
X90375000Y-115400000D01*
X90375000Y-115400000D02*
X90375000Y-115425000D01*
X88150000Y-130850000D02*
X88150000Y-133713604D01*
X92416727Y-114425000D02*
X91350000Y-114425000D01*
%TO.N,/Microprocessor/dir_1*%
X83325000Y-129525000D02*
X82425000Y-129525000D01*
X90250000Y-117075000D02*
X92075000Y-115250000D01*
X90250000Y-119525000D02*
X90250000Y-117075000D01*
X94160000Y-136320000D02*
X90120000Y-136320000D01*
X90120000Y-136320000D02*
X83325000Y-129525000D01*
%TO.N,/Microprocessor/step_2*%
X90825000Y-128158273D02*
X90825000Y-131375000D01*
X90825000Y-131375000D02*
X91870000Y-132420000D01*
X88420000Y-100410000D02*
X89180000Y-99650000D01*
X84790000Y-123632000D02*
X84790000Y-125320000D01*
X84790000Y-125320000D02*
X85190000Y-125720000D01*
X85190000Y-125720000D02*
X88386727Y-125720000D01*
X89610000Y-93006286D02*
X89610000Y-87550000D01*
X95340000Y-132420000D02*
X96700000Y-133780000D01*
X88386727Y-125720000D02*
X90825000Y-128158273D01*
X90134501Y-87025499D02*
X90230000Y-87025499D01*
X54630000Y-102340000D02*
X55070000Y-102780000D01*
X55070000Y-102780000D02*
X65900000Y-102780000D01*
X89610000Y-87550000D02*
X90134501Y-87025499D01*
X91870000Y-132420000D02*
X95340000Y-132420000D01*
X67830000Y-100850000D02*
X80060000Y-100850000D01*
X80500000Y-100410000D02*
X88420000Y-100410000D01*
X80060000Y-100850000D02*
X80500000Y-100410000D01*
X65900000Y-102780000D02*
X67830000Y-100850000D01*
X89180000Y-99650000D02*
X89180000Y-99590000D01*
%TO.N,/Microprocessor/dir_2*%
X78950000Y-119910000D02*
X88980000Y-119910000D01*
X88980000Y-119910000D02*
X89120000Y-119770000D01*
X77600000Y-99100000D02*
X65770000Y-99100000D01*
X89120000Y-119770000D02*
X89120000Y-119760000D01*
X91680000Y-123010000D02*
X88520000Y-123010000D01*
X78570000Y-119530000D02*
X78950000Y-119910000D01*
X65770000Y-99100000D02*
X65750000Y-99120000D01*
%TO.N,/Microprocessor/step_3*%
X99174999Y-110350999D02*
X99174999Y-109711826D01*
X94553173Y-105090000D02*
X93406000Y-105090000D01*
X99174999Y-128765001D02*
X99174999Y-110350999D01*
X87818000Y-58100000D02*
X88425000Y-58707000D01*
X88425000Y-82329000D02*
X92898000Y-86802000D01*
X92898000Y-86802000D02*
X92898000Y-100518000D01*
X99174999Y-109711826D02*
X94553173Y-105090000D01*
X86802000Y-58100000D02*
X87818000Y-58100000D01*
X96700000Y-131240000D02*
X99174999Y-128765001D01*
X92898000Y-100518000D02*
X96581000Y-104201000D01*
X88425000Y-58707000D02*
X88425000Y-82329000D01*
%TO.N,/Microprocessor/dir_3*%
X87600000Y-59300000D02*
X87600000Y-83300000D01*
X99800000Y-109300000D02*
X99800000Y-131600000D01*
X98985000Y-132415000D02*
X96213299Y-132415000D01*
X95038299Y-131240000D02*
X94160000Y-131240000D01*
X96213299Y-132415000D02*
X95038299Y-131240000D01*
X99800000Y-131600000D02*
X98985000Y-132415000D01*
X92370000Y-101870000D02*
X99800000Y-109300000D01*
X87600000Y-83300000D02*
X92370000Y-88070000D01*
X92370000Y-88070000D02*
X92370000Y-101870000D01*
%TO.N,/Microprocessor/3to5_3/in*%
X83000000Y-135250000D02*
X73250000Y-135250000D01*
X69075000Y-131075000D02*
X69075000Y-130075000D01*
X56000000Y-129000000D02*
X49750000Y-122750000D01*
X69075000Y-130075000D02*
X68000000Y-129000000D01*
X73250000Y-135250000D02*
X69075000Y-131075000D01*
X68000000Y-129000000D02*
X56000000Y-129000000D01*
%TO.N,/Microprocessor/3to5_4/in*%
X83754000Y-124648000D02*
X80198000Y-124648000D01*
X63601000Y-122275000D02*
X62505000Y-122275000D01*
X77732773Y-123700000D02*
X65026000Y-123700000D01*
X55546500Y-120824500D02*
X49475000Y-120824500D01*
X80198000Y-124648000D02*
X78875000Y-123325000D01*
X62164000Y-122616000D02*
X57338000Y-122616000D01*
X62505000Y-122275000D02*
X62164000Y-122616000D01*
X78875000Y-123325000D02*
X78107773Y-123325000D01*
X65026000Y-123700000D02*
X63601000Y-122275000D01*
X57338000Y-122616000D02*
X55546500Y-120824500D01*
X78107773Y-123325000D02*
X77732773Y-123700000D01*
%TO.N,/Microprocessor/3to5_7/in*%
X55078427Y-111750000D02*
X67250000Y-111750000D01*
X67250000Y-111750000D02*
X67425000Y-111575000D01*
X76750000Y-136250000D02*
X68000000Y-136250000D01*
X68000000Y-136250000D02*
X67250000Y-135500000D01*
%TO.N,/Microprocessor/3to5_8/in*%
X56183273Y-124150000D02*
X78449500Y-124150000D01*
X47800000Y-121350000D02*
X48099500Y-121649500D01*
X53682773Y-121649500D02*
X56133273Y-124100000D01*
X48099500Y-121649500D02*
X53682773Y-121649500D01*
X56133273Y-124100000D02*
X56183273Y-124150000D01*
%TO.N,/Microprocessor/3to5_6/in*%
X86935727Y-124394000D02*
X86294000Y-123752273D01*
X92390000Y-124394000D02*
X86935727Y-124394000D01*
X62275500Y-116520000D02*
X47940000Y-116520000D01*
X85416727Y-122875000D02*
X77271000Y-122875000D01*
X47686000Y-116520000D02*
X47432000Y-116774000D01*
X86294000Y-123752273D02*
X85416727Y-122875000D01*
X47940000Y-116520000D02*
X47686000Y-116520000D01*
X64837396Y-122875000D02*
X63054396Y-121092000D01*
X77271000Y-122875000D02*
X64837396Y-122875000D01*
X63054396Y-121092000D02*
X62164000Y-121092000D01*
%TO.N,/Microprocessor/3to5_9/in*%
X55800001Y-99099999D02*
X55700000Y-99200000D01*
X61020001Y-99099999D02*
X55800001Y-99099999D01*
%TO.N,/Microprocessor/3to5_10/in*%
X54000000Y-106250000D02*
X48500000Y-106250000D01*
X47000000Y-107000000D02*
X35500000Y-107000000D01*
X47750000Y-107000000D02*
X47000000Y-107000000D01*
X54425000Y-84355000D02*
X48145000Y-84355000D01*
X48500000Y-106250000D02*
X47750000Y-107000000D01*
X48145000Y-84355000D02*
X47750000Y-84750000D01*
X55750000Y-83030000D02*
X54425000Y-84355000D01*
X55750000Y-54500000D02*
X55750000Y-83030000D01*
%TO.N,/Peripherals/rs485-*%
X58862000Y-167574000D02*
X63488000Y-172200000D01*
X137179000Y-169775000D02*
X160293000Y-169775000D01*
X134754000Y-172200000D02*
X137179000Y-169775000D01*
X63488000Y-172200000D02*
X134754000Y-172200000D01*
%TO.N,/Peripherals/rs485+*%
X65324000Y-171750000D02*
X134567604Y-171750000D01*
X154112000Y-168844000D02*
X154960000Y-167996000D01*
X137473604Y-168844000D02*
X154112000Y-168844000D01*
X58862000Y-165288000D02*
X65324000Y-171750000D01*
X134567604Y-171750000D02*
X137473604Y-168844000D01*
%TO.N,/Microprocessor/rs485_di*%
X58354000Y-156906000D02*
X57783000Y-157477000D01*
X57783000Y-157477000D02*
X45973396Y-157477000D01*
X45973396Y-157477000D02*
X44957396Y-158493000D01*
X44957396Y-158493000D02*
X23111000Y-158493000D01*
%TO.N,/Microprocessor/rs485_ro*%
X45209000Y-157605000D02*
X46162000Y-156652000D01*
X46162000Y-156652000D02*
X56830000Y-156652000D01*
X24635000Y-157605000D02*
X45209000Y-157605000D01*
%TO.N,/Microprocessor/rs485_rw*%
X23048000Y-160208000D02*
X41590000Y-160208000D01*
X41590000Y-160208000D02*
X42098000Y-159700000D01*
%TO.N,/Microprocessor/3to5_12/in*%
X56300000Y-123100000D02*
X63100000Y-123100000D01*
X82625000Y-159925000D02*
X112975000Y-159925000D01*
X115225000Y-157675000D02*
X122543556Y-157675000D01*
X130213557Y-157113557D02*
X131900000Y-158800000D01*
X123104999Y-157113557D02*
X130213557Y-157113557D01*
X80000000Y-157300000D02*
X82625000Y-159925000D01*
X122543556Y-157675000D02*
X123104999Y-157113557D01*
X112975000Y-159925000D02*
X115225000Y-157675000D01*
X62900000Y-147800000D02*
X68124500Y-147800000D01*
%TO.N,/Microprocessor/3to5_13/in*%
X92027208Y-162990812D02*
X93593020Y-161425000D01*
X61075000Y-109825000D02*
X61300000Y-109600000D01*
X123178375Y-161425000D02*
X124528375Y-160075000D01*
X53700000Y-109700000D02*
X59000000Y-109700000D01*
X143300000Y-152700000D02*
X144000000Y-153400000D01*
X61300000Y-109600000D02*
X64800000Y-109600000D01*
X72209188Y-162990812D02*
X92027208Y-162990812D01*
X64800000Y-109600000D02*
X65500000Y-110300000D01*
X71118376Y-161900000D02*
X72209188Y-162990812D01*
X65500000Y-150000000D02*
X65500000Y-156200000D01*
X59000000Y-109700000D02*
X59125000Y-109825000D01*
X140679111Y-152700000D02*
X143300000Y-152700000D01*
X53100000Y-110300000D02*
X53700000Y-109700000D01*
X93593020Y-161425000D02*
X123178375Y-161425000D01*
X144000000Y-153400000D02*
X144000000Y-157600000D01*
X124528375Y-160075000D02*
X133304111Y-160075000D01*
X65500000Y-156281624D02*
X71118376Y-161900000D01*
X133304111Y-160075000D02*
X140679111Y-152700000D01*
X59125000Y-109825000D02*
X61075000Y-109825000D01*
X65500000Y-156200000D02*
X65500000Y-156281624D01*
X144000000Y-157600000D02*
X142700000Y-158900000D01*
%TO.N,/Microprocessor/3to5_15/in*%
X36753910Y-120000000D02*
X66400000Y-120000000D01*
%TO.N,/Microprocessor/3to5_14/in*%
X32400000Y-143400000D02*
X33936396Y-143400000D01*
X72081980Y-163500000D02*
X91900000Y-163500000D01*
X26800000Y-143100000D02*
X27100000Y-143400000D01*
X61258980Y-152677000D02*
X62340990Y-153759010D01*
X62340990Y-153759010D02*
X71100000Y-162518020D01*
X123600000Y-161639771D02*
X123939771Y-161300000D01*
X120715076Y-164524695D02*
X123600000Y-161639771D01*
X33936396Y-143400000D02*
X43213396Y-152677000D01*
X123939771Y-161300000D02*
X130224500Y-161300000D01*
X71100000Y-162518020D02*
X72081980Y-163500000D01*
X43213396Y-152677000D02*
X61258980Y-152677000D01*
X27100000Y-143400000D02*
X32400000Y-143400000D01*
X24200000Y-140500000D02*
X26800000Y-143100000D01*
X91900000Y-163500000D02*
X92924695Y-164524695D01*
X92924695Y-164524695D02*
X120715076Y-164524695D01*
%TO.N,/Microprocessor/out_15*%
X134700000Y-157500000D02*
X139972600Y-152227400D01*
X139972600Y-152215000D02*
X153670000Y-152215000D01*
X139972600Y-152227400D02*
X139972600Y-152215000D01*
%TO.N,/Microprocessor/out_16*%
X153670000Y-149445000D02*
X135442600Y-149445000D01*
X135442600Y-149445000D02*
X134093800Y-150793800D01*
%TO.N,/Microprocessor/out_21*%
X139800000Y-159300000D02*
X140051500Y-159300000D01*
X135768020Y-161550000D02*
X138500000Y-161550000D01*
X64100000Y-164290812D02*
X67159188Y-167350000D01*
X67159188Y-167350000D02*
X79145852Y-167350000D01*
X64100000Y-160200000D02*
X64100000Y-164290812D01*
X139100000Y-160000000D02*
X139800000Y-159300000D01*
X88491422Y-167224695D02*
X130093325Y-167224695D01*
X87623727Y-166357000D02*
X88491422Y-167224695D01*
X139677000Y-140623000D02*
X141326000Y-140623000D01*
X138500000Y-161550000D02*
X138650000Y-161550000D01*
X80138852Y-166357000D02*
X80800000Y-166357000D01*
X139100000Y-161100000D02*
X139100000Y-160000000D01*
X138650000Y-161550000D02*
X139100000Y-161100000D01*
X79145852Y-167350000D02*
X80138852Y-166357000D01*
X130093325Y-167224695D02*
X135768020Y-161550000D01*
X80800000Y-166357000D02*
X87623727Y-166357000D01*
%TO.N,/Microprocessor/3to5_16/in*%
X54800000Y-95700000D02*
X53500000Y-97000000D01*
X53500000Y-97000000D02*
X45500000Y-97000000D01*
X55600000Y-95700000D02*
X54800000Y-95700000D01*
%TO.N,/Microprocessor/spin_pwm*%
X152588000Y-168082000D02*
X153604000Y-167066000D01*
X134381208Y-171300000D02*
X137599208Y-168082000D01*
X137599208Y-168082000D02*
X152588000Y-168082000D01*
X67160000Y-171300000D02*
X134381208Y-171300000D01*
X66736000Y-170876000D02*
X67160000Y-171300000D01*
X153604000Y-167066000D02*
X155890000Y-167066000D01*
%TO.N,Net-(D11-Pad2)*%
X40000000Y-104900000D02*
X40053910Y-104846090D01*
X40053910Y-104846090D02*
X69200000Y-104846090D01*
X133250000Y-166850000D02*
X133250000Y-165977208D01*
X69621090Y-105221090D02*
X71721090Y-105221090D01*
X85400000Y-168500000D02*
X85474695Y-168574695D01*
X136941727Y-163775000D02*
X138125000Y-163775000D01*
X39240520Y-105220590D02*
X39679410Y-105220590D01*
X39679410Y-105220590D02*
X40000000Y-104900000D01*
X69575000Y-105221090D02*
X69621090Y-105221090D01*
X85474695Y-168574695D02*
X131525305Y-168574695D01*
X133250000Y-165977208D02*
X135452208Y-163775000D01*
X138125000Y-163775000D02*
X138500000Y-163400000D01*
X69200000Y-104846090D02*
X69575000Y-105221090D01*
X131525305Y-168574695D02*
X133250000Y-166850000D01*
X135452208Y-163775000D02*
X136941727Y-163775000D01*
X85400000Y-168200195D02*
X85400000Y-168500000D01*
X71721090Y-105221090D02*
X72600000Y-106100000D01*
%TO.N,Net-(D12-Pad2)*%
X73600000Y-105933273D02*
X73600000Y-108000000D01*
X73600000Y-108100000D02*
X72400000Y-109300000D01*
X132331802Y-166495406D02*
X132331802Y-165622614D01*
X140000000Y-161333273D02*
X140000000Y-160600000D01*
X74600000Y-125000000D02*
X74824500Y-125000000D01*
X73416727Y-125000000D02*
X74600000Y-125000000D01*
X72200000Y-125000000D02*
X73416727Y-125000000D01*
X69387183Y-103946090D02*
X69762183Y-103571090D01*
X79100000Y-149900000D02*
X87000000Y-157800000D01*
X73600000Y-108000000D02*
X73600000Y-108100000D01*
X32300000Y-105047273D02*
X33776183Y-103571090D01*
X33776183Y-103571090D02*
X37725000Y-103571090D01*
X135954416Y-162000000D02*
X139333273Y-162000000D01*
X87774695Y-167674695D02*
X131152513Y-167674695D01*
X132331802Y-165622614D02*
X135954416Y-162000000D01*
X69762183Y-103571090D02*
X71237817Y-103571090D01*
X49353910Y-103946090D02*
X68100000Y-103946090D01*
X139333273Y-162000000D02*
X140000000Y-161333273D01*
X87000000Y-157800000D02*
X87000000Y-159100000D01*
X87400000Y-167300000D02*
X87774695Y-167674695D01*
X71237817Y-103571090D02*
X73600000Y-105933273D01*
X38100000Y-103946090D02*
X49353910Y-103946090D01*
X131152513Y-167674695D02*
X132331802Y-166495406D01*
X68100000Y-103946090D02*
X69387183Y-103946090D01*
X37725000Y-103571090D02*
X38100000Y-103946090D01*
%TO.N,Net-(D13-Pad2)*%
X41077000Y-154477000D02*
X60513396Y-154477000D01*
X78550000Y-166450000D02*
X79543000Y-165457000D01*
X36800000Y-150200000D02*
X40700000Y-154100000D01*
X36750000Y-150200000D02*
X36800000Y-150200000D01*
X65375000Y-160838604D02*
X70986396Y-166450000D01*
X70986396Y-166450000D02*
X78450000Y-166450000D01*
X135274695Y-160650000D02*
X136700000Y-160650000D01*
X65375000Y-159338604D02*
X65375000Y-160838604D01*
X89124695Y-166324695D02*
X129600000Y-166324695D01*
X60513396Y-154477000D02*
X65375000Y-159338604D01*
X88257000Y-165457000D02*
X89124695Y-166324695D01*
X129600000Y-166324695D02*
X135274695Y-160650000D01*
X141275000Y-157275000D02*
X141800000Y-157800000D01*
X79543000Y-165457000D02*
X88257000Y-165457000D01*
X40700000Y-154100000D02*
X41077000Y-154477000D01*
X136700000Y-160650000D02*
X140075000Y-157275000D01*
X140075000Y-157275000D02*
X141275000Y-157275000D01*
X78450000Y-166450000D02*
X78550000Y-166450000D01*
%TO.N,Net-(D14-Pad2)*%
X86600000Y-168124695D02*
X131338909Y-168124695D01*
X83858773Y-168574695D02*
X85058273Y-167375195D01*
X45923000Y-155377000D02*
X59877000Y-155377000D01*
X39550000Y-156050000D02*
X45250000Y-156050000D01*
X132781802Y-165809010D02*
X136090812Y-162500000D01*
X76736396Y-167800000D02*
X77511091Y-168574695D01*
X85058273Y-167375195D02*
X85850500Y-167375195D01*
X60886396Y-161713604D02*
X66972792Y-167800000D01*
X38316853Y-154816853D02*
X39550000Y-156050000D01*
X85850500Y-167375195D02*
X86600000Y-168124695D01*
X60886396Y-156386396D02*
X60886396Y-161713604D01*
X132781802Y-166681802D02*
X132781802Y-165809010D01*
X66972792Y-167800000D02*
X76736396Y-167800000D01*
X59877000Y-155377000D02*
X60886396Y-156386396D01*
X131338909Y-168124695D02*
X132781802Y-166681802D01*
X77511091Y-168574695D02*
X83858773Y-168574695D01*
X45250000Y-156050000D02*
X45923000Y-155377000D01*
X136090812Y-162500000D02*
X140000000Y-162500000D01*
%TO.N,Net-(D15-Pad2)*%
X32800000Y-146300000D02*
X35366727Y-146300000D01*
X129227208Y-165424695D02*
X132625952Y-162025951D01*
X139702208Y-156375000D02*
X140352208Y-155725000D01*
X141675000Y-155725000D02*
X142300000Y-155100000D01*
X79200000Y-164400000D02*
X88775305Y-164400000D01*
X136577208Y-159500000D02*
X139702208Y-156375000D01*
X66400000Y-159090812D02*
X66400000Y-160590812D01*
X132625952Y-162025951D02*
X135013299Y-159638604D01*
X140352208Y-155725000D02*
X141675000Y-155725000D01*
X78050000Y-165550000D02*
X79200000Y-164400000D01*
X71359188Y-165550000D02*
X77950000Y-165550000D01*
X77950000Y-165550000D02*
X78050000Y-165550000D01*
X60886188Y-153577000D02*
X66400000Y-159090812D01*
X135151903Y-159500000D02*
X136577208Y-159500000D01*
X42643727Y-153577000D02*
X60886188Y-153577000D01*
X35366727Y-146300000D02*
X42643727Y-153577000D01*
X135013299Y-159638604D02*
X135151903Y-159500000D01*
X89800000Y-165424695D02*
X129227208Y-165424695D01*
X66400000Y-160590812D02*
X71359188Y-165550000D01*
X88775305Y-164400000D02*
X89800000Y-165424695D01*
%TO.N,Net-(D16-Pad2)*%
X135700000Y-166800000D02*
X135700000Y-168077604D01*
X36300000Y-163900000D02*
X35800000Y-163400000D01*
X75100305Y-169775000D02*
X68725000Y-169775000D01*
X58640727Y-163900000D02*
X36300000Y-163900000D01*
X68725000Y-169775000D02*
X68600000Y-169900000D01*
X75700000Y-170374695D02*
X75100305Y-169775000D01*
X68600000Y-169900000D02*
X64640727Y-169900000D01*
X64640727Y-169900000D02*
X58640727Y-163900000D01*
X133402909Y-170374695D02*
X75700000Y-170374695D01*
X135700000Y-168077604D02*
X133402909Y-170374695D01*
%TO.N,Net-(D17-Pad2)*%
X91550000Y-163950000D02*
X92574695Y-164974695D01*
X123451167Y-162425000D02*
X131590507Y-162425000D01*
X88961701Y-163950000D02*
X91550000Y-163950000D01*
X120901472Y-164974695D02*
X123451167Y-162425000D01*
X34300000Y-144596877D02*
X42830123Y-153127000D01*
X61072584Y-153127000D02*
X66272792Y-158327208D01*
X77863604Y-165100000D02*
X78800000Y-164163604D01*
X66272792Y-158327208D02*
X67000000Y-159054416D01*
X136520406Y-158920406D02*
X141165812Y-154275000D01*
X42830123Y-153127000D02*
X61072584Y-153127000D01*
X141165812Y-154275000D02*
X141640812Y-153800000D01*
X78800000Y-164163604D02*
X79013604Y-163950000D01*
X71545584Y-165100000D02*
X77863604Y-165100000D01*
X92574695Y-164974695D02*
X120901472Y-164974695D01*
X34300000Y-144400000D02*
X34300000Y-144596877D01*
X67000000Y-160554416D02*
X71545584Y-165100000D01*
X67000000Y-159054416D02*
X67000000Y-160554416D01*
X135095101Y-158920406D02*
X136520406Y-158920406D01*
X141640812Y-153800000D02*
X142800000Y-153800000D01*
X32400000Y-144400000D02*
X34300000Y-144400000D01*
X79013604Y-163950000D02*
X88961701Y-163950000D01*
X131590507Y-162425000D02*
X135095101Y-158920406D01*
%TO.N,Net-(D18-Pad2)*%
X59327000Y-155827000D02*
X60200000Y-156700000D01*
X44400000Y-156500000D02*
X45400000Y-156500000D01*
X76550000Y-168250000D02*
X77324695Y-169024695D01*
X45400000Y-156500000D02*
X45500000Y-156500000D01*
X34600000Y-156500000D02*
X44400000Y-156500000D01*
X133700000Y-166163604D02*
X135263604Y-164600000D01*
X60200000Y-161663604D02*
X66736396Y-168200000D01*
X131275305Y-169024695D02*
X131775305Y-169024695D01*
X133700000Y-167100000D02*
X133700000Y-166163604D01*
X66736396Y-168200000D02*
X66786396Y-168250000D01*
X66786396Y-168250000D02*
X76225305Y-168250000D01*
X46100000Y-155900000D02*
X46173000Y-155827000D01*
X60200000Y-156700000D02*
X60200000Y-161663604D01*
X135263604Y-164600000D02*
X136600000Y-164600000D01*
X131775305Y-169024695D02*
X133700000Y-167100000D01*
X77324695Y-169024695D02*
X131275305Y-169024695D01*
X76225305Y-168250000D02*
X76550000Y-168250000D01*
X45500000Y-156500000D02*
X46100000Y-155900000D01*
X46173000Y-155827000D02*
X59327000Y-155827000D01*
%TO.N,Net-(D19-Pad2)*%
X41927000Y-154027000D02*
X60699792Y-154027000D01*
X135088299Y-160200000D02*
X136513604Y-160200000D01*
X139888604Y-156825000D02*
X141625000Y-156825000D01*
X89311091Y-165874695D02*
X129413604Y-165874695D01*
X79356604Y-165007000D02*
X88443396Y-165007000D01*
X36000000Y-148100000D02*
X41927000Y-154027000D01*
X78363604Y-166000000D02*
X79356604Y-165007000D01*
X141625000Y-156825000D02*
X141900000Y-156550000D01*
X129413604Y-165874695D02*
X135088299Y-160200000D01*
X65900000Y-160727208D02*
X71172792Y-166000000D01*
X60699792Y-154027000D02*
X65900000Y-159227208D01*
X71172792Y-166000000D02*
X78363604Y-166000000D01*
X65900000Y-159227208D02*
X65900000Y-160727208D01*
X136513604Y-160200000D02*
X139888604Y-156825000D01*
X88443396Y-165007000D02*
X89311091Y-165874695D01*
%TO.N,Net-(D20-Pad2)*%
X45063604Y-155600000D02*
X45736604Y-154927000D01*
X78959456Y-166900000D02*
X79952456Y-165907000D01*
X39141853Y-153841853D02*
X39141853Y-155005457D01*
X64925000Y-159525000D02*
X64925000Y-161025000D01*
X45736604Y-154927000D02*
X60327000Y-154927000D01*
X138650000Y-160100000D02*
X138650000Y-159534773D01*
X138650000Y-159534773D02*
X140084773Y-158100000D01*
X60327000Y-154927000D02*
X61200000Y-155800000D01*
X140084773Y-158100000D02*
X140501500Y-158100000D01*
X87810123Y-165907000D02*
X88677818Y-166774695D01*
X39736396Y-155600000D02*
X45063604Y-155600000D01*
X70800000Y-166900000D02*
X78300000Y-166900000D01*
X135574695Y-161100000D02*
X138300000Y-161100000D01*
X138400000Y-161100000D02*
X138650000Y-160850000D01*
X138300000Y-161100000D02*
X138400000Y-161100000D01*
X79952456Y-165907000D02*
X87810123Y-165907000D01*
X138650000Y-160850000D02*
X138650000Y-160100000D01*
X37200000Y-151900000D02*
X39141853Y-153841853D01*
X78300000Y-166900000D02*
X78959456Y-166900000D01*
X61200000Y-155800000D02*
X64925000Y-159525000D01*
X129900000Y-166774695D02*
X135574695Y-161100000D01*
X64925000Y-161025000D02*
X70800000Y-166900000D01*
X88677818Y-166774695D02*
X129900000Y-166774695D01*
X39141853Y-155005457D02*
X39736396Y-155600000D01*
%TO.N,/Microprocessor/pdi*%
X64470000Y-58593604D02*
X64470000Y-69710000D01*
X67940000Y-55123604D02*
X64480000Y-58583604D01*
X37272000Y-112456000D02*
X37803000Y-111925000D01*
X25842000Y-112456000D02*
X25588000Y-112202000D01*
X61400000Y-101700000D02*
X65600000Y-101700000D01*
X37803000Y-111925000D02*
X53736700Y-111925000D01*
X54761700Y-110900000D02*
X61400000Y-110900000D01*
X61600000Y-110900000D02*
X61800000Y-110700000D01*
X70400000Y-50200000D02*
X70400000Y-42700000D01*
X70400000Y-42700000D02*
X70400000Y-41700000D01*
X53736700Y-111925000D02*
X54761700Y-110900000D01*
X61400000Y-110900000D02*
X61600000Y-110900000D01*
X64480000Y-58583604D02*
X64470000Y-58593604D01*
X65600000Y-101700000D02*
X65900000Y-101400000D01*
X67940000Y-50330000D02*
X67940000Y-55123604D01*
X37272000Y-112456000D02*
X25842000Y-112456000D01*
%TO.N,/Microprocessor/reset*%
X74050000Y-77750000D02*
X72000000Y-79800000D01*
X76925000Y-39075000D02*
X74050000Y-41950000D01*
X79141727Y-39075000D02*
X76925000Y-39075000D01*
X74050000Y-41950000D02*
X74050000Y-77750000D01*
X72000000Y-79800000D02*
X62400000Y-79800000D01*
X60889086Y-97909992D02*
X34790008Y-97909992D01*
X80600000Y-40533273D02*
X79141727Y-39075000D01*
X80600000Y-40700000D02*
X80600000Y-40533273D01*
X34790008Y-97909992D02*
X32400000Y-100300000D01*
X37272000Y-111186000D02*
X24572000Y-111186000D01*
%TO.N,/Peripherals/spin_0to10*%
X105640000Y-134870000D02*
X101240000Y-130470000D01*
X75150000Y-170850000D02*
X74800000Y-170500000D01*
X101240000Y-130470000D02*
X101240000Y-125500000D01*
X150830000Y-142520000D02*
X137764000Y-142520000D01*
X129790000Y-134870000D02*
X105640000Y-134870000D01*
X137602000Y-142682000D02*
X129790000Y-134870000D01*
X137764000Y-142520000D02*
X137602000Y-142682000D01*
X137602000Y-166812000D02*
X133564000Y-170850000D01*
X133564000Y-170850000D02*
X75150000Y-170850000D01*
%TO.N,/Microprocessor/sda*%
X77100000Y-40100000D02*
X74500000Y-42700000D01*
X71300000Y-102600000D02*
X70800000Y-102100000D01*
X48325000Y-137625000D02*
X64375000Y-137625000D01*
X65200000Y-107500000D02*
X69433273Y-107500000D01*
X74500000Y-82675000D02*
X59491727Y-82675000D01*
X72975000Y-110125000D02*
X74135000Y-108965000D01*
X47400000Y-136700000D02*
X48325000Y-137625000D01*
X70100000Y-98200000D02*
X74500000Y-93800000D01*
X48861727Y-84805000D02*
X48086727Y-85580000D01*
X41250000Y-81000000D02*
X41250000Y-75600000D01*
X74500000Y-42700000D02*
X74500000Y-82675000D01*
X41250000Y-75600000D02*
X41250000Y-71250000D01*
X48086727Y-85580000D02*
X45830000Y-85580000D01*
X59491727Y-82675000D02*
X57361727Y-84805000D01*
X57361727Y-84805000D02*
X48861727Y-84805000D01*
X69433273Y-107500000D02*
X72058273Y-110125000D01*
X45830000Y-85580000D02*
X41250000Y-81000000D01*
X74135000Y-105435000D02*
X71300000Y-102600000D01*
X72058273Y-110125000D02*
X72975000Y-110125000D01*
X43800000Y-136700000D02*
X47400000Y-136700000D01*
X74135000Y-108965000D02*
X74135000Y-105435000D01*
X70800000Y-102100000D02*
X69800000Y-102100000D01*
%TO.N,/Microprocessor/scl*%
X75700000Y-85900000D02*
X75700000Y-87700000D01*
X78545000Y-99845000D02*
X78716756Y-100016756D01*
X75700000Y-87700000D02*
X76300000Y-88300000D01*
X77100000Y-41374695D02*
X78374695Y-40100000D01*
X78000000Y-88300000D02*
X79208010Y-89508010D01*
X75675000Y-81275000D02*
X75675000Y-81175000D01*
X67414338Y-100485662D02*
X68055000Y-99845000D01*
X78716756Y-100016756D02*
X78834500Y-100016756D01*
X60214338Y-100485662D02*
X67414338Y-100485662D01*
X74500000Y-85215000D02*
X69215000Y-85215000D01*
X57870000Y-86800000D02*
X27300000Y-86800000D01*
X75675000Y-81175000D02*
X74950000Y-80450000D01*
X74500000Y-85215000D02*
X75015000Y-85215000D01*
X74500000Y-85215000D02*
X75675000Y-84040000D01*
X58110000Y-86560000D02*
X57870000Y-86800000D01*
X76300000Y-88300000D02*
X78000000Y-88300000D01*
X74950000Y-80450000D02*
X74950000Y-43524695D01*
X69215000Y-85215000D02*
X67870000Y-86560000D01*
X67870000Y-86560000D02*
X58110000Y-86560000D01*
X75675000Y-84040000D02*
X75675000Y-81275000D01*
X75015000Y-85215000D02*
X75700000Y-85900000D01*
X47900000Y-136000000D02*
X58800000Y-136000000D01*
X27300000Y-86800000D02*
X24000000Y-83500000D01*
X74950000Y-43524695D02*
X77100000Y-41374695D01*
X78374695Y-40100000D02*
X78574695Y-39900000D01*
X78574695Y-39900000D02*
X78800000Y-39900000D01*
X58800000Y-136000000D02*
X59600000Y-136800000D01*
X68055000Y-99845000D02*
X78545000Y-99845000D01*
%TO.N,/Microprocessor/serial_rx*%
X67900000Y-43915000D02*
X69536443Y-45551443D01*
X69536443Y-54863557D02*
X68200000Y-56200000D01*
X69100000Y-42715000D02*
X69100000Y-34400000D01*
X59575945Y-132875945D02*
X59575945Y-132893068D01*
X49800000Y-132000000D02*
X49925000Y-132125000D01*
X69536443Y-54363557D02*
X69536443Y-54863557D01*
X58825000Y-132125000D02*
X59575945Y-132875945D01*
X67900000Y-43915000D02*
X69100000Y-42715000D01*
X67500000Y-56900000D02*
X67500000Y-70700000D01*
X60300000Y-109000000D02*
X67600000Y-109000000D01*
X69100000Y-34400000D02*
X70200000Y-33300000D01*
X69536443Y-45551443D02*
X69536443Y-54363557D01*
X49925000Y-132125000D02*
X58825000Y-132125000D01*
X68200000Y-56200000D02*
X67500000Y-56900000D01*
%TO.N,/Microprocessor/serial_tx*%
X69086443Y-54613557D02*
X69086443Y-47641443D01*
X54824302Y-100700000D02*
X54741471Y-100617169D01*
X64300000Y-71533273D02*
X67050000Y-68783273D01*
X58641272Y-100700000D02*
X54824302Y-100700000D01*
X56880000Y-72510000D02*
X56870000Y-72520000D01*
X58033273Y-71533273D02*
X57856727Y-71533273D01*
X67050000Y-68783273D02*
X67050000Y-56650000D01*
X58033273Y-71533273D02*
X64300000Y-71533273D01*
X50900000Y-135300000D02*
X59600000Y-135300000D01*
X58741907Y-100599365D02*
X58641272Y-100700000D01*
X48800000Y-133200000D02*
X50900000Y-135300000D01*
X69086443Y-47641443D02*
X67900000Y-46455000D01*
X57856727Y-71533273D02*
X56880000Y-72510000D01*
X56870000Y-72520000D02*
X56870000Y-82030000D01*
X67050000Y-56650000D02*
X69086443Y-54613557D01*
%TO.N,/Microprocessor/serial_cts*%
X71100000Y-71750000D02*
X69325000Y-69975000D01*
X56300000Y-88600000D02*
X67300000Y-88600000D01*
X54941669Y-101441669D02*
X55800000Y-102300000D01*
X58300000Y-102300000D02*
X58700000Y-101900000D01*
X55800000Y-102300000D02*
X58300000Y-102300000D01*
X71100000Y-71750000D02*
X71100000Y-77600000D01*
X71500000Y-53600000D02*
X71500000Y-44000000D01*
X67300000Y-88600000D02*
X68000000Y-87900000D01*
X54841669Y-101441669D02*
X54941669Y-101441669D01*
X69325000Y-55775000D02*
X71500000Y-53600000D01*
X68000000Y-87900000D02*
X71100000Y-87900000D01*
X51025000Y-131325000D02*
X59425000Y-131325000D01*
X59425000Y-131325000D02*
X59700000Y-131600000D01*
X69325000Y-69975000D02*
X69325000Y-55775000D01*
X53835928Y-101441669D02*
X54841669Y-101441669D01*
X59700000Y-131600000D02*
X59700000Y-131700000D01*
X51000000Y-131300000D02*
X51025000Y-131325000D01*
%TO.N,/Raspberry Pi/5V_sda*%
X31425000Y-40575000D02*
X31425000Y-68675000D01*
X31500000Y-40500000D02*
X31425000Y-40575000D01*
X27750000Y-38170000D02*
X29170000Y-38170000D01*
X29170000Y-38170000D02*
X31500000Y-40500000D01*
X31425000Y-68675000D02*
X32000000Y-69250000D01*
%TO.N,/Raspberry Pi/5V_scl*%
X31500000Y-37250000D02*
X32250000Y-38000000D01*
X27750000Y-35630000D02*
X29880000Y-35630000D01*
X32250000Y-38000000D02*
X32250000Y-63500000D01*
X29880000Y-35630000D02*
X31500000Y-37250000D01*
%TO.N,Net-(Q21-Pad4)*%
X108040000Y-68930000D02*
X104790000Y-68930000D01*
X104790000Y-68930000D02*
X97499998Y-61639998D01*
%TO.N,Net-(R66-Pad1)*%
X68250000Y-130500000D02*
X55000000Y-130500000D01*
%TO.N,Net-(R69-Pad1)*%
X57000000Y-134250000D02*
X68250000Y-134250000D01*
%TO.N,Net-(TP12-Pad1)*%
X28530500Y-113280500D02*
X28500000Y-113280500D01*
X28659000Y-113409000D02*
X28530500Y-113280500D01*
X41409000Y-113409000D02*
X28659000Y-113409000D01*
X42000000Y-114000000D02*
X41409000Y-113409000D01*
%TO.N,Net-(Q20-Pad3)*%
X99400000Y-55000000D02*
X104200000Y-50200000D01*
X104200000Y-50200000D02*
X105000000Y-50200000D01*
%TO.N,Net-(R38-Pad2)*%
X37250000Y-104396090D02*
X70103910Y-104396090D01*
%TD*%
M02*
