%FSLAX45Y45*%
G04 Gerber Fmt 4.5, Leading zero omitted, Abs format (unit mm)*
G04 Created by KiCad (PCBNEW 6.0.6+dfsg-1~bpo11+1) date 2022-11-12 15:24:46*
%MOMM*%
%LPD*%
G01*
G04 APERTURE LIST*
%TA.AperFunction,Profile*%
%ADD10C,0.100000*%
%TD*%
%ADD11C,0.200000*%
%ADD12C,0.300000*%
%ADD13C,0.320000*%
G04 APERTURE END LIST*
D10*
X2000000Y-17500000D02*
X16330000Y-17500000D01*
X16330000Y-17500000D02*
X16330000Y-2000000D01*
X16330000Y-2000000D02*
X2000000Y-2000000D01*
X2000000Y-2000000D02*
X2000000Y-17500000D01*
D11*
D12*
X15605000Y-3130000D02*
X15905000Y-3430000D01*
X15905000Y-3130000D02*
X15605000Y-3430000D01*
X15605000Y-3970000D02*
X15905000Y-4270000D01*
X15905000Y-3970000D02*
X15605000Y-4270000D01*
X15750000Y-7480000D02*
X16050000Y-7780000D01*
X16050000Y-7480000D02*
X15750000Y-7780000D01*
X15750000Y-8480000D02*
X16050000Y-8780000D01*
X16050000Y-8480000D02*
X15750000Y-8780000D01*
X15750000Y-9480000D02*
X16050000Y-9780000D01*
X16050000Y-9480000D02*
X15750000Y-9780000D01*
X15750000Y-10480000D02*
X16050000Y-10780000D01*
X16050000Y-10480000D02*
X15750000Y-10780000D01*
D13*
X8210000Y-4925000D02*
G75*
G03*
X8210000Y-4925000I-160000J0D01*
G01*
X8210000Y-9825000D02*
G75*
G03*
X8210000Y-9825000I-160000J0D01*
G01*
X14010000Y-4925000D02*
G75*
G03*
X14010000Y-4925000I-160000J0D01*
G01*
X14010000Y-9825000D02*
G75*
G03*
X14010000Y-9825000I-160000J0D01*
G01*
D11*
X2252619Y-17815476D02*
X2252619Y-17615476D01*
X2300238Y-17615476D01*
X2328810Y-17625000D01*
X2347857Y-17644048D01*
X2357381Y-17663095D01*
X2366905Y-17701190D01*
X2366905Y-17729762D01*
X2357381Y-17767857D01*
X2347857Y-17786905D01*
X2328810Y-17805952D01*
X2300238Y-17815476D01*
X2252619Y-17815476D01*
X2452619Y-17815476D02*
X2452619Y-17682143D01*
X2452619Y-17720238D02*
X2462143Y-17701190D01*
X2471667Y-17691667D01*
X2490714Y-17682143D01*
X2509762Y-17682143D01*
X2576429Y-17815476D02*
X2576429Y-17682143D01*
X2576429Y-17615476D02*
X2566905Y-17625000D01*
X2576429Y-17634524D01*
X2585952Y-17625000D01*
X2576429Y-17615476D01*
X2576429Y-17634524D01*
X2700238Y-17815476D02*
X2681190Y-17805952D01*
X2671667Y-17786905D01*
X2671667Y-17615476D01*
X2805000Y-17815476D02*
X2785952Y-17805952D01*
X2776429Y-17786905D01*
X2776429Y-17615476D01*
X3033571Y-17815476D02*
X3033571Y-17615476D01*
X3100238Y-17758333D01*
X3166905Y-17615476D01*
X3166905Y-17815476D01*
X3347857Y-17815476D02*
X3347857Y-17710714D01*
X3338333Y-17691667D01*
X3319286Y-17682143D01*
X3281190Y-17682143D01*
X3262143Y-17691667D01*
X3347857Y-17805952D02*
X3328809Y-17815476D01*
X3281190Y-17815476D01*
X3262143Y-17805952D01*
X3252619Y-17786905D01*
X3252619Y-17767857D01*
X3262143Y-17748810D01*
X3281190Y-17739286D01*
X3328809Y-17739286D01*
X3347857Y-17729762D01*
X3443095Y-17682143D02*
X3443095Y-17882143D01*
X3443095Y-17691667D02*
X3462143Y-17682143D01*
X3500238Y-17682143D01*
X3519286Y-17691667D01*
X3528809Y-17701190D01*
X3538333Y-17720238D01*
X3538333Y-17777381D01*
X3528809Y-17796429D01*
X3519286Y-17805952D01*
X3500238Y-17815476D01*
X3462143Y-17815476D01*
X3443095Y-17805952D01*
X3624048Y-17796429D02*
X3633571Y-17805952D01*
X3624048Y-17815476D01*
X3614524Y-17805952D01*
X3624048Y-17796429D01*
X3624048Y-17815476D01*
X3624048Y-17691667D02*
X3633571Y-17701190D01*
X3624048Y-17710714D01*
X3614524Y-17701190D01*
X3624048Y-17691667D01*
X3624048Y-17710714D01*
X1795000Y-18045000D02*
X1995000Y-18245000D01*
X1995000Y-18045000D02*
X1795000Y-18245000D01*
X2233571Y-18035476D02*
X2357381Y-18035476D01*
X2290714Y-18111667D01*
X2319286Y-18111667D01*
X2338333Y-18121190D01*
X2347857Y-18130714D01*
X2357381Y-18149762D01*
X2357381Y-18197381D01*
X2347857Y-18216429D01*
X2338333Y-18225952D01*
X2319286Y-18235476D01*
X2262143Y-18235476D01*
X2243095Y-18225952D01*
X2233571Y-18216429D01*
X2443095Y-18216429D02*
X2452619Y-18225952D01*
X2443095Y-18235476D01*
X2433571Y-18225952D01*
X2443095Y-18216429D01*
X2443095Y-18235476D01*
X2576429Y-18035476D02*
X2595476Y-18035476D01*
X2614524Y-18045000D01*
X2624048Y-18054524D01*
X2633571Y-18073571D01*
X2643095Y-18111667D01*
X2643095Y-18159286D01*
X2633571Y-18197381D01*
X2624048Y-18216429D01*
X2614524Y-18225952D01*
X2595476Y-18235476D01*
X2576429Y-18235476D01*
X2557381Y-18225952D01*
X2547857Y-18216429D01*
X2538333Y-18197381D01*
X2528810Y-18159286D01*
X2528810Y-18111667D01*
X2538333Y-18073571D01*
X2547857Y-18054524D01*
X2557381Y-18045000D01*
X2576429Y-18035476D01*
X2766905Y-18035476D02*
X2785952Y-18035476D01*
X2805000Y-18045000D01*
X2814524Y-18054524D01*
X2824048Y-18073571D01*
X2833571Y-18111667D01*
X2833571Y-18159286D01*
X2824048Y-18197381D01*
X2814524Y-18216429D01*
X2805000Y-18225952D01*
X2785952Y-18235476D01*
X2766905Y-18235476D01*
X2747857Y-18225952D01*
X2738333Y-18216429D01*
X2728810Y-18197381D01*
X2719286Y-18159286D01*
X2719286Y-18111667D01*
X2728810Y-18073571D01*
X2738333Y-18054524D01*
X2747857Y-18045000D01*
X2766905Y-18035476D01*
X2957381Y-18035476D02*
X2976428Y-18035476D01*
X2995476Y-18045000D01*
X3005000Y-18054524D01*
X3014524Y-18073571D01*
X3024048Y-18111667D01*
X3024048Y-18159286D01*
X3014524Y-18197381D01*
X3005000Y-18216429D01*
X2995476Y-18225952D01*
X2976428Y-18235476D01*
X2957381Y-18235476D01*
X2938333Y-18225952D01*
X2928809Y-18216429D01*
X2919286Y-18197381D01*
X2909762Y-18159286D01*
X2909762Y-18111667D01*
X2919286Y-18073571D01*
X2928809Y-18054524D01*
X2938333Y-18045000D01*
X2957381Y-18035476D01*
X3109762Y-18235476D02*
X3109762Y-18102143D01*
X3109762Y-18121190D02*
X3119286Y-18111667D01*
X3138333Y-18102143D01*
X3166905Y-18102143D01*
X3185952Y-18111667D01*
X3195476Y-18130714D01*
X3195476Y-18235476D01*
X3195476Y-18130714D02*
X3205000Y-18111667D01*
X3224048Y-18102143D01*
X3252619Y-18102143D01*
X3271667Y-18111667D01*
X3281190Y-18130714D01*
X3281190Y-18235476D01*
X3376428Y-18235476D02*
X3376428Y-18102143D01*
X3376428Y-18121190D02*
X3385952Y-18111667D01*
X3405000Y-18102143D01*
X3433571Y-18102143D01*
X3452619Y-18111667D01*
X3462143Y-18130714D01*
X3462143Y-18235476D01*
X3462143Y-18130714D02*
X3471667Y-18111667D01*
X3490714Y-18102143D01*
X3519286Y-18102143D01*
X3538333Y-18111667D01*
X3547857Y-18130714D01*
X3547857Y-18235476D01*
X3938333Y-18025952D02*
X3766905Y-18283095D01*
X4195476Y-18035476D02*
X4214524Y-18035476D01*
X4233571Y-18045000D01*
X4243095Y-18054524D01*
X4252619Y-18073571D01*
X4262143Y-18111667D01*
X4262143Y-18159286D01*
X4252619Y-18197381D01*
X4243095Y-18216429D01*
X4233571Y-18225952D01*
X4214524Y-18235476D01*
X4195476Y-18235476D01*
X4176428Y-18225952D01*
X4166905Y-18216429D01*
X4157381Y-18197381D01*
X4147857Y-18159286D01*
X4147857Y-18111667D01*
X4157381Y-18073571D01*
X4166905Y-18054524D01*
X4176428Y-18045000D01*
X4195476Y-18035476D01*
X4347857Y-18216429D02*
X4357381Y-18225952D01*
X4347857Y-18235476D01*
X4338333Y-18225952D01*
X4347857Y-18216429D01*
X4347857Y-18235476D01*
X4547857Y-18235476D02*
X4433571Y-18235476D01*
X4490714Y-18235476D02*
X4490714Y-18035476D01*
X4471667Y-18064048D01*
X4452619Y-18083095D01*
X4433571Y-18092619D01*
X4738333Y-18235476D02*
X4624048Y-18235476D01*
X4681190Y-18235476D02*
X4681190Y-18035476D01*
X4662143Y-18064048D01*
X4643095Y-18083095D01*
X4624048Y-18092619D01*
X4852619Y-18121190D02*
X4833571Y-18111667D01*
X4824048Y-18102143D01*
X4814524Y-18083095D01*
X4814524Y-18073571D01*
X4824048Y-18054524D01*
X4833571Y-18045000D01*
X4852619Y-18035476D01*
X4890714Y-18035476D01*
X4909762Y-18045000D01*
X4919286Y-18054524D01*
X4928810Y-18073571D01*
X4928810Y-18083095D01*
X4919286Y-18102143D01*
X4909762Y-18111667D01*
X4890714Y-18121190D01*
X4852619Y-18121190D01*
X4833571Y-18130714D01*
X4824048Y-18140238D01*
X4814524Y-18159286D01*
X4814524Y-18197381D01*
X4824048Y-18216429D01*
X4833571Y-18225952D01*
X4852619Y-18235476D01*
X4890714Y-18235476D01*
X4909762Y-18225952D01*
X4919286Y-18216429D01*
X4928810Y-18197381D01*
X4928810Y-18159286D01*
X4919286Y-18140238D01*
X4909762Y-18130714D01*
X4890714Y-18121190D01*
X5119286Y-18235476D02*
X5005000Y-18235476D01*
X5062143Y-18235476D02*
X5062143Y-18035476D01*
X5043095Y-18064048D01*
X5024048Y-18083095D01*
X5005000Y-18092619D01*
X5195476Y-18035476D02*
X5195476Y-18073571D01*
X5271667Y-18035476D02*
X5271667Y-18073571D01*
X5566905Y-18311667D02*
X5557381Y-18302143D01*
X5538333Y-18273571D01*
X5528810Y-18254524D01*
X5519286Y-18225952D01*
X5509762Y-18178333D01*
X5509762Y-18140238D01*
X5519286Y-18092619D01*
X5528810Y-18064048D01*
X5538333Y-18045000D01*
X5557381Y-18016429D01*
X5566905Y-18006905D01*
X5728809Y-18035476D02*
X5690714Y-18035476D01*
X5671667Y-18045000D01*
X5662143Y-18054524D01*
X5643095Y-18083095D01*
X5633571Y-18121190D01*
X5633571Y-18197381D01*
X5643095Y-18216429D01*
X5652619Y-18225952D01*
X5671667Y-18235476D01*
X5709762Y-18235476D01*
X5728809Y-18225952D01*
X5738333Y-18216429D01*
X5747857Y-18197381D01*
X5747857Y-18149762D01*
X5738333Y-18130714D01*
X5728809Y-18121190D01*
X5709762Y-18111667D01*
X5671667Y-18111667D01*
X5652619Y-18121190D01*
X5643095Y-18130714D01*
X5633571Y-18149762D01*
X5985952Y-18235476D02*
X5985952Y-18035476D01*
X6071667Y-18235476D02*
X6071667Y-18130714D01*
X6062143Y-18111667D01*
X6043095Y-18102143D01*
X6014524Y-18102143D01*
X5995476Y-18111667D01*
X5985952Y-18121190D01*
X6195476Y-18235476D02*
X6176428Y-18225952D01*
X6166905Y-18216429D01*
X6157381Y-18197381D01*
X6157381Y-18140238D01*
X6166905Y-18121190D01*
X6176428Y-18111667D01*
X6195476Y-18102143D01*
X6224048Y-18102143D01*
X6243095Y-18111667D01*
X6252619Y-18121190D01*
X6262143Y-18140238D01*
X6262143Y-18197381D01*
X6252619Y-18216429D01*
X6243095Y-18225952D01*
X6224048Y-18235476D01*
X6195476Y-18235476D01*
X6376428Y-18235476D02*
X6357381Y-18225952D01*
X6347857Y-18206905D01*
X6347857Y-18035476D01*
X6528809Y-18225952D02*
X6509762Y-18235476D01*
X6471667Y-18235476D01*
X6452619Y-18225952D01*
X6443095Y-18206905D01*
X6443095Y-18130714D01*
X6452619Y-18111667D01*
X6471667Y-18102143D01*
X6509762Y-18102143D01*
X6528809Y-18111667D01*
X6538333Y-18130714D01*
X6538333Y-18149762D01*
X6443095Y-18168810D01*
X6614524Y-18225952D02*
X6633571Y-18235476D01*
X6671667Y-18235476D01*
X6690714Y-18225952D01*
X6700238Y-18206905D01*
X6700238Y-18197381D01*
X6690714Y-18178333D01*
X6671667Y-18168810D01*
X6643095Y-18168810D01*
X6624048Y-18159286D01*
X6614524Y-18140238D01*
X6614524Y-18130714D01*
X6624048Y-18111667D01*
X6643095Y-18102143D01*
X6671667Y-18102143D01*
X6690714Y-18111667D01*
X6766905Y-18311667D02*
X6776428Y-18302143D01*
X6795476Y-18273571D01*
X6805000Y-18254524D01*
X6814524Y-18225952D01*
X6824048Y-18178333D01*
X6824048Y-18140238D01*
X6814524Y-18092619D01*
X6805000Y-18064048D01*
X6795476Y-18045000D01*
X6776428Y-18016429D01*
X6766905Y-18006905D01*
X7128809Y-18311667D02*
X7119286Y-18302143D01*
X7100238Y-18273571D01*
X7090714Y-18254524D01*
X7081190Y-18225952D01*
X7071667Y-18178333D01*
X7071667Y-18140238D01*
X7081190Y-18092619D01*
X7090714Y-18064048D01*
X7100238Y-18045000D01*
X7119286Y-18016429D01*
X7128809Y-18006905D01*
X7205000Y-18102143D02*
X7205000Y-18235476D01*
X7205000Y-18121190D02*
X7214524Y-18111667D01*
X7233571Y-18102143D01*
X7262143Y-18102143D01*
X7281190Y-18111667D01*
X7290714Y-18130714D01*
X7290714Y-18235476D01*
X7414524Y-18235476D02*
X7395476Y-18225952D01*
X7385952Y-18216429D01*
X7376428Y-18197381D01*
X7376428Y-18140238D01*
X7385952Y-18121190D01*
X7395476Y-18111667D01*
X7414524Y-18102143D01*
X7443095Y-18102143D01*
X7462143Y-18111667D01*
X7471667Y-18121190D01*
X7481190Y-18140238D01*
X7481190Y-18197381D01*
X7471667Y-18216429D01*
X7462143Y-18225952D01*
X7443095Y-18235476D01*
X7414524Y-18235476D01*
X7538333Y-18102143D02*
X7614524Y-18102143D01*
X7566905Y-18035476D02*
X7566905Y-18206905D01*
X7576428Y-18225952D01*
X7595476Y-18235476D01*
X7614524Y-18235476D01*
X7833571Y-18102143D02*
X7833571Y-18302143D01*
X7833571Y-18111667D02*
X7852619Y-18102143D01*
X7890714Y-18102143D01*
X7909762Y-18111667D01*
X7919286Y-18121190D01*
X7928809Y-18140238D01*
X7928809Y-18197381D01*
X7919286Y-18216429D01*
X7909762Y-18225952D01*
X7890714Y-18235476D01*
X7852619Y-18235476D01*
X7833571Y-18225952D01*
X8043095Y-18235476D02*
X8024048Y-18225952D01*
X8014524Y-18206905D01*
X8014524Y-18035476D01*
X8205000Y-18235476D02*
X8205000Y-18130714D01*
X8195476Y-18111667D01*
X8176428Y-18102143D01*
X8138333Y-18102143D01*
X8119286Y-18111667D01*
X8205000Y-18225952D02*
X8185952Y-18235476D01*
X8138333Y-18235476D01*
X8119286Y-18225952D01*
X8109762Y-18206905D01*
X8109762Y-18187857D01*
X8119286Y-18168810D01*
X8138333Y-18159286D01*
X8185952Y-18159286D01*
X8205000Y-18149762D01*
X8271667Y-18102143D02*
X8347857Y-18102143D01*
X8300238Y-18035476D02*
X8300238Y-18206905D01*
X8309762Y-18225952D01*
X8328809Y-18235476D01*
X8347857Y-18235476D01*
X8490714Y-18225952D02*
X8471667Y-18235476D01*
X8433571Y-18235476D01*
X8414524Y-18225952D01*
X8405000Y-18206905D01*
X8405000Y-18130714D01*
X8414524Y-18111667D01*
X8433571Y-18102143D01*
X8471667Y-18102143D01*
X8490714Y-18111667D01*
X8500238Y-18130714D01*
X8500238Y-18149762D01*
X8405000Y-18168810D01*
X8671667Y-18235476D02*
X8671667Y-18035476D01*
X8671667Y-18225952D02*
X8652619Y-18235476D01*
X8614524Y-18235476D01*
X8595476Y-18225952D01*
X8585952Y-18216429D01*
X8576429Y-18197381D01*
X8576429Y-18140238D01*
X8585952Y-18121190D01*
X8595476Y-18111667D01*
X8614524Y-18102143D01*
X8652619Y-18102143D01*
X8671667Y-18111667D01*
X8747857Y-18311667D02*
X8757381Y-18302143D01*
X8776429Y-18273571D01*
X8785952Y-18254524D01*
X8795476Y-18225952D01*
X8805000Y-18178333D01*
X8805000Y-18140238D01*
X8795476Y-18092619D01*
X8785952Y-18064048D01*
X8776429Y-18045000D01*
X8757381Y-18016429D01*
X8747857Y-18006905D01*
X1995000Y-18465000D02*
G75*
G03*
X1995000Y-18465000I-100000J0D01*
G01*
X2233571Y-18355476D02*
X2357381Y-18355476D01*
X2290714Y-18431667D01*
X2319286Y-18431667D01*
X2338333Y-18441190D01*
X2347857Y-18450714D01*
X2357381Y-18469762D01*
X2357381Y-18517381D01*
X2347857Y-18536429D01*
X2338333Y-18545952D01*
X2319286Y-18555476D01*
X2262143Y-18555476D01*
X2243095Y-18545952D01*
X2233571Y-18536429D01*
X2443095Y-18536429D02*
X2452619Y-18545952D01*
X2443095Y-18555476D01*
X2433571Y-18545952D01*
X2443095Y-18536429D01*
X2443095Y-18555476D01*
X2528810Y-18374524D02*
X2538333Y-18365000D01*
X2557381Y-18355476D01*
X2605000Y-18355476D01*
X2624048Y-18365000D01*
X2633571Y-18374524D01*
X2643095Y-18393571D01*
X2643095Y-18412619D01*
X2633571Y-18441190D01*
X2519286Y-18555476D01*
X2643095Y-18555476D01*
X2766905Y-18355476D02*
X2785952Y-18355476D01*
X2805000Y-18365000D01*
X2814524Y-18374524D01*
X2824048Y-18393571D01*
X2833571Y-18431667D01*
X2833571Y-18479286D01*
X2824048Y-18517381D01*
X2814524Y-18536429D01*
X2805000Y-18545952D01*
X2785952Y-18555476D01*
X2766905Y-18555476D01*
X2747857Y-18545952D01*
X2738333Y-18536429D01*
X2728810Y-18517381D01*
X2719286Y-18479286D01*
X2719286Y-18431667D01*
X2728810Y-18393571D01*
X2738333Y-18374524D01*
X2747857Y-18365000D01*
X2766905Y-18355476D01*
X2957381Y-18355476D02*
X2976428Y-18355476D01*
X2995476Y-18365000D01*
X3005000Y-18374524D01*
X3014524Y-18393571D01*
X3024048Y-18431667D01*
X3024048Y-18479286D01*
X3014524Y-18517381D01*
X3005000Y-18536429D01*
X2995476Y-18545952D01*
X2976428Y-18555476D01*
X2957381Y-18555476D01*
X2938333Y-18545952D01*
X2928809Y-18536429D01*
X2919286Y-18517381D01*
X2909762Y-18479286D01*
X2909762Y-18431667D01*
X2919286Y-18393571D01*
X2928809Y-18374524D01*
X2938333Y-18365000D01*
X2957381Y-18355476D01*
X3109762Y-18555476D02*
X3109762Y-18422143D01*
X3109762Y-18441190D02*
X3119286Y-18431667D01*
X3138333Y-18422143D01*
X3166905Y-18422143D01*
X3185952Y-18431667D01*
X3195476Y-18450714D01*
X3195476Y-18555476D01*
X3195476Y-18450714D02*
X3205000Y-18431667D01*
X3224048Y-18422143D01*
X3252619Y-18422143D01*
X3271667Y-18431667D01*
X3281190Y-18450714D01*
X3281190Y-18555476D01*
X3376428Y-18555476D02*
X3376428Y-18422143D01*
X3376428Y-18441190D02*
X3385952Y-18431667D01*
X3405000Y-18422143D01*
X3433571Y-18422143D01*
X3452619Y-18431667D01*
X3462143Y-18450714D01*
X3462143Y-18555476D01*
X3462143Y-18450714D02*
X3471667Y-18431667D01*
X3490714Y-18422143D01*
X3519286Y-18422143D01*
X3538333Y-18431667D01*
X3547857Y-18450714D01*
X3547857Y-18555476D01*
X3938333Y-18345952D02*
X3766905Y-18603095D01*
X4195476Y-18355476D02*
X4214524Y-18355476D01*
X4233571Y-18365000D01*
X4243095Y-18374524D01*
X4252619Y-18393571D01*
X4262143Y-18431667D01*
X4262143Y-18479286D01*
X4252619Y-18517381D01*
X4243095Y-18536429D01*
X4233571Y-18545952D01*
X4214524Y-18555476D01*
X4195476Y-18555476D01*
X4176428Y-18545952D01*
X4166905Y-18536429D01*
X4157381Y-18517381D01*
X4147857Y-18479286D01*
X4147857Y-18431667D01*
X4157381Y-18393571D01*
X4166905Y-18374524D01*
X4176428Y-18365000D01*
X4195476Y-18355476D01*
X4347857Y-18536429D02*
X4357381Y-18545952D01*
X4347857Y-18555476D01*
X4338333Y-18545952D01*
X4347857Y-18536429D01*
X4347857Y-18555476D01*
X4547857Y-18555476D02*
X4433571Y-18555476D01*
X4490714Y-18555476D02*
X4490714Y-18355476D01*
X4471667Y-18384048D01*
X4452619Y-18403095D01*
X4433571Y-18412619D01*
X4624048Y-18374524D02*
X4633571Y-18365000D01*
X4652619Y-18355476D01*
X4700238Y-18355476D01*
X4719286Y-18365000D01*
X4728810Y-18374524D01*
X4738333Y-18393571D01*
X4738333Y-18412619D01*
X4728810Y-18441190D01*
X4614524Y-18555476D01*
X4738333Y-18555476D01*
X4909762Y-18355476D02*
X4871667Y-18355476D01*
X4852619Y-18365000D01*
X4843095Y-18374524D01*
X4824048Y-18403095D01*
X4814524Y-18441190D01*
X4814524Y-18517381D01*
X4824048Y-18536429D01*
X4833571Y-18545952D01*
X4852619Y-18555476D01*
X4890714Y-18555476D01*
X4909762Y-18545952D01*
X4919286Y-18536429D01*
X4928810Y-18517381D01*
X4928810Y-18469762D01*
X4919286Y-18450714D01*
X4909762Y-18441190D01*
X4890714Y-18431667D01*
X4852619Y-18431667D01*
X4833571Y-18441190D01*
X4824048Y-18450714D01*
X4814524Y-18469762D01*
X5052619Y-18355476D02*
X5071667Y-18355476D01*
X5090714Y-18365000D01*
X5100238Y-18374524D01*
X5109762Y-18393571D01*
X5119286Y-18431667D01*
X5119286Y-18479286D01*
X5109762Y-18517381D01*
X5100238Y-18536429D01*
X5090714Y-18545952D01*
X5071667Y-18555476D01*
X5052619Y-18555476D01*
X5033571Y-18545952D01*
X5024048Y-18536429D01*
X5014524Y-18517381D01*
X5005000Y-18479286D01*
X5005000Y-18431667D01*
X5014524Y-18393571D01*
X5024048Y-18374524D01*
X5033571Y-18365000D01*
X5052619Y-18355476D01*
X5195476Y-18355476D02*
X5195476Y-18393571D01*
X5271667Y-18355476D02*
X5271667Y-18393571D01*
X5566905Y-18631667D02*
X5557381Y-18622143D01*
X5538333Y-18593571D01*
X5528810Y-18574524D01*
X5519286Y-18545952D01*
X5509762Y-18498333D01*
X5509762Y-18460238D01*
X5519286Y-18412619D01*
X5528810Y-18384048D01*
X5538333Y-18365000D01*
X5557381Y-18336429D01*
X5566905Y-18326905D01*
X5728809Y-18422143D02*
X5728809Y-18555476D01*
X5681190Y-18345952D02*
X5633571Y-18488810D01*
X5757381Y-18488810D01*
X5985952Y-18555476D02*
X5985952Y-18355476D01*
X6071667Y-18555476D02*
X6071667Y-18450714D01*
X6062143Y-18431667D01*
X6043095Y-18422143D01*
X6014524Y-18422143D01*
X5995476Y-18431667D01*
X5985952Y-18441190D01*
X6195476Y-18555476D02*
X6176428Y-18545952D01*
X6166905Y-18536429D01*
X6157381Y-18517381D01*
X6157381Y-18460238D01*
X6166905Y-18441190D01*
X6176428Y-18431667D01*
X6195476Y-18422143D01*
X6224048Y-18422143D01*
X6243095Y-18431667D01*
X6252619Y-18441190D01*
X6262143Y-18460238D01*
X6262143Y-18517381D01*
X6252619Y-18536429D01*
X6243095Y-18545952D01*
X6224048Y-18555476D01*
X6195476Y-18555476D01*
X6376428Y-18555476D02*
X6357381Y-18545952D01*
X6347857Y-18526905D01*
X6347857Y-18355476D01*
X6528809Y-18545952D02*
X6509762Y-18555476D01*
X6471667Y-18555476D01*
X6452619Y-18545952D01*
X6443095Y-18526905D01*
X6443095Y-18450714D01*
X6452619Y-18431667D01*
X6471667Y-18422143D01*
X6509762Y-18422143D01*
X6528809Y-18431667D01*
X6538333Y-18450714D01*
X6538333Y-18469762D01*
X6443095Y-18488810D01*
X6614524Y-18545952D02*
X6633571Y-18555476D01*
X6671667Y-18555476D01*
X6690714Y-18545952D01*
X6700238Y-18526905D01*
X6700238Y-18517381D01*
X6690714Y-18498333D01*
X6671667Y-18488810D01*
X6643095Y-18488810D01*
X6624048Y-18479286D01*
X6614524Y-18460238D01*
X6614524Y-18450714D01*
X6624048Y-18431667D01*
X6643095Y-18422143D01*
X6671667Y-18422143D01*
X6690714Y-18431667D01*
X6766905Y-18631667D02*
X6776428Y-18622143D01*
X6795476Y-18593571D01*
X6805000Y-18574524D01*
X6814524Y-18545952D01*
X6824048Y-18498333D01*
X6824048Y-18460238D01*
X6814524Y-18412619D01*
X6805000Y-18384048D01*
X6795476Y-18365000D01*
X6776428Y-18336429D01*
X6766905Y-18326905D01*
X7128809Y-18631667D02*
X7119286Y-18622143D01*
X7100238Y-18593571D01*
X7090714Y-18574524D01*
X7081190Y-18545952D01*
X7071667Y-18498333D01*
X7071667Y-18460238D01*
X7081190Y-18412619D01*
X7090714Y-18384048D01*
X7100238Y-18365000D01*
X7119286Y-18336429D01*
X7128809Y-18326905D01*
X7205000Y-18422143D02*
X7205000Y-18555476D01*
X7205000Y-18441190D02*
X7214524Y-18431667D01*
X7233571Y-18422143D01*
X7262143Y-18422143D01*
X7281190Y-18431667D01*
X7290714Y-18450714D01*
X7290714Y-18555476D01*
X7414524Y-18555476D02*
X7395476Y-18545952D01*
X7385952Y-18536429D01*
X7376428Y-18517381D01*
X7376428Y-18460238D01*
X7385952Y-18441190D01*
X7395476Y-18431667D01*
X7414524Y-18422143D01*
X7443095Y-18422143D01*
X7462143Y-18431667D01*
X7471667Y-18441190D01*
X7481190Y-18460238D01*
X7481190Y-18517381D01*
X7471667Y-18536429D01*
X7462143Y-18545952D01*
X7443095Y-18555476D01*
X7414524Y-18555476D01*
X7538333Y-18422143D02*
X7614524Y-18422143D01*
X7566905Y-18355476D02*
X7566905Y-18526905D01*
X7576428Y-18545952D01*
X7595476Y-18555476D01*
X7614524Y-18555476D01*
X7833571Y-18422143D02*
X7833571Y-18622143D01*
X7833571Y-18431667D02*
X7852619Y-18422143D01*
X7890714Y-18422143D01*
X7909762Y-18431667D01*
X7919286Y-18441190D01*
X7928809Y-18460238D01*
X7928809Y-18517381D01*
X7919286Y-18536429D01*
X7909762Y-18545952D01*
X7890714Y-18555476D01*
X7852619Y-18555476D01*
X7833571Y-18545952D01*
X8043095Y-18555476D02*
X8024048Y-18545952D01*
X8014524Y-18526905D01*
X8014524Y-18355476D01*
X8205000Y-18555476D02*
X8205000Y-18450714D01*
X8195476Y-18431667D01*
X8176428Y-18422143D01*
X8138333Y-18422143D01*
X8119286Y-18431667D01*
X8205000Y-18545952D02*
X8185952Y-18555476D01*
X8138333Y-18555476D01*
X8119286Y-18545952D01*
X8109762Y-18526905D01*
X8109762Y-18507857D01*
X8119286Y-18488810D01*
X8138333Y-18479286D01*
X8185952Y-18479286D01*
X8205000Y-18469762D01*
X8271667Y-18422143D02*
X8347857Y-18422143D01*
X8300238Y-18355476D02*
X8300238Y-18526905D01*
X8309762Y-18545952D01*
X8328809Y-18555476D01*
X8347857Y-18555476D01*
X8490714Y-18545952D02*
X8471667Y-18555476D01*
X8433571Y-18555476D01*
X8414524Y-18545952D01*
X8405000Y-18526905D01*
X8405000Y-18450714D01*
X8414524Y-18431667D01*
X8433571Y-18422143D01*
X8471667Y-18422143D01*
X8490714Y-18431667D01*
X8500238Y-18450714D01*
X8500238Y-18469762D01*
X8405000Y-18488810D01*
X8671667Y-18555476D02*
X8671667Y-18355476D01*
X8671667Y-18545952D02*
X8652619Y-18555476D01*
X8614524Y-18555476D01*
X8595476Y-18545952D01*
X8585952Y-18536429D01*
X8576429Y-18517381D01*
X8576429Y-18460238D01*
X8585952Y-18441190D01*
X8595476Y-18431667D01*
X8614524Y-18422143D01*
X8652619Y-18422143D01*
X8671667Y-18431667D01*
X8747857Y-18631667D02*
X8757381Y-18622143D01*
X8776429Y-18593571D01*
X8785952Y-18574524D01*
X8795476Y-18545952D01*
X8805000Y-18498333D01*
X8805000Y-18460238D01*
X8795476Y-18412619D01*
X8785952Y-18384048D01*
X8776429Y-18365000D01*
X8757381Y-18336429D01*
X8747857Y-18326905D01*
M02*
